<mxfile host="Electron" modified="2023-12-11T13:37:31.513Z" agent="Mozilla/5.0 (Windows NT 10.0; Win64; x64) AppleWebKit/537.36 (KHTML, like Gecko) draw.io/22.1.2 Chrome/114.0.5735.289 Electron/25.9.4 Safari/537.36" etag="qLfCtrNoETURsMVRAdfs" version="22.1.2" type="device">
  <diagram name="Page-1" id="831g7k5AgRSs_lL72D_d">
    <mxGraphModel dx="2231" dy="808" grid="1" gridSize="10" guides="1" tooltips="1" connect="1" arrows="1" fold="1" page="1" pageScale="1" pageWidth="850" pageHeight="1100" math="0" shadow="0">
      <root>
        <mxCell id="0" />
        <mxCell id="1" parent="0" />
        <mxCell id="jhv-o3toAknsNw_Rnt7w-1" value="" style="shape=image;verticalLabelPosition=bottom;labelBackgroundColor=default;verticalAlign=top;aspect=fixed;imageAspect=0;image=data:image/png,iVBORw0KGgoAAAANSUhEUgAAA2cAAAEPCAYAAADGc7x7AAAAAXNSR0IArs4c6QAAAARnQU1BAACxjwv8YQUAAAAJcEhZcwAAFxEAABcRAcom8z8AAP+lSURBVHhe7P0FgBxHli0M6/ve2//bt/ve7M68nR2zJTPILNuywJIssiWDZLEsRstiZouZmZmZmRlazOpuNahBzcx0/jhZFepSd3ZVZWTZpR7lmbludWbevDfuiYiMU5lZXQJuIi8vDxkZGcjMzLRvMYbs7GzNnz9VwLj0Zx4qSElJQXh4OLKysuxb3AdzTk9PR25urn2L+6APc6ep+Ofk5GixVevGekVERCA+Pt6+xX1IzlVqRnib8+TkZDx69EgpfnHmnDHJeUJCgn2L+zDLOf28yXlSUpLGOWtoFMzdE5yr5C45V8mbkJwnJibat7gP+jK2NzhnrcxyzjZ7i3Pm7S3O6cd2s88bhac4V8mdtZJ1UwXnNvZ3Fd5k7qqcmeFcXldUOae/NzhnW73NOdcw3uSc5/Am51zPGIXkXHVu9jbncXFxiIyMVKo743qbc5W+KmGJMzdgptD0Ye40FX92EtXBRbBeljgzHr84c86YljgzfjFh7p7gXCV3yblK3oTk3BJnxmCWc+btLc7p542FOiE5V8mdtZJ1U4UlzixxZgSe4Jzn8CbnljgzBsb1NucqfVXCEmduwEyh6cPcaSr+7CSqg4tgvSxxZjx+ceacMS1xZvxiwtw9wblK7pJzlbwJybklzozBLOfM21uc088bC3VCcq6SO2sl66YKS5xZ4swIPME5z+FNzi1xZgyM623OVfqqhCXO3ICZQtOHudNU/NlJVAcXwXpZ4sx4/OLMOWNa4sz4xYS5e4Jzldwl5yp5E5JzS5wZg1nOmbe3OKefNxbqhORcJXfWStZNFZY4e/Y4l+JMpe6e4Jzn8CbnljgzBsb1Nucq85NECTq7YzKYJErvGGcmSWbB9PY7M1ko2cn0jnFmLC4ns7CwsMdk6R2nZ4zNnBmbbdA7xpkxX8akqeTOmIytUje2k/lzYMfGxhpqN01yztgqnMvB4S3OuWijIGd8o5zL2MWRc8Yk55zYVDln7t7iXLVubCsXbfJDGG9xrlo3s5yz3VzAFFfOVWJ7inOV/uZtztletpvtN8q5nGPM5E5fldzN1o1tZT/nHMdzFUfOVeYYtpP+5JzXNm9xrpK7Jzjn9Yyc0/9Z45xrV65h/0zOebxZzs30N7aV61YKcvo/K5xLK8ETuGtpaWma6e1zx8z6qvqzUBzYISEh2qcPsnBGzFu501R92bHoy4EdFRWl3G5v5E4zE5tt5cAODQ3V7prKgequeaLdZv31trsyR86jo6MtznWOK8o80W5v+LOdqampWrtjYmKeOc7ZZradNbA4d9+8lTvNjC/byrmNc1xx5VxvuytjOzmvkXPOc8/aOJec8xzPEudcs3LtyjXss8Q5285167PGubQSVIjumnSiGtTb78xkp2KB9fa7MkmMSmwqX37SJEnm73rH6RmPlbnzp94xzoz5quYu81StG/0Zk5828QJupN3SGFu17rLd3uJcfqLOcxhpO481yzl9VXKXnNFXlXPmLO+WGmm3NBlbpe6ybt7inJ+ok3Oex0jbZd0Yu7hyzvmNF3Aj7ZYmYz+rnKvElpyp+DO29FflnH5sN9tvpN3SZGyVtnubc3kXhXkYaTuPLc6c05ec89pmpN3SZGyVtsu68afefldGX5pKbLaV1zNyTn8jbeexnuBcpW6OsVXqRn/6cm7nGtZou/lTNXce723OuW5V4ZxWXDmX5vY7ZwQTZTAVMBj9+VMFjEt/3tpUgSfeOWPRjYK3J5k7jf82CvowtmrdWC/eFuYFXAXFmXNPvHPmDc4Z0wznjEnOeQFXAWuuMk4I+nmTc0+8c2aWc5XcPcU5L+BGwXyLM+dss1nOVcYpfZi3tzinP9ut8v4R82Vsb3JOUwXnNvZ3Fd5k7qqceZNz+nmbc5VxRsi6qYJrGHKuUndPcM5zqPiTM9ZdtW6Sc5V3zsxwTl9vc84PYVTfOSvOnBPWF4K4AVlo1Qs4c6ep+JNcxlatG+ulKs4k5yo1I7zNuSfEWXHknDFVxZlZzuWE6C3OPSHOzHKukrvkXHUyl5yriDP6MrY3OGetzHJe3MWZKuf0U12oe4pzldxZK1k3VRRXcSavK6qc098bnLOt3uZcijNvcc5zeJNzFXEmOVedm73NuRlxxrje5lylr0pY4swNmCk0fZg7TcWfnUR1cBGslyXOjMcvzpwzpiXOjF9MmLsnOFfJXXKukjchObfEmTGY5Zx5e4tz+nljoU5IzlVyZ61k3VRhiTNLnBmBJzjnObzJuSXOjIFxvc25Sl+VsMSZGzBTaPowd5qKPzuJ6uAiWC9LnBmPX5w5Z0xLnBm/mDB3T3CukrvkXCVvQnJuiTNjMMs58/YW5/TzxkKdkJyr5M5aybqpwhJnljgzAk9wznN4k3NLnBkD43qbc5W+KmGJMzdgptD0Ye40FX92EtXBRbBeljgzHr84c86YljgzfjFh7p7gXCV3yblK3oTk3BJnxmCWc+btLc7p542FOiE5V8mdtZJ1U4UlzixxZgSe4Jzn8CbnljgzBsb1NucqfVXCEmduwEyh6cPcaSr+7CSqg4tgvSxxZjx+ceacMS1xZvxiwtw9wblK7pJzlbwJybklzozBLOfM21uc088bC3VCcq6SO2sl66YKS5xZ4swIPME5z+FNzi1xZgyM623OVfqqhCXO3ICZQtOHudNU/NlJVAcXwXpZ4sx4/OLMOWNa4sz4xYS5e4Jzldwl5yp5E5JzS5wZg1nOmbe3OKefNxbqhORcJXfWStZNFZY4s8SZEXiCc57Dm5xb4swYGNfbnKv0VQlLnLkBM4WmD3Onqfizk6gOLoL1ssSZ8fjFmXPGtMSZ2oWwOINjnLV71sA28yL+LILtVh2r3oKcYzjWVWGJM0ucGYEnOOc5vMm5Jc6MwcxawlOcq/RVCUucuQEzhaYPc6ep+LOTqA4ugvWyxJnx+MWZc8a0xJn+xYTnZX24nzk6Gv9APfsMcyi4z5XRJzU1VTPWQO8YZ8Y2M7asnVFj/NDQUO0Ptertd2b0ZWy2X2+/K6Mf51fZZ40Ya8Wa0V+lbjS2OSQkRKl2Zjln3t7inH5sNxcwevudmac4d5Y7xxjHWsGxLOcY5qAKS5xZ4swIPME5z+FNzjlejUJyznMYxdPAuSXO3IDZQjNZ+qt0EsJMoQlLnFnizAiKM+eMaYmzwhcT1uXq1auYMWMGevXqhd69e2vWp08fzbitR48eT2xz16SvWX/+1NvvyujXqVMndOvWTXe/M2O+ZmL37NlT2Z+x6U9TqRuNbWbbVeLTxyxnZv1V8qbR72nknOem9evXDxMmTMDdu3ftI9AGOcdwrKvCEmeWODMCT3DOc3iTc0ucGYOZtYSnOFfpqxKWOHMDZgpNH+ZOU/FnJ1EdXATrZYkz4/GLM+eMaYmzwhcT5rR+/XpUrFgRb775JmrUqIFvv/1W+0mrXr06qlWr9vh3IyZ9zfhXrVpV+6m335nVrFlT86tcubJ2Dv6ud5wzY94qsWn0k6a335WZqRvbyjaz7fL3gsc4M+ZshjOz/v+MnH/33Xf4+uuv8e6776Js2bI4cOCAfQTaIOcYjnVVWOLMEmdG4AnOeQ5vcm6JM2Mws5bwFOcqfVXCEmduwEyh6cPcaSr+7CSqg4tgvSxxZjx+ceacMS1xpi/Oli9fri0Y69Wrhy1btmDbtm3YvHmzZhs2bMC6deuwadOmx9vcNfpQ+NFU/Ddu3Ii1a9dqP/X2OzO2gzGXLFmCVatWab/rHVeU0ZftZvv19rsy5sx2q+Qu66Zad7aVbV68eLHmb7TtxZlz+rHdTxvn27dvx4IFC1C3bl2UK1cOu3btso9AG+Qcw7GuCkucWeLMCDzBOc/hTc4tcWYMZtYSnuJcpa9KuC3OCDaWyaqAjaW/agdlXDMk870A1YW6JEqFJPowd1WSSa7q4JBg51ZZqBOsuUrNCG9zTkHOyVwlfnHmnDHJuco39xFmOKefNznnBayoCzhzozj75ptvMHLkSPvWfHC/JzhXgeRcdTKXnKss2ujL2MWVc7ZZddFmlnPm7S3O6cd2qyzaPMV5Ubnzg9DBgwdrY23nzp32rfkwUzeCc5vqok3mrgK210zu8rqiyjn9n1bOXcEs51zDeJNz1bp5inOuZ4xCcq46N3ubcwryqKgo+2/GwLje5lylr0qUoLM7xmSpBGVAo8ZCyU9t9Pa7MsaVSlRvvyvjZBYWFqYVXG+/M2POfAGaBdfb78wkSXKA6B3jzNg5GFu1bqwXRSk/gdDb78wk5yo1o3mbcy7a5N1Svf3OrDhzzpjknBOb3n5nZpZz+nmTcy7ayDlrWHAfc1u2bJm2YBw9erR9CswHj1GdjAnmTFOFmdhETEyM9iGUCmS9VEA/9jlVsGZm/Nnm6Oho+2/GYJZz5u1NztluzhUq+CM552Jy6NCh2ljjnTQeL4314hjnWHfcbsQ4t3GOYw56+52ZnKOYh95+Z8aaydxV/OV1RdbeqNGf8xvnOb39zoy1YmyVuZ1tlXVTyd0TnHMN403OeQ5vcs71jN5+ZyY5V7kePw2c88ue5AdvevudmZm1hKc4V+mr0krwkwh3jR2EprfPlXFQ0Zc/9fa7MjOxqbwfPnwIPz8/7Rz8Xe+4oow5U9ixk+jtd2b0kbmr+MvYKnVjOxnzwYMHCAoKMtxumpm6Pw2c+/v7a+d4FjkPDg7+0zmXvt7mnPEd285Jnt9mOHPmTFSoUAH9+/fXFrbcLo/xFOd6+12ZJzhnu1U4p69qbJpst1l/vX2ujG1lm/U4d8dk3Ysj5/R7GjnnHY7r169rXxjCsbZy5UrtU3/HHM3UzZFztsNo283EZnvN+pvhnHHZbs5zTxPn7piZurGtXMPwumZxrn+snhV3zgMDAzXO9fa7MjOxPcU566+33x0rwU+g3DF+asFicUGjt9+V8VNd+vOn3n5Xxrj0Zx56+10ZixUQEKCUP3NmsVRic/HHmHIhqHeMM5OLR9W6MWdOalyY6u13Zv8MnHNwq8QvzpzTn5xzctDb78zMci458xbnnEzJecG681NHnnfu3LnaF4IMGjRIW0TyE2h5DHNWjU0fyblqnyHnKv2FRj+22wznZjlT8Zd1M8M526zHuTtmhnPGo6+3OWef19vvzDzFuV7uFGJ37tzRvrGRY43v1fFTaLlfxuY5HP2MmBnOzfQ3xjPDOetthnP6m+Fc9bpCX2ecuzJPcM41DK9rzyrnXM/o7XdmxZ1z/qkQcq5S9+LMOc3QO2e8VcfbfSrgrUH686cKGJf+qpDvnPE2o1EwZ97eVAVzV60bb2/KW6uqYCdRfeeMNVepGeFtzuU7Zyrx/xk4V33nzAzn9PMm5/KdM9awIJjbihUrtG+3GzVqlH1rPhjbDOdZWeq5S8718nYX5FzlnTOCj4AUV87lO2cqtWPubLsqmLfZca7KOf3YbpX3jwhPcF5U7rzWDhkyRBtreu+cmakbId85U4HMXQVsr5nc5XVFlXP6m+Gcsf8ozl3BLOfynTMVeIJz1bp5inOVd84Ixladm73NOUUKRZIKGNfbnJuB9W2NboA5y2dXjUKSpDpA2DkYW7VurBcHNju5UUjOVTu4tznnBYyLBJX4xZlzxiTnKoLcLOf08ybnXKgX9SEMc3P1hSCJiWKhHxmNR5ExiIhybZFRsdqxcfGJ4vy2l59Vcpecm7kYkHMVQU5fxvYG56yVWc7ZZtUP3pi7mXHOvJm/NzinH9utIsg9xXlRufPOlvxCkB07dti32sBaybqpgnMb+7sKbzJ3Vc7McC6vK6qc098bnLOtrjh3Bk9wzjWMNznnObzJuYogl5yrzs3e5px3rSjIVerOuN7mXKWvSljizA2YKTR9mDtNxZ+dRHVwEayXJc6Mxy/OnDOmJc4KX0yYmzNxxpjBwWFYuXEf1mw5gB37T2Lb3hNF2nZhW/ccx6LVO3H4pI9os+2TNpXcJed6ebsDybklzoyBuZsZ58yb+XuDc/p5Y6FOSM6Lyt0SZ/qQ1xVVzunvDc7ZVlecO4MnOLfEmSXOjIBxvc25Sl+VsMSZGzBTaPowd5qKPzuJ6uAiWC9LnBmPX5w5Z0xLnBW+mDA3Z+KM8PUPxqxFm3D4xAX4PQjG7bv++nbvgfbz3MUbmL14M7bsPq6dn3FVcpec6+XtDiTnljgzBuZuZpwzb+bvDc7p542FOiE5Lyp3S5zpQ15XVDmnvzc4Z1tdce4MnuDcEmeWODMCxvU25yp9VcISZ27ATKHpw9xpKv7sJKqDi2C9LHFmPH5x5pwxLXFW+GLC3FyLsyAsWrkD93wDRDFEH0hL1bWM9DTt58OQcKxcvxc79p3Uzs+4KrlLzvXydgeSc0ucGQNzNzPOmTfz9wbn9PPGQp2QnBeVuyXO9CGvK6qc098bnLOtrjh3Bk9wbokzS5wZAeN6m3OVviphiTM3YKbQ9GHuNBV/dhLVwUWwXpY4Mx6/OHPOmJY4K3wxYW6uxNl9vyAsFOKMd8bycsmD7W+lFDTmyZ8BgSFYtna3Jc4UOWetzHJuiTNLnBmBzF2VMzOcy+uKKuf09wbnbKsrzp3BE5xb4swSZ0bAuN7mXKWvSljizA2YKTR9mDtNxZ+dRHVwEayXJc6Mxy/OnDOmJc4KX0yYmzvibMGK7Th38SpCQ0Pg6+cPvyLM3/8Bbt3xxbJ1QpztP4lscX7GVcldcq6XtzuQnHtDnJkBa2WW84zMNERFWOLMCMxyLsd5Ublb4kwf8rqiyjn9LXHmHc55Dm9ybokzY2Bcb3Ou0lclLHHmBswUmj7Mnabiz06iOrgI1ssSZ8bjF2fOGdMSZ4UvJszNuTjL094zm7t0C5avXI+ZM2eg/4ABYpE5BIOHCJM/hfGPWI8YMQIHDx3H6s22Lw95psRZXg5ysjK0RzsTEmx/F4b9jfNsSmoaMtzs9qyVMucih6z0DERFxiA03BJnRqDEuQPkOC8qd0uc6UNeV1Q5p78lzrzDOc/hTc4tcWYMjOttzlX6qoQlztyAmULTh7nTVPzZSVQHF8F6WeLMePzizDljWuKs8MWEuTkXZ7mPxdmseYvRunUrfPTxR/jiiy/w5ZdfPmEfi+2VK1fGmnWbsW7bYSHOTj1T4iz+1mas7l0DtSpXRIVyX6Fs2a/w1VdfoVy5cij/zXfosvYa/Ny4VLBWapyLOiVfxObeYzCw/WLs949GlkLd2WYz45x5M39vcE4/S5wZ503mrsqZGc7ldUWVc/pb4sw7nPMc3uTcEmfGwLje5lylr0pY4swNmCk0fZg7TcWfnUR1cBGslyXOjMcvzpwzpiXOCl9MmJtTcZaXg7v3AzBv2VZs2rYHy5Yuw/DhIzF69BiMGT0WY8YI409hI0eMwoQJk7B7zyEsXbsHOynOnqGv0g/Z2x+Dvi6B1yo3ReOOvdCrV3f06NELPXv2RPfffkSTCvXQaNQObHxkdygCrJUa52Jcpd3HqYXrsGjybpwJjEK2Qt3ZZjPjnHkzf29wTj9LnBnnTeauypkZzuV1RZVz+lvizDuc8xze5NwSZ8bAuN7mXKWvSljizA2YKTR9mDtNxZ+dRHVwEayXJc6Mxy/OnDOmJc4KX0yYmzNxxi8AuXnHTxNnR46fw4MHgfDzC4Cvjvn7B8LX9wHOnL2EuYs3PXPi7OHu/hjf8n203xQE/0JuvjjXuQY+fLMKak88gkdporb2Pc6hxjkRHxmuXDtVsG7sq+yz3uCcfpY4Mz6/ytxVOTPDubyuqHJOf0uceYdznsObnFvizBgY19ucq/RVCUucuQEzhaYPc6ep+LOTqA4ugvWyxJnx+MWZc8a0xFnhiwlzcybOcoXPzdu+2mONew+cwLVrN3Dp8jVdu3yFP6/i6PEzmLN4I3YeeMbE2Z4BGN/8XbRedRs34rgl98l2J53Fskbv4afKdTDlahbSnihJMlJCr+Dq5Uvw8fHB2fPXcScgBo97THosggKiERCewftjTyAnLQpxEX4IjU9DRlYaksIj4XsnGAFhEciRB6eGI/zeFVwS5/a5dBmXrgYgPKFg2zKRHOKHa+fP4cyZM7h4SeQTnoIUA9Sxbuyr7LPe4Jx+ljgzPr/K3FU5M8O5vK6ock5/S5x5h3Oew5ucW+LMGBjX25yr9FWJEgzsjjFZBmPCDKh3jDNjso6NNWKMR1/ZwfWOcWYEOzbFmewoesfpGWMzZ9nB9Y5xZsxXdhKV3CXJKnUjmD8nNHZyQu+4okxyzvxVOJcD21ucy4U64xN6x+kZY7PNZjhn7t7inDHJuRTkescVZU8D56p1IyhOyDlrSDjuY5uWLVuGKlWqPCHObPtF3bMycePWfU2cbdt1CGfOXsCJk2d17eQp28+9B45j5sL12HXgNLR3zkRc1bqZ5ZztloJc77iizH3OtVNrCN7TH+OavYNWy6/jajS3ZD7O3YZchK+vg+Ztv0DZZfcRkWbfnJeF5HsrsKz3a/jg3TfwxhvCXvsadTquxNFoEZsSLWADuvzwO37scBC+DjGJkENjMLtbTQzYfgsBIeewqV1f/FpnOnb4xQpPkWNuPG6t74IulV/D6zy3sNdL1UXnqSdxM0P0KZ4kLxuZUcex+rd6qPy62P/663jjndIo1WcFVtxPsYvEgm0vbKyb7K/e4Jx9nJxLQa53XFEm55g/YpwToaGhuuKM+83WjZDijOci9I7TM8aTczt99Y5xZp7iXOW6QtCfnEtxpndcUeYpzlVy9wTnBcWZ3nF65inOzdTNLOdcu0pxpndcUWaGcx5vlnPGNsO5FGf0J/SO0zMez7jFkXNpJZiAO8ZAaWlpmsmCGzHpb8ZX1Z+FIskhISFaB5cdzh1jPLO5m/VX9ZUTEj/FjIqKMtRummNslfiO/nr7nZn0VfVnW/kNclwk8K4pa6F3nJ6Zje0pfxVftpO+5Dw6OvqZ5Tw1NfUJzjnBcuwvWrQIlSpVwrBhw7SJM38SZvw0Ic7uYdaiTViyahu27DiAjdv2YeNWfdskbN3mPZgyd432hSCZzME+5mRcd81M3STnbHdMTMwfyDnvBmcJ2ZUNv+19Mbrp22ix5BIuR4gLZ67tPDwuMysb4v/IvjAc3Xv+iNcGHMDNOH4olobg3QPRt2d1fD1wNOYuW4MNG9Zhw5xBaP1DK5RrugwHgxKRnnwM0yuUxdevt8LUK8lIyBAX6lyxCM/xxaGhHdDinToYud8PIeEHMKNyfdT6aAjW+ScgOSUQN1a0xM+1y6NSm5GYv3491q9agAXdf8RXH3RAg+E+CMuLRcyVDfj153b4+ZdhmLZqAzZu3ICVi8aie4tyKDdgPMZcEgI3R7QzS68G+Sbrpsqb9FfxJefs43885/rmLHciICAAAwYM0L40Z/Pmzdo2OR6lr2rb2VbObZzjeA7Hce7KGM9Z7q7MbO5mYrOdvJaRc85zz9rcLjmnvzc4l+fRO8aZmYntyDnXsH8m59LHbN3MtJ3rVlXOzcSW/vxp1l9vvztWgg12x9gpZKJ6+10Zg8lE9fY7MxmbjdXb78q4COMnbXLRxt/1jtMzORgYWyV3mmrdGJs/VWOznfTjpy6c2Iy0m1bcOecnbfIC/ixyzkXbs8Y5L2B6nFOc8SK3ePFibcE4fPhwTZhxu/SlOLt24w6mL1iPSbNWaXfENBO/F20bMHbacuw6IMSZOE9WVuG8XJknOGfd2G4u2oxyTnOP82zt3HnIwYOdfTGG4mzpFVyJFOIpz3ZB4XHZ2TnIzslF3pVZ6N+9Fd7uuQdXE1KFwLqNrS1boOH3QzHtiS8KyYHvuj6o+20F/LT2Cm6lJOLR4pZo/913qDTnFgJTeX4hAMM3Y1Ln9ijz7RIcDYlHRvIRzPq2JRpUGIttQY8QE7AHC6p9jMo/DMaUOw6P0kQfx9ppazFrtS8iYy/hypIaqNxoBMYdL/C4zblBaPVdQ9QR+d5PZhuEyHTBp3t1K2ye5Jx9XoVzxlbJneZsnBNBQUEYOHCgdpd669at2jaZo9k5hudhP+ccx3MYaTtjM2fVOYammrsnOKcvOee17c/kXNaNviq5e4JzXs/k00/FiXMZW5Vz+SEM17BG282fqpzTvM05163knPGfFc6luf3OGcFANN5yMwoWlr78qQImy0JxMaUCT7xzxsWcUcjFH9uukjt9GFu1buTK8RE3o5Cdqzhyzjsljo+4GYFZztluVc4Z0wznjEnO5SNuRsG8OU5UOJcTk7c4d+eds4KPNUpwIR4YFIKjpy5h/5HzOHjsgrCLTu2AsH2Hz+LWXX/tscasLNtjDEbhKc5V3zkzyrntnbN30GrFjcePNRbK/cZc9O/ZCq/3Pog7yUKcJe/FiOrt8O0nPTFh6SLMXzAf8+fPx9yFSzB3UC3UrfV/UGLALhwKF75xWzCxd3t8Un81zkTnae+epR3tie5dfkTZaXcQki3m8fQjmP1dazT8ehL2PLiHR2fnouXrndD195N4qCVQGFnBB7Bz8N9Qu8Ov6DFxCRbNn4tZs+eKXOZgyaxeqP9ieVQrNwG7YsUcYPcpCrJuNG9wTn/HR9yMgLkz9h81zikginrnjJDXRJXYhHysUWWeYO6qcwxr7k3O6edtztkGFZipGyEfa1TN3SznqnUjZ4ytWjfJuXys0QjMcM7jvc25fKzxWeOcsL4QxA3IQquQTB/mTlPtJIytWjfWS1WcSc5VakZ4m3NPiLPiyDljqoozs5zTz5ucuyPOivpCEO73BOcquUvOVSdzyfmf/YUg+eIsqzDn18ZhSP9G+GTEeTxITkNewDK0rf4Z/u0/SuLN997BO+/Y7O23bT/fLf8dPp9zHte1buuPQ793R8sPOmLx1SSkCPF3Y9zP6P5LI4w4LwQ8D0k6hFm1hDirNAX7713Hw30T8OlrQ9Fi4jXoz3Z5SLq/BQu+/w+89+LLKPn2uyLu2yL+27b4776Hd9+piaa9NuO8WAe56gWsG/uqtzinnycW6iqQ47yo3J2JMznHsG6qMCvOVOcYttcM5/K6oso5/b3BOdvqinNn8ATnUpx5i3Oew5ucmxFnheZmN/A0cG5GnDGutzlX6asSljhzA2YKTR/mTlPxZydRHVwE62WJM+PxizPnjGmJs8IXE+bmSpwxtiok5yq5S8718nYHkvOnSZxF7mqGUYO/Q5d9KUhk284Owffv18UHtZfigJ8ffH194Xv/Pm7duo3bd30RGBaFR8mZyNLKl4OgbQMwumEZdNhwA/4PT2Jp/f7o0ng9rsg04w86iLMbQpxNRJnXhqDlhKuwff1RQWQj6tQMjCn5D9RsOwtLzvvBz/cubt28iXv37sHXLxDBoRGITkhDphsUsm7sL97inH6WODM+v8rcVTkzw7m8rqhyTn9LnHmHc57Dm5xb4swYGNfbnKv0VQlLnLkBM4WmD3Onqfizk6gOLoL1ssSZ8fjFmXPGtMRZ4YsJc7PunBUGfRnbCOePxdnKm7gWwy22L1d5jNw72NK2MX6r0xfrwkW/ys1G3rUp+OGD+ij981bctx/mDFn3lmPFyDp4t+dKzJtTG/V+64amcx8KGUiIGktxxscaA+4j4twCtH2jA7oNOoYA7ZjCSLqyGFOq/jfe6b8WG2LtGxXBurGveotz+lnizPhYlbmrcmaGc3ldUeWc/pY48w7nPIc3ObfEmTEwrrc5V+mrEpY4cwNmCk0f5k5T8WcnUR1cBOtliTPj8Ysz54xpibPCFxPmZomzwqAvYxvhnH+EekKr0ui4NQRBhZobhjujGqP86/Xx/eCzCJXlTLiKhR0q4f0yP6L9rmg43qNMOLkGW/sOweIToQiXl5jUB7i2bTS+e60ivny/BD4eMBCT7st+JeokxVmFcdjxMApJoYexovaHKN98NKaG2Q/TEIbz81Zg+fST8A29jpMzauL/fl4ODeadR5T9CA3Re7Fo5GKMXXALT3xfSRFg3dhXvcU5/SxxZnysytxVOTPDubyuqHJOf0uceYdznsObnFvizBgY19ucq/RVCUucuQEzhaYPc6ep+LOTqA4ugvWyxJnx+MWZc8a0xFnhiwlzs8RZYdCXsY1w/nBPPwyp/r/wSZOBGDCRX+wxG3PmzMe8eXMxZ3IndP6iKqr+Ng8z/RyvF7mIOTkBw9t8hTI/dsDgafPE8fOE71gMblwdzcu3wJjdgXjooNrS7qzFnNdLoESJv6Bi7624pb1sRoj+FbcHkyo2RO0Ph2BDAP9EyiP4be6Mpr9+jxq9JmjnnjdvDuZNGoouNXtg4JC9uJuShZR72zCk8Sf4tGZjdBgncp4vbO40TOnQFFXK9kOHsZeK/EIRR7Bu7Kve4px+ljgzPlZl7qqcmeFcXldUOae/Jc68wznP4U3OLXFmDIzrbc5V+qqEJc7cgJlC04e501T82UlUBxfBelnizHj84sw5Y1rirPDFhLlZ4qww6MvYRjiPubQEs5u9g4/f5Rd62L5U4/EXa3z0GRpPP4IL2uOOhRFzaRFmNn0bHwlf2xeCvI0vGvXAlLPJSC3Q/Lz4SzgzvRyqftoTg5cHIr9HiwOTzmB1x0Ho3ng2dvvFcItAGvy39UGfGvILR/ilH03Qd/4F+OVKXsSRgdsxpH1tvCXzfru0sCEYt/4BYh8f5xysG/uqtzinnyXOjI9VmbsqZ2Y4l9cVVc7pb4kz73DOc3iTc0ucGQPjeptzlb4qYYkzN2Cm0PRh7jQVf3YS1cFFsF6WODMevzhzzpiWOCt8MWFuljgrDPoythHOczOTkRgRjKAHfrh75zZu3ryFO3fu2L7kwz8AYck5fCtMH7mpSHnkD39x7H37F4LcCwpHgl7Z80RNU8LxKDQe8cm5T54zNx3J0bEihzAEhQnOpahKj0VssMiDuWgWhuiUgnXNQkJUKO4x9xs3cO/efZF3LBINfB8M68a+6i3O6WeJM+NjVeauypkZzuV1RZVz+lvizDuc8xze5NwSZ8bAuN7mXKWvSljizA2YKTR9mDtNxZ+dRHVwEayXJc6Mxy/OnDOmJc4KX0yYmyXOCoO+jK3KubeRnZuB6Ah9zv9IsG7sq97inH6WODM+VmXuqpyZ4VxeV1Q5p78lzrzDOc/hTc4tcWYMjOttzlX6qoQlztyAmULTh7nTVPzZSVQHF8F6WeLMePzizDljWuKs8MWEuVnirDDoy9je4Jy1Mss521wU565glnPm7S3O6eeNhTohOS8qd0uc6UNeV1Q5p783OGdbXXHuDJ7g3BJnljgzAsb1NucqfVXCEmduwEyh6cPcaSr+7CSqg4tgvSxxZjx+ceacMS1xVvhiwtwscVYY9GVsb3DOWpnl3BJnljgzApm7KmdmOJfXFVXO6e8NztlWV5w7gyc4t8SZJc6MgHG9zblKX5WwxJkbMFNo+jB3moo/O4nq4CJYL0ucGY9fnDlnTEucFb6YMDdLnBUGfRnbG5yzVmY5t8SZJc6MQOauypkZzuV1RZVz+nuDc7bVFefO4AnOLXFmiTMjYFxvc67SVyUsceYGzBSaPsydpuLPTqI6uAjWyxJnxuMXZ84Z0xJnhS8mzM0SZ4VBX8b2BueslVnOLXFmiTMjkLmrcmaGc3ldUeWc/t7gnG11xbkzeIJzS5xZ4swIGNfbnKv0VYkSPIk7xiTT0tK0hPX2uzL6MVkVf9lB5MSid4wzY6E5mfOCwTbwd73jijLGpp9KbHYQ5k3jv/WOcWb0YWwVXxpz5sCOiYkx3O5/Fs55juLEuYytyjn9+EFEbGysMueqsb3NOS/g5LxgfILtWrp0KapUqYLhw4c/nnTlMWZiO3Ku4s/YnuCcFzOjnNPXm5ybqRvbyjaz7SrxizPn9Gdff9o4J4KDgzFw4EBtrG3dulXbJvezVoyt5+uOsa2c28i5Sv4y9+LGOdvNuOSc89yfyTnbKtutwps3OWfsfwbOuZ551jjnupXrV6N15/FPA+cqvtJK8CTuGoNJoowafaXp7XdmskiqsVkgXsBCQ0O1O2iSOHeNcVXypklfmkr+ZmLLDsYJLSoqynC7aap502S7VfJnTGl6+13Zs8w5fTmZR0dH/+mcO7Zdb78zo680vf2ujG3lBZycp6amarWQ+wh+8rhkyRJUrlwZw4YNe/ypljzGTGz6yXarnEP6q/g6cs6LmSrnetvdMce26+13ZartprGtbDPbzvM4cu6OMa5qbMd2q5xD+qv4sp3s4+zrTxvnREBAAAYMGKCNtc2bN2vbHLlRbTeNbeXc9qxxznZLzjnP/dmcM7Zsu95+V6babprjOOc5jHDO46Xp7Xdl9GPubL/eflcm/VXis91cv5BzrmeeNc45zrl+5TmKI+d6+9w1t++c0WRD9fa5Mvp5wl9vnyujAuejL3Jgq376wM6it9+Z0YcxaSr+MjZ/6u13ZmwnY6reOaN5gjNvcW7mzllx5px+nNBU7pzRPMGZtzh3vHPm2HaCNXV254x1U+XsaeFc5S6KzF0lNs3bnLPN8hN1o22njypn3uacdWNfV7mL4inO9fwJvTtnjjnSV7W/8DyOd1GMtt1Mf2M8+tKKI+eqsWmy3Wb8PcE52+EtzvX2uzKznDMuOVe5c1bcOee6Vd45K46cq8wR0v7Ud87oq/oMpiRGFSwyn11Vic+2s8iqYO40VTC2ynOvEvz0QeUZdYI1V+WMOdNfNXeznHNw8I6hSvxnlXPG5DhXbTv95GSsAs4R9Fdtu7vvnI0ePdq+NR/s597m3AzIOT9lVQFjq45z+nlznLPNHOcqMMs58/Ym52w3P91VgSc4Lwp8N2jIkCGoWrWq9c6ZA1gzrkVUxwr9nlbOXcHsWOHczjlOBZ7IXbVu5MzMOJeccz2jAsZW7W/e5pw3VSjQVGDmuiLHuWrtGJfjXLXPEMVGnEl/VbBjF7VocwXmbCY2c1ftJKy7mboRFKUqXxRAMLbq4GLOZi4GrJmZSY0XMNUL+LPKuRznqnWnH/1V2852019lQiTcFWejRo2yb82HnJBV4QnOVdtNkHOVl8YJtlt1nNPPm+OcbeY4V6mdWc6Zt7c4px/brSrIPcF5UblzDFKcWV8I8iTYV1RjE2yvGc6Z9x/FuSuYGSsEr2eqH8Iwd9X+xvYyd9W6ybWEWc5VBTljq87NZjlnbDOcc5yrcs64qpyz3Rynqm1n7GIjzthYLpx4e9bX1xf37t3D/fv33bZbt27h5s2bhv1ofn5+uHr1Kk6fPo3bt29r8fWOK8ru3LmDGzdu4O7du7r7nRnzZe40ldwZk7GZg95+ZybrfPbsWfj4+BhuN31Zc9ZMb78rY870V8md5gnOz5w5o8U32na2ubhyTn/ZbqMTuhznnJRUQD/6q07InF/MLF5cibMVK1bg66+/RteuXbU+4u/v/7h2ZjinjxnOyZUnOL98+bLWLr3jijLmy9iq45x+quNcjhUz45xtZttZA9VxrjpOnwbOr1y5Yphz+nqCc56n4L7AwECcOnUKnTp1Qrly5bBt2zb7CLTB7FqCKK7ijD78oJg1Mso7OafP08i5K+P4oC/Hit5+V8a2cw3DtQzPpTLOVecYtpd58xxmxrlK3STnXLtyPaPKucocQ/M25xcvXlTmnHGvXbumvf9qdD3zTIkz+p84cQK//fYbatSooS2QKlas6LaVL19eM719royxeJH48ssvUaFCBcOx6cPY/Km335XRz4yvamzZzrJly+Krr74y3G6a2Xab8acvTW+fK3vWOee7Hv369dMmdCOQ49zoZCYhFz5PozhjTsuWLcOnn36KV155RatVpUqVHtfOTN3pI01vvyszE5vtoB/7ujfHud4+d4y+qv5sK9tsdpzr7XNl9JWmt9+Vydgq/o6cc55TbfcfkTvnHub16quvasccPnzYPgJtMLuWIIqrOKM/F5y//vqr9shnwdo5s6eZc3eMvjS9fa6MbeU451pG/l7wGGcmc9fb58roK01vvyuTsVX8Lc5tc7v8veAxzow5V6tWTRtrXBMYwTMlzoi5c+fi5ZdfxhtvvIHq1aujVq1abtu3336rmd4+d6xmzZraZPjdd9/p7ndm9GFsM75m/VV8pbHdRustzUxss7nLuuntc8eeVc7Z7ueee06b1Ao+UuQKcpz/s4ozfiFImTJl8NZbbxWqm5m6S1+a3n5XZpZz+rGv84Mvvf3OzBOxzfibqRuNbfb2ONfb78rMxKbR72nknNv4OOObb76pCbVjx47ZR6ANnlhLFFdxRl/evf/rX/+qOwe5Mtb2WR3nXMOYHed6+1yZ2XZ7wp/t5nVdb78z83bu9KXp7XPHyDkFlt4+V0Y/roP++7//W7vzZwTPnDibPXu2pmanTp1q+H0Ys4s2PqMtv+nHKMwUmj7Mnabiz07C2KqLXdaLFzF+u5NRSM5VF+rMmf6quZvl/Fn9I9R8lLFjx47axGaJs3wwN+uPUBcGfRnbG5yzVmY5Z5uL4twVzHLOvL3FOf3YbvZ5o/AU50XlztcXrD9CXRj05RzEReOcOXPsW90Hx5g3OGdbXXHuDJ7gnGsYb3LOc6j4y7WESt0Iybn1R6iNgV8e07lzZ5QqVUp7xNEIPMW5Sl+V+FPFGScjPkZEkWbmPCpgsUn0swheyNhRnjVwgKiI0uIOTghdunTRPl3duXOnfat7kOOck5IK5GSucjEgOC/QX2VCJNwRZ/wUcuzYsfat/zzgOP+z59WnAWzzszjOCbZbdaz+keDXnvNvCVKcbd++3b7VBk+sJYr7nbMXXngBixYtsm81hqeV8z8aXMOQ92cR5Fz1mlqcwfczVT5wJChme/Togddff90SZ65AccbnRqdNm2bdOXMT7CSMrTowWS/rzpnx+MWZc94543PWljh7EszNunNWGPRlbG9wzlqZ5dy6c2bdOTMCmbsqZ2Y4p68UZ3zNwyg4xrzBOdvqinNn8ATnXMNYd86MQXKuOjd7m3Ozd874IbUlztyAJc6M+7OTqA4ugvWyxJnx+MWZc0ucWeLMCOjL2N7gnLUyy7klzixxZgQyd1XOzHBOX0ucqcESZ5Y4MwJLnBmAGXFmg/EiSVjizBJnRlCcObfEmSXOjIC+jO0Nzlkrs5xb4swSZ0Ygc1flzAzn9DUjzoi42BhkZRr/23xmOGdbXXHuDJ7g3BJnljgzAkucGYAzccbzp6amIyZOTLpRsXgUGav9lBYSFoGHoY/E9pgn9kfFxCM5JRW5LgpoiTNLnBlBcebcEmeWODMC+jK2NzhnrcxybokzS5wZgcxdlTMznNPXlThLT89EZHSctsYpuA4KDY/CrTv38SDw4eN1EI3roIwM5/U0wznb6opzZ/AE55Y4s8SZEVjizACcibOMzCycv3wLy9fvwewlWzB/xfYnbfk2zBPmuG3Osq1YtGonjpy6jLR0558kWeLMEmdGUJw5t8SZJc6MgL6M7Q3OWSuznFvizBJnRiBzV+XMDOf0dSXOrt/2x8zFmzFPrG8c1zs224a5y7Y8sRaavXQL5izdiju+QfYz6MMM52yrK86dwROcW+LMEmdG8MyIM0myagcnpDjT+yr91LR0HD11CYtW78D6bYdw+MQFHDx+HgeO2ewgTfzOn/z90Inz2LbnOJas2YWd+09pd8+cQVWcyQ6qOrhYN3ZO1k2FKEmy0bwlmD8nNHZyo5Ccq16I5MBWyZ3x6Gumg6uKM09wzty9xbmjOCu4MHKFp4Fz1boRzhbqzIl/hJp/e6mgOGNsttkTnKvUTXJutK9KMD7bzUWrUTwtnKvEJlTFmSPnKv3N25yzvWy3ijijryc4Lyp3Z+LMbN0IVXFmlnPWzUzujCvFGddDejh94QYmz12HvYfO4MjJi4/XQHIddEhbG13Qfuf+7ftOiOPXwuea87/lZIZzHu+Kc2fwBOeq4sxTnJsZK4ytOs7px7WrijiTnDMHb3DO2GY4NyPOoqKiTIszs5zzPKooweDuGBPl11rKYusdU5RJYvkV+vzL3ZMmTdJULRvN/Tk52UhITMLxM1ewTggzn6u3EScGYkxMrDguprCJ7bGCtNt3/bFl9zHsEZNYXHyCVoiCsWmMz4EdEhKiiTT+rnecnrGtbDPbbrTdNOmvUjcafWTd9fY7MzmweKFkvY20m+YYWyV32W6V3BmPfqp1Z1s5sENDQzWxwlroHadnZmNLf5qqvyrnBPt6hw4dtL9ztnXrVq0WRY2NguYYWyV32W6V3M3WzZFztsGRc14oOPYXL16MypUra1/zzZrIusjY3uJcxuZPvf3OTF4I2G5+hXlxHOeqsdlWtlmPc1cmYxdXzun7NHJOBAYGYsCAAdoHIVu2bNG2SW7M1o1tjYmJ0a5rPEdx4ZxzDRfYFGcvvvgiZs6c+URd+DMvLxcnz13FwpU7cM83UFsDxQh+dddBwvjBREBQiPYEEZ88ysvLEefRj898PcH5n103miPn9C8unNPMxGY7uX7hOOd1/c8c52bbbSY2jW3nupXClP7ucs7jONYo5Lt27YrXXnsNV65c0caa3vF6Zrbt9FPlXFoJOrtrjgGNGDsUIcXZxIkTNVVLcSb3S3G2ZssBXL5+V8RJ1SYyfipY0Lg9NTUFd+49wMYdR2ziLI7izPYYXUEjWY7ijL/rHadnLJJstyTKqKnWjbH5UzW2zJ0TGuttpN3SVHOn0Vea3n5XZiY22+oozmQt3TGzdafRVyV3s7EJR3HGhRHHF03veD0zy5kZf1k3FX9yzgv4w4cPC3FOccZ5g3PQp59+in79+mk14STO/XKsqMamydz19jkzs5zTn77s62y/6jhXbbf0Neuvt8+Vsa2O4syRc1fmyLnefndM1d+TnLP9KpyrxqbRT1rBfYSeOHPkhn6qdZfjnNc1nqO4cM65husPKc5mzJjxRF34U4ozvsZx87afEF8Jwkd/HUTLyEhDWPgjLF4txNmlm5o4c1aPP4pzd0y1bjRyzoW6FOTe4Fyl3Y6xVf3ZZ6Q4MzLOZY2KK+fMn+tWo5zzOF7b9cSZ3vFFmWq7GV+2W8VfWgkKJHdNOnGho7e/KJNwfKxRPn4j9/OxxhNnr2L1pv1CnN3TOiGNDS1otn2ZuHM/ABu2H8bew2cfP9ZYMLY8PxdmVOD0J/SO0zOCRLPI/Kl3jDNz/GSe/9Y7pigj5K1htlnvmCdNc3kCecLf8bFGfT8947H8VI/1JucFT67n86TJicS93Asb68a2G60bjeDFi4/9MD6hd5yeEWY5l2NFhXP6uM/5k0ZwMtd7rFHveD1j3qy90XFOM8u59FeJTXCc8yLOGhKO+3hu/kHctm3bYv78+do2Qu4n1yqc0XJyBW/aafjYjP4xtigStm35yEWGHuf2vRJ65yFyRPCo2ARkZrt4jMLx3HZjrV1zbveX4Db7P13iifMUNjk/qnIuH2skf4TecXpGsN6qcwx9mLdK7oTZcc72st3yFQG944oy5svYf8Q4J7iY1HusUR5jlnP5WGPBce7KCG9yTj+9xxrlfuLMxZuYu2wrbtzyRWpqmsZzZqb+Wig3JxuhYY+wSIgzn6t37GfQr4enOFe5JtJU60YjKE6MP9boOc5V6kawXoytUjeCuTs+1qh3nJ4RZjjn8d7mXD7WSH9C77iCJsF1gHys8ebNm9o2veP1zJucS3tqvhAkLS0Dx09f1sTZ6XNXtbtc/v4P4OfvDz8/f+3f2u/894MHCAoKwsXLN7F+6yHsPnhGiLM0+5n0wQWryjtnhCy07CBGQB/WTJJsFOwkkmR3kJcjlHpaKtLSxUXTtkWb0DixqYDfAJWZYRc3OeLfQvCki9/deZKWOcuBrQLWjP7seyrgZOa4aDOC4sR5QTi+c1bcvhBEm5js/1YB/Z3VnLXhp+7yQlcQWnyF/pabk4W01GQkJqci26bSdJCDbLHISk/Ptgs5ES9b1DozA+lZOWLM6j2jLvLhmOajSo/PK9qYJS64otbZ9qbm5uYgPDQYkY/ERVzMrVy85lsiktIyURQjrBf7m3PORR65HBNikSiDarllinjxiImO0urqGDcxReTsopSstdlxrvrOGcE2mxnnzJv5q+Qux7lK3gT92G5+CGUU7nFeNOQ4Lyp3ftptfSFIYdDX1ReCnPW5pYkzrm+45gl4EPB47VNwPRTy8CHu+fpj4crtuHglX5zpwQznbKsrzp3BE5w/Ic54hzAjVazrkpDoMOfYLFHMPWlIdeganuCc51Dxl2sJlboR9Oc4L+qa5QySc5Xr8dPAuRRnKnV3FGfWtzW6gDNxlkpxduYK1m87jPmLV6Fjhw747LPPirT69etj1tzF2LzrOPYc4p0zS5whLw73NnZF15qVUbfTCOx7KASO2BwXrSLOGO+hEMIxCA1h58xGwv3tWFfne8yafwQ30rWDnII5s8+oTAwEa0Z/lcFBWOKs+ImzpwFK/S3yPI6uGYGG43bh4IMiFstJF7B50hw0brcX5+JZn2wE7xiEuRP6Yvb5REQn81O2Av0lKxEh+zqiy6zRGH7Wft6MYFxe1BoTZs/FZj/bJmSF4tjsNmhTvSzKl/0cn3/uaF+geseRWHzbfmwBsI+yvznlPE8IL5/16NhkEcau8YWWSWYEwg6MQocGVVDuy89RpkyZJ+J+0WA0Rh6O0NyLAmttdpxb4swSZ0Ygc1flzAzn9HUlzs5duoVl6/Zh34Hj+Pnneiijs/6R1qhhA6zbYPtmx0vX79nPoA8znLOtrjh3Bk9wromz6DhxLrH4CNyDUb0a4+uKX+FLhznHZl/gyx/bou5Wf4Tbw3mCc55DxV+uJVTqRtDfEmfG626JMwNwLs7Scez0ZazdcgjTZi1E27btUKVK1Xz7xm723xs2bISpM+Zj446j1p0zDWJ/wkWsrPMNPi5RAv/vR++i7jI/BKXlIjkxGgmGxFkOUkNP4diojpi36Dh8wuzbwi7i9ISx2HvwJoLdKCNzZp9RmRgI1oz+KoODsMRZcRVn4Qg/NRU9O7ZAixbCWk/D7DUP4XyEqyANWf47MfWID/YH5p9dqb8FbcfKYbXwv+vNwuIrsfaNBRC7A2Mbtsf/eXkOtj7iPJqFm1MqokO9L9B+ewzCk3gBLNBf0qNwZ+5reK/N96ixOca2LfUW9nZ9AfXadsBYH9smpN7Ght9K4suPS6Nc8/7o39/RuuC3ujVRp1Z/9D4cguAC1LCPsr855TwvBJG7hqPUX7rhpyEXoLUw5T5uL6yDlz8qi3drt9PeMXKM27lNFdT8qTX6T7qN0CKu7ay12XFuiTNLnBmBzF2VMzOc09e1OLuNJWv2YPfeo2jevCUqVa7yxNrHcT3UpHETTJ85F9MXrMPlG/ftZ9CHGc7ZVlecO4MnONfEWYxYN+aJ/n51Jr55qyL+47V66OAw59isJ9o1qI6yX7bEtF1+CBYhc3NtaxEznLP9Kv5yLaFSN4L+ljgzXndLnBmAK3F2+IQPlq/bgw1b9uDAgUM4cuQ4DusYtx88eBg79xzGyo17sWPfSUuc5SUi/fZ8tKzSG42/qYQfmpfH3+ouws6AVMSkJCLJ4J2zFN8VmP5f/4neg7bgmn2bCvKy1UUGa8Y+pzI4CEucFUdxFgffg2sx4Ofa+ELk/9133+G7L4QwaTITk29GIbHIRwaNIhVJl+diTLuv8G/tZuL38/nzkVJ/e7gXG8Y3wiutFmHVjSL+bEXcPkxr2xOvfrgEuyM5j2YJ4fU9erWqjh57Y/FIT5xlxOD+0s9QrltT1N9pF31pd3F4wPto1b0Xpl21bULKHWzu/h4a9xyChQH2bQ5IPTYLwz97B8/XGIDl5yORYt+eD9HmHGfiLAzRBybi05ID0WzsZcGSQPJd3F7VGu+2nIwBB6O1w55A0FzMrP8W3nmvHQb6hCFK59LBWpsd55Y4s8SZEcjcVTkzwzl93RFns5ZsxuGjZ3H8+CkcOnxUdx1E476Nm3dg2vy1z8ZjjTEJ4mTCri/Adx/0R/XOF6C3ssm5thxLv34HX3VejbV+XBuKsZquHlusCJCjfE0zB15LLXFmfKxZ4swAXImzQ8cuaN86tOfgSVy/cRvXrt/E1WuFjduv37iFw8fOYumandi+98QzL85yE+7gzqxG+LzFeIzasgObR7bDWy82x8gDobgTm4qMpAJTWK5YDD64ivNnz+Is7fwl3I1K1x6DzIsLxLVlA9D9H/8XjX4ZhnnnH8AvKRM56fGI8/NFRFSSqKMQfaHhuOmbhJQCzcrLSUFyxC08EPvDE7Lsy80cpDy8gusX7PHOXce12wlw9qfDWTP2OZXBQVjirLiJMxH74VpMbNcR71RZhwMR9hz8VmJi37b4rPVmXBCixnhFHZCbitgHt3B173LMbPU5/vHyv+H/bTYN0xye01Xqb0+DOOvxPhp26YsZ1+3bnkA8gnYORZf3/gu/jNuBU/bpNyctBhF+Prj5IBSRKU440xVn9zRx9l6z0ei5/YF2WEHEnR6Hob98gL9334ZdgYWvHay12XFuiTNLnBmBzF2VMzOc09eVODt/+TZmLNyIA4dP4/JVrnfEfKWzDqLdvHkHp874YI4Qc+d8bF96UBTMcM62uuLcGTzBeUFxVuvD3vim/VEE2/c/gaQbuLKyFV5tOhkjDmuP/giIvHPjEHb9Ei7a1z3nhKC9EevYh9KRGpuA8HtxSIoKwL3bF3Dq7HVcCUxAOtudFYaAOz44p/mfw/lL1+CfkClm8oJIQLDvNe24U6dO4cRZH/jGyrUQkY3slDiE3w9HfGwsYsIe4Ib9nOcuXkZwXAqztR0prqWWODM+1ixxZgBOxVlqOg4cPae92Lpz71H4+FzFhQuXcd5u/Lfj7xd9rmC/EHGLV27D1t3HhTj7Y/4INWGm0PRhzWgq/uwkrgdXFuKvr8T0917Dd+2XYEdyKkLX9kPPF99Dwynnsc8/CblpDvXOTUfi6Sno2/gzlBQdl5339TfeQI1Ba3E4LgmRh2Zh5Mv/jZf+5X/iP//zH3ix/u/ocyUMcbfWYWX5zzFq8gEERN/DtuHD8EW5Rdj2IIkPVT5G6sMj2NH7C3SauBxb+E5MdgbSA49gc5/P8c0H9nivfY2vKi/FNr8UZBRRFtaMfU5lcBCWOCtu4iwdd5Y2RM+m1dBufRRiHtMeiotTR6DPez2xykdcyNS6g4BwTD6DTT1/QNlXq+Gzt5qjRYf/wvO/T8EEn38Scda5D6bLbQWQF3YIu4a8iLf6TMLkq7Z5POXBPmwdWAFdZ23GgWAn7XYmzn4ZhR5b5ctvBZB2EYcmdsOLr0/AlCPhhT6MYa3NjnNLnFnizAhk7qqcmeGcvu6Is+nz12P3/uM4d14IiYtXnlj7OK6HLl26imMnzmL24k04e/EGi2s/S2GY4ZxtdcW5M3iC88LirA++6XBcXB10EHsRp+c2QclfpmLMsXBtU3bmI4SfWYjBX3+Oj+3rnte+/BafzzqJq/E5djHkj+urV6H3Z+Mxa1In1Gv0IV4v3QiNF1xHeEIEog8PR6taYpvm/xreKP0pGkw9josR2faZOw952YlIvbgYbet9jVL2414v/Yk47qjDcbGIPr8aQ8p1wrhxczBzXC/8bD/2tVdfRMsJ23E+LpdXLO0bOS1xZnysWeLMAJyJs5TUNOw/fBbzl2/Flh0HcfrUOZw4ecZmJ87gpPhJOy7+zW2nTp3Frt1HsHD5FmzZdezZFmdi4XRv4+/48j8q45exx+ArNuX6bsbWnjXxVqe1mH48UMS21ydHTAonp6B95eoo91NfjNuyFVu3bsTm2b+hyScfoW3veTgRfA9npnXFr8/9DT/U7Ykx+67iUmwSYi7NxeS//ye69duE6xmJ8JnYDj/+a1n8tuIm/B6vbeMRfmw++r5ZEZ1G7cbF5DxE7J2BhTW/Qbt+kzB7wzZs2yZsxQSMaNIMX9VYhhVnY54QdxKsGfucyuAgLHFW3MRZGI78+hW6VayJWTfFut6+VWSFkG2jMOXbz9Ft/W3cMb4WtSFPzF3RO7Fr9UJMWHAChzeLvj/pFbw2dDxGXfjnF2dIuo2bq+rijdaj0GffI21TdnIogi/vxekbfniY6OQCrCrO8BC3V09EnX/8itHr7sK2TMoHa212nFvizBJnRiBzV+XMDOf0dS3O7mDqvHXYvuuwtvY5dfKstuaRax+5HuK/T58+hwMHj2Pmwg04c+G69qdzioIZztlWV5w7gyc4L/xYY19U+/U0Cn/lUApCdw1H90/eQNleW7AjVMTM8cOJpeNQq1J7dBuxDGu4BhG2ekZPtGj+NarM3Y8D2omCcW1ud1T9l/fwUsthGCzWK1t3nsTJWzdw/8BiNK3SC7/0nWP3X45lo9ujTunfMGrBJQTRPSMQvluHonHFn1GzwyTM2roV27auwOIRTfHTh1+h2e+bcEx7AjwBcacmoe1/vYy/v98SbWbtwGFx7NYtS7G019co83E3tJ16E1HiyNy8HERY4sy+xX1Y4swAnIqzlDTs3HcSk2avERPTWixYvhnzl+Ubf3fcxn/PWLAeE2asxLotB5GU/AyLs+gD2Dm1Ev53nTGYcCwK2jIzOwC3tvZEhY9roevE3Qi0f69sduwlnBz1Cb6s8St6bnjkcDs+DJeXTcWmNYfhL35LC9qIRW++jEEjdsL2sEQOYq8uwrRSL6Hf0C3g9xCkX56PpQ0/R+neQlAH2he3qTdxcUVvlPlqBCbuCEZa7n3snNYLlSr3xbICj8RnXZmDrhUro+30PTiv88oKa8Y+pzI4CEuceV+csS3Hjh3DsGHDtJxat26ta7926ojjJxdhe73GGPJVb2wJ4X20fMSdH4tF/Uqi2VIfXNbpK24hT+SUFoCIxAxol7lMH5yaXBKl+o7ByIvPgji7h7trf0XppmPQa0egfaOEaLPhd87cEWehuLdhAjq+3AJjV9xEoaii1mbHuSXOLHFmBDJ3Vc7McE5fV+Ls7KVbGDFpCabPX4cFXOvY1zxy3cMPpBcIs/2+BbMWrseYactx6vxVUY+i+5IZztlWV5w7gyc4zxdnYva+uQg/l6uMf7xRDXWaNUOzJ+wH1KryJao3GoWVZ8MQJbpIyr05WNDva5TrshvnHC8sYn7yX9EClSv1wsj1AYgX/7u9uCV+/PtfUOb3I7goL8HpPjg7vgn+7X8NQ/9dDvXLCsCpOVtx+EQAeFlKDdiGTT3fxge1h2HaSQcx9egktrf7GO/W648ex/iKSRriz01Cl1L/hneqDMLsOw7nfLAI7d5shNr11+OKiJ8t5uaoCEucGYUlzgzAmThLT8/EhUs3sWXXUazbeuhJ23YIa4UAW7P5QKHtG7cfxsmzV5CW7uztpX9ucZZ0agrmNnkJtVZdtQspO3zXYmq5v6JKhzFY42/zT/bdhCW1X0CHsWtwwL7WK4wsxFxZjKmlXkTP/mvs76dkaeJsuibONuMcT5d+HRdXdcdHlUZjyt4Q7ZGlbP/12DC8PN7ttxnrfMUsGLsXs4e1xX/U6IH+E6dhzswZmDFD2Mw5mDrqN7T9sgTKdZ+JlbzdVwCsGfucyuAgLHHmfXHGGowcORJ///vf8de//hUffvghPvroI3zwwQePrXTpD/Bl+TLYvGMctjUYgLHV5+CgWP07zjSp16dj47i30G7NZVyxf2mhWeQ9OoVDE19FqX5jC4gz+z+MIHg31o+t71ycxQtx1qoHXnl3EXZGsHVZuD27Nnq0cC3OvujSGHW22xtuSpx1xNuNhZjani+T+Gk7+5tTzs2Is3Xj0eEfzTB62Q1LnDlAjnOVvAn6WeLMOG8yd1XOzHBOX1fizPfBQ+0D53VbhYk1jlzv8M8McR20YsMe7e/B8ndu5zaug27c9tXOXxTMcM62uuLcGTzBeb44S9HEWb3y5fB/X/4ClfmlUU9YbdTvMgyLbmY/fiIn/HBvjG37D3zTZSzGTJmFmVyDCJs5exIm9GqCr0pUQdthJxGCBFxf0A3NXy6HMevvid/tSLqLa6u6oNq/V0W1egMxftY8LN5yBNeeGHrZCD0yAVOqvYTOS8/jqv1+Qa7oJnkZsUi/MglNfx6E1uNvCGmWiqgz09HttY/QbehWXHtcUsFf5F5MLP8L2tdfiJPispQlameJM+NjzRJnBuBMnLERSUnJYgDa/ohgQYuKihEkRRfaHx+fKPxSXBbhn1ac5UTgyuzWaPeXv6PNsHXYeIqPOpwWdgbHtk7F77X+gr9U64h++2y3G+KuLsTUl1/EgN+34nyR87hrcXZWW8vGIuzIXPR4+0cMmHlKW3hF75uMiT9+js7rb+CG8Mu5Ox+T272Jf/lHSbzx7vt4/30HE4vyDz7+FI2m7sNJnT+HxJqxz6kMDsISZ94XZ/z3uHHjULZsWfTp0weXL1/G1atX4ePj89guXvTB1RuXEZN4Crsbd8TvFUZg1yPtMvUYiZcmYeXvr6Hliku4/IeLsxzkJgbD9+YF+1gSdvYcrgfFIr6o6S/0ADZNaYEX2y3BqptFibNDmN65P0p+tRz7o1jfbNxbWBv921dF731xRYizOPitKoNqfZqj2R6xMCFUxVniLdxeUw9l2o/HkAP5Dxj+seLsIW5tnISf3+mMCRvvWY81OkCOc5W8CfpZ4sw4bzJ3Vc7McE5fV+IsIyNTW9c4rnNoiQlJiImJg79/gKhvuOj3yU/sj4tLQFpa/jxWEGY4Z1tdce4MnuC88DtnvVCl/RHb44ROkYn763qgy/v/in+88g7ecVyDvF8apT/4GB9+0AGjNtxHPB7h6vzhaPlqR8zYHWR/ZDJP5J+OpJDD2FynOmqXFn5vPI9XS3+EqsO2Ydfpy7gfFi8EVzoCNg7CyH+Uwoil13DP3jVzxM+8nHjkBW/F4DK/o0u7k2IeTELEmQXo/lozDBh7HHdthwqkIy98J8Z+9QvaNlyC0+IiaIkzS5w5hScK7UycuUJWFhe7RX8q5Ar/tOIsaCsWd/kI//Y//zeee7EUSr1he9H19dffwOuvvYKX/v6/8D//9Xu0GeejLajiri/GjNdeRL9hW+wCSw8UZ4sw5dUX0UuIs9Patb+AONM+FcpDasBerGv9FpqOWIG9QfdxfupYtPlkMrbfT0KK6NOJR7uge9NX8XKLJdh+1R9BgYEItFtQcChCI6IRmyLqo1Ma1ox9TmVwEJY4e3rEWfXq1bFgwQJtW9Hww4EWVdDri/pYIq5Wjg8qhx8cgWnN30HrFVdx3dhfhSgSRYkz5GYg7eJ09G/6uX0sCXv3A9Sbcghn+BKAHuJ9cHDZEJRquQKrrxdxSzpiJyaPHYg3uu7BlQRbn47Y3hhjhtZAl33xiExmXynQXzJjcHf+x+g8vCvGXbTvS72jJM6yw47j2Lh30GLKCmzyzb/Yso+yvznlXFWcJV/G8VVD8Xbr5Vh1NfrxN5BJsL+ZHeeWOLPEmRHI3FU5M8M5fV2JM2dgfLZbb6HOfJzlZIZzntcV585Af7OcFxJnH/RB1Y4UOq4QiQvDG6DVi++j/vRTOOubvwYJDAxCUEg4IqLikZyRI2bfB/CZOxzNX/kV04U4s72Zm4NM0facHHE9T4hCdGgQAs8uw6zOX+Bvz72KkiVfQaV+q7EnPgOh24dizMulMMxRnPE/mdHIvT4fdT7ug+86nUG0EGdRmjhrXliche3AGEucabDEmRvwRKHNibMsU7H/OcVZHiJ3dka7+m/iP36bi0WbdmHnju3Yvt1mO3Zuw85lA9HolTdR4fvR2BIh6hCwE+savYg2o5Zih23m0YEQZ5cXYfLLFGfrcEabE/TEmcgg6Q5uL6mLsr9NR+dxnTBs2Lf4tN9Z3LV/yJ91aSwG1q2El6pswanCf1zJKVgz9jmVwUFY4uzpEWc1a9bEkiVLtG1FIwE+Y6uie73KGHIyDdqNJA1JuLtgHMZ90BTTj4QhVK0sheDszllOzF1cOb3v8Vjavms3Tt55hKiiPh/K8cWlVVNR54OZWH3C8V3OfGSe64nuA6virRmXEWz/tpPsc8MxZHxblFsVgNCkwl65KZexs3Yp9Go7BBvlN0Kn3HYizvpihu4fJkxA6KH5GPTptxi69BzuOkyluRrnZsTZaPTcxjdVCyP+wjTM7/4VvptzAeejC1/g2d/MjnNLnFnizAhk7qqcmeGcvn+UOHMFM5yzra44dwZPcK5756zd4UKPShdGOu7Ma4ZfKr6Hz5f5QU6j+vAT4myYEGcdMG1XYL44y3D8GnwiE8kPL+HwztVYPag63m04GJ0PhiL84kzM/ulVdFhwEhfsS1ytl6Q+QuKhfihftw++n3FXXB8SEX16Abq99gv6jzmG/NfxLXHmCEucuQkmqrpgJDgZVapUCdOnTzfc0RhXZVKRSEtLU76As8BmOhhzV60bOwZj65McjqN9mqNRhaboe4WvjerhNlb+8ire+OQ7tDmQjKyUW7gxqxI+r9Afvdc9eQsi8uAYrFq9HPvC85DouxlLaz6P9iPW4LidqsTrSzBDiLP+fCRSrmXz0pAesAq9azXCJ6X+gk8bl0Xr44lIkOkm+WBvn6b46l9qoNaau09OpA+PYn2/7lix/QoCdcpjlnOKFNUL+NPLuWtwUujUqZMmznbv3m3f6j5Yc5VxQtCP/jJ3/nv8+PGaOFu0aJG2rWjkIU6I+UHNGuDTVmdwR3bojGNY8/tvqFxlHo4EpRX6OnZVFHnnTAkpCD+xBCM+KYvq3VZj++OXFezIvYUlv9XAJ981wcBLiUiTbYs7jIWD6uOdyh0x5XRMgbZFI2RvA9T69Bt0Gn0EIZKStLs4OvB9tO7RG9Pl3zRLu4ctQpw16TUUi3We88m+uBiTKpVHyUozsMqniL8vyC9MKRKPEHtokhBng9B83FUh9QRS7+PumjZ4r9UUDDysc7fw0RosavkByn/UHLOuxiGxiO5sdpzzWsJxrnIRZX81M86Zt9lxrpI3QT+2mx88qoCxzY7zonLntXbIkCGoWrUqdu3aZd+aDzN1IyhIuWhTgcxdBWyvmdzpu3LlSk2czZs3z77VfXBefVo5dwWznPNDmMhYKp4k4OZC1Hb2d84KIPXucoxuVxr/o2IzzL3guPZMQtyFZRjcfQPWnuLz8qG4On8EWrzSEdP3BONxD0u8j3u756B/733YddOxfumIXlwVtTv0R5/jCUiLPoi9gz/Bu5X6YPT+mPw12cP9WNnwPXzcYAh+P0/uEhB3ZiG6ao81nsA921ECYi56tAtjv2qGdo2W4qzopowWHRmhrWdUYGYt4W3O+SFMVFRRj6s4R2xsLLp27aqJszt3nP+B9oKQ41x1rJhdPxIlOMm5a2wslazePmfGiYTiaOrUqShfvry2WOMna9ymd7yeMS7j6+1zZbx4k+CgoCDt0xf+rndcUcYOEhMTo00OevudGX2YO03FX8bmT7ktOSUdyYlxCL84FB0rVkWl6vNxMkLUMi0FyQ6+/PMCKUkhuDSvLj58+yO80mITLkY8QvjZhehRvTmq/dgLQ6dN0+5kTps8GP1bf42Ov0/EuvsZiA88gX0D30b5775D/cFbsf2qH+6fmIKRf/03dOi6BPsjspGaIrhNy0Rq8nUcbPoqXi1RAv/+YRes8U1HXDpzEe1NjUHY8bmYWvMLvPl5M7QdOsUWb9oIDOtQDXXLVMXgecdxPTY/b2lmOefF+5+Fc3eNY4rtbteunbYw2rBhg9Z2jkG94/WMNWfN9Pa5MvrRn7nzYsJ2DB8+XPsEfebMmVoeerkwx6wsMYln++LQnGn4/qt2aDVioq2v9GiLBi36o9nmOwhJ50UmHkH7N+L4mp24Ka6ntqmf2zbYtgmdoF2KEu9g/4bjWLPzAfReU8sLO4q9I/6C/+wyFAPP2m5lcVI2Mi/lWwqiA89gz5S6qPnTN/ix2+/2fk4T7ejbFpUr/oqfB+7H9bg00V67X1oQrq8bin5VvsD3tXtg8FjpMw1TR3RH22Yf4+uB87D0SiwyUwSPaamIDz+HLb8+j59atMGwE2JuTRfni/TBqg6voNxXX+LbHvnnsNlIDGlcA7XKNEaDVT64FsN5IRmpGWmICbmOy3sWYMvRi7gekoSM1OT83KSlCEGceA8BGwej5F86oXa/YwjKzUZaxBVcmPUDXvysGso0G1Ag5jSM6F4JNSrXRONux3A5RuRe8Lx2MzvOuVjlOGefMzrOZX9VHef0Zf56+12ZmXHOdtKP7Wb7jbZb5u6JcV5wH8ePr68v+vbtqz0ps379eu1TaMcczdSN56H4Cw4O1tqhyrnePlfG9qrmznmPfC9cuBDPP/+8Nka4AHQ3fx7H3Mk553ij7WatGP+P4Nwd8wjnYVFITQpF8qkJKPtSG3xUbyuup6eKtY6Yt3T8pKUkPMD5FX1Rp9zrKNOoNwZMss9TY/qh+3d18FnFiZi47yGyUm7j+Lge+OF/N8Sw1Tfgm5ou1jfC/9F1nFvUHVXfqIAqjftgjH2OmzS6B5o0+RpdZq7FydA0pCT649720WhT9Sd83aA3+mvHjcKwX2uiygeV0XrENpx+lIH01ED47xqPZv9ZCx37bsf5lAzRP1LFmioKifdWou/btfBz9anYE52GOJF/aLA5zlU58zbnfNrt4cOHuvuLMvpxrHGc8AmiUqVK4cKFC5pY0jtez+Q4Vx0r9GfdWX+9/e5YCXZ4dy00NFQzvX3OjJ2KBE2YIAZU2bIYMWIE/Pz8tG16x+uZamwaL16cyHnB4Dn4u95xRRmFZEhIiO4+V8bOJXPnv/WOcWb0YWzmILdFRscjMiwI19Y2RYtOjdF01hn4RkQiOjpS+3sY8riIyGhERoQj/MJK9GnaDtWbTMfWu6LmsTGIPjEdQ1pVzH8x9oOPUWf4Wuy4KQZSglgwhdzFzY190bT6B3j/y3botOYYfM4sx8La1TFm/CYcCUpHbNQjRMWIXB4F48amZmJCqo26HXbjjMjlUVwUIkTOoaERiE0NReCldZhbpRwqO7yM+8U3tTBm+03cDhcXHXEumbc0T3DOfsbaFXfO3TWOKT5Lz6+nr1KlivYIDccfP5zQO17PzNRd+jJ3Tm7kYNCgQdod80mTJunmwvaSn1SxqNOQeB0XFrVChc9lX2mD9kMuONx1DcaZgc0xoUFXbPKF/S5QME4PaGbb9sAu2EJ3YEDz8ajf1fa3/woiL/oKzi37FrWmLcaCW7az8BMvOS8Z4Y7HhkfG41GYP66saYz23+f3c5s1QLfJB3AhMhkxURFiXErfaCSkh8L/5DJM/qoMyr/3Xr7PJ5VRpstybL/+EAnJsWKcidrFxSA04AL2jvkRfYaNwNzTUYhLiEPEw8vYNqoO6n/1Hko/EddmZRt2xZgDQXgYIS7U0RwLkYhJjIP/xfVY2acyOk9eiS1Xo5EYI+aQx7nZLSoOieG3cG/3LNSrMRY9p5+Eb3YG4oKFsFvVHT9X+1TEfA/vOeZOq9kd3Vb4IEjkHFNgbnI0M/2N/YYXYY5z2Y/0jivK2E9VYzOemdzpz3FupJ9JYzvpx3ZLgaZ3nDNj3ipzDE22Wy93jh9+6U/37t21D2OXL1+uLZgcczRTN56Hc5wq52ZiM56qPx+z4kKTr3c899xz2ofUFLLu5s/jyBfbzXnVaLtpqtcVmmy3Sn+lqdaNJjn3DwhGTPgDRJxZgnZ1RqB5/324mhCDyKhIMT/q+9LCIsW6JvQ27uwYi9rffOkwT1VGucpzsPZCAELTkpAqrgknFk1Cr+oDMXf7NdyJSUD0ozCERyUgPOA6ziyqhSbVHea4T8vh/aHrsfF6ODLjoxERHSfWMiGIOrsEXZpU147hvFj68wpoMesITvsnICVeHBNzH3cOLsbQmj0xeup+XIxMQnRUDGKjgxF+axumNe6Jfl2X41BwHEJF/g+eUc4DAgLg7++vu78oox/XGHfv3tU+pC5ZsiSOHz+uCTa94/XMzDinsd6qc7u0Erzl6K7xk3BOJnr7nBlvDdJmzZqFihUrYsqUKdoEzm16x+sZ4zK+3j5XxjhUsCw0H/kyEpfGT/1IrLxFa8Tow9xpKv5U+4zNHOS2nJxc5IifGUlCkMVFIybVdvtVM/sxtuNs7YwMD0FIYJCYwMTEkCl8tVVosliIhSJYXNh5cQ8KfohHCRnI4C2HvFztr9JnpYkJ6eEDBASGIjIpTeSQgpToKFHLVKRn54nz23NhnIxYxEWLRVgcv9zDlgtzTk0V7ebfXsnLRHqEmOSC7fGCghESHgm+ZsMb5nniXDJvaWY556cXHCTMQ9bCXXvaOHfX2E5+6tKxY0ftSzj4hza5zUj7WXP5nLpRox/9Zc357zFjxmi5zJ8/v8hcuC3/0Qnx7/RohD2UfVP08QTHxwtEnJgIxIVHIdnef7gtLVosDB23ZaeIC2ucuLAKHrRjCiA3C5kp0YhOFv06K/+xDSO1kqZxniHOl5WNvLQoxD4Ktvdz2YZIxKfY3lvI02ogfW2Pm+RmpSImwB/BAQ/yfR4K4RCbIcaPdoQY27J2GUhLjEZ8QqL2EnuOEJRZmekIfnAXgb73ECrr9tjEWBMCy/YOn2inGI/ZPJf4mZWehITIhwgRIjE+JUPscszNbmKM52ZnifmAwjIR8UkiJ8FVbrYY6ylCkIYGIcDfDw8eOOQuLDg8HnHptrrmcU5wPKeDmR3nvJZwnHPcGOWO/dXMOGfezF9vvyuT45w/9fY7M7aTfmw3P9012m7mzthmx7le7vyAgyJk4MCB2gdEnIO4zTFHM3WTnHPhw3aocK7a39he1dyZJ32XLVumPdY4e/Zsbc5zN38ex3n1aeTcHTPLOT/sCw9/hOwsMc7FWiQuOhGxCWmP1xtFzS+09Ay+A54BZCVr66H8dY+YYx+JMahde/LE3CzWKclJQmAlIDktE1li7tM4T7O9O5WTHiGuKcH5/g9DEZIgfDi38l3lHHEObcJLQ1xUuHYc50XfB4GIFBcm2xScI+ZZMZ+mpyAhOh6JSenIsK+jtLk3Kw1JMfFIiBdcieuD5JzrGVXOVdYSNG9zzrtPFCp6+4syWx1t72Z27txZe6zx+vXr2hykd7yeyXGuOlZYb9XrijRD75wxYQZTBd8542MOKu+cMS7jq4KFJskkzShIKoutCuauWjdO3ozNHFQRERWLDDGh/dngolGb0MTEowKznHNwcICq1K44c84JRb5zpve+hyvYODM+Tgj60V/mzhrwE2Lm4vqds+INjXMxqXoDXBDExCdDrA0UIfjK9U7uZsc5P4zgOM8X9+6DF0Ez45x5mx3nKnkT9GO7jV5LJRib7VeBHOdF5c5rLd854+PMel9KZKZuBD9s5V14FcjcVcD2msmdfp545+xp5NwVzHJOcRIZKca5/XcjoHDjB2cqyM21cc4PqbwBfmBGzrmeUYGZtYS3OeeHELwLpgIKO/nO2e3bt+1b3YMc52y/CsyuH4li822NjMv4qp2EHVt+0mYUnMy44FXp4PRh7jQVf3YOqd5VwHpxYLOTG4XkXHVwyYWPau5mOecFTH7qYhTFmXN+EPG0fVsjc+G7FsUBKv3NkXMVf8m5mYsBx7nReZWgL2N7inMjYK3MjnO2WfWDN+ZuZpwzb29xTj+2m+LUKDzFeVG585N+69saC4O+Zr6tkWPMG5yzra44dwZPcM41jDc55zlU/OVaQqVuhORcRZBLzlXnZm9zzjvk/BBGpe7WV+kbgCXOjPuzk6gOLoL1ssSZ8fjFmXNLnJmDSn9z5FzFX3KuchEkGN8SZ8Zrx9zNjHPm7S3O6WeJM+O8ydxVOTPDOX0tcaYGS5xZ4swILHFmAJY4M+7PTqI6uAjWyxJnxuMXZ86LszhjfFW+Cda7qAmV2/jeAl+oZ78oCO6nv0p8R85V/CXnKhdBgvEtcWa8dszdzDhn3t7inH7eWKgTkvOicrfEmT7oa4kzNVjizBJnRmCJMwOwxJlxf3YS1cFFsF6WODMevzhzXpzFGf1ZNzOcczLXu5jw3PzTAvXq1dO+lKggZO5mOVfJXXKul7c7YHxLnBmvHXM3M86Zt7c4p58lzozzJnNX5cwM5/S1xJkaLHFmiTMjsMSZAVjizLg/O4nq4CJYL0ucGY9fnDkvzuLMLOecVzjO9S4mzI05fPnll9rCsSC43xOcq+QuOdfL2x0wviXOjNfOLOfM21uc088SZ8Z5k7mrcmaGc/pa4kwNljizxJkRWOLMACxxZtyfnUR1cBGslyXOjMcvzpw/y+KMi5aiFurMjX9ziQvGkSNH2rfmg/s9wblK7pJzvbzdAeNb4sx47cxyzry9xTn9vLFQJyTnReVuiTN90NcSZ2qwxJklzozAEmcGYIkz4/7sJKqDi2C9LHFmPH5x5twSZ5Y4MwL6MranODcC1sos55Y4s8SZEcjcVTkzwzl9LXGmBkucWeLMCCxxZgCWODPuz06iOrgI1ssSZ8bjF2fOLXFmiTMjoC9je4pzI2CtzHJuiTNLnBmBzF2VMzOc09cSZ2qwxJklzozAEmcGIMXZzJkztQWkEbCRqp2bYO78Y3YqhSZUOrcEczdDkpnYBP8Yn8rAJlhz1ZoRZjgzyzkHBweoKoor5xyjv/32myXOCoC5WeKsMOjL2J7i3AhYK7OcW+LMEmdGIHNX5cwM5/SV4mzBggX2rcbAa1paWpr9N2PgGFUdZ/RT7asEfVX4kuAahmsZFXgid9W6EWau5wQ553hVgZnY3uaccxu/YVkFFPPdunWzxJk7mD17NipVqoRZs2Zp5/ozwWKpkkyYGZhmYTY2O6nqZF6cwYHFT15UUVw558TSuXNn1KxZ0xJnDmBuljgrDPp6YqGusghgrcxybokzS5wZgcxdlTMznNNXirNFixbZtxoDr2mqtVMdY08DuIZReQLoaYDZupNz1bFanDnnTRyOdRVwXuzRo8c/vzgzeyEiuDDiN6V9//33GDVqFKZOnap9pbUrmzx5MiZMmIDx48dr/9Y7xpWNHTsWw4YNw8SJE3X3OzP6MPakSZN09zsz+jB3mqo/Y6vkTWO9hg8fjtGjR+vud2b0ZWzmrlJ3WTeV3C3O1erGMcV2lytXDhUrVsTmzZvto889yHGuOinJhY+KOGM8zi/0UZ3UVMUZY3O/6mKZ+TJ31flRTuYqAodgfE+IM09wbgSOnKvEJlTFmSPnKv2NPszbW5yzvarijL5/JOfOxJnZuhGq4kxyzvgqnLNuZnJnzdeuXYvXXnsNderUcXsNJI3XBF7TOMfr7Xdm8rrC65LefmfmeD1WuaaZXUvQuIbhWsaov2PuKrEd66bib2YtQfME5yprCce6eYtz6oQRI0YY9ufx7CvUG6VLl4avr699BLoHOc5V50c5txu9JjmiBIO7Y5yM+MmFnNCNmExw2bJlePfdd/Hqq6/iq6++QpUqVbTHHF0ZF5mOpneMM+PdugoVKmgxVfxpqrGln1l/vX3uGhfq5cuX193nzBzzVs3BjJ+Z2OScbX7WOOeYIt/PPfec1vaNGzdq448LEb2xWdDkOJcTk1GjH+cI/iT4KMqYMWNQvXp1zJ8/32Uu9KUxD739zozn5ierXBjyHJwg5T5OsPwUbsmSJahcubI2cTMPx1xk7iqx6SNz19vvyhzrprffmbGd9GO7+Qkr66B3XFHmSc719rsyM3VjW9lmtp3xHTl3x2TuzxrnZmLTnPkTwcHBGDhwoDYfbd26VdsmuTFbN7aVT8HwHXLGV+Gc/f3P5pxzDefD9evX44033sDLL7+szYt683hRxusC53Ve23iN0zumKJPXFdVriyd8zZyDbea1TW+fMzMb24yvNLO+5JxrWFXO9fa5Y2b8pa+Zc6hyzjqxZn/729/w/vvv4969e9ocpDcu9UyOc7Pzo8ocI62EnGjcMU5oUqAZMQYi+Djje++9h59//llTtlys8VFHd4y+NL19rozvuvFLSKji+b4bf9c7Ts/ksaqxaaq5m40t/eUnF0baLU01d2lmfc20nZ9Ksu3PEud8j4GfHHFCowjZtm2bNv64gNEbm3qmOs6lSV8KIn7CzU+/qlWrpr0Az1y4uCro42iqsTkRctEWGhqqfQGQnCBpXBjxDgMfJeLEzU8iWROZizzWbLtV/M3Gpj+FJ9vNdzIcF5Dummru0sz40lT92Va2mW1nDRw5d2UW538M50RAQAAGDBigzUHy7n1BblRjs618B4fCtDhxzrmG4mz16tV46aWXULduXe3DInevTTyO1wVe03htM3JNk6Z6XZJm1lfVn23ldY1t5zmMtF0e643czcamP9cvXLtyDavabrNt19vujpmJzfy5buVdP/l7wWP0jMdxrcG7fVwHlSpVCteuXdPmIL1xWZSpjnNPzDG0EvLTY3eMQWmcZPT2F2XytiALR/XPAcbHMZg8J1d3jIs8fkLIyU1vvzNjHH4ZCC8YPI+RuDQu6hibP/X2OzPmy5j8RF8ldy4yGZuP7ujtd2X0DwoK0i5kRttNY940nkdvvzNjzvRVzd0s5/yWn8DAQC3+n825rJtK7vRR5Zzt5MKlXbt22qOEfKSI44+mNzb1jGOcCyCj45xG8UV/+YEM8+HjGMyFwlHOBXq+NLnIpHDS2+/MpBjk3ML4jm0mmNfSpUu1T/P5WKNjLvw3fVRj08fM/CjFM3PQO8aZSX+2m33Osd3uGPP1FOd6+10Z46rUjca2FsW5K+OxxZlz+rHdbL+RdtOYL2P/EZwTISEhjx9r3L59u7bNMUeznLOf87FG1tBI22XdvME5wbjynTMutvm7u9cmHsdrAq9pvLYZvabJtQT7i5nruco1kSaviSqx2VbeKeVahv5G2i7rprqWkNdz1bqZWUvI3Ll25Rr2z+Scx3ubc65beRfeqD99OQd17NhRe4T4xo0b2vjTG5d6Jse5yvxodo6R9qd/WyM/taaS5rn+TLBI1heCPFvgAOHEpIriyjknE34hCAWR9YUg+WBu1heCFAZ9GdtTnBsBa2WWc7a5KM5dwSznzNtbnNOP7WafNwpPcV5U7lxUWV8IUhj0tb4QRA1cw3AtUxxhtu5cu6qO1eLMOYUWx7oKOC8+E18IwgTNTqgUZ3we1Po7Z+6DnYSxVRY+BOvFi5jKpCY5V50UmDP9VXM3yzk/8eLiRSV+ceacE5r1d84sceYu6MvYnuLcCFgrs5xb4swSZ0Ygc1flzAzn9LX+zpkauIbxJuc8h4q/XEuo1I2QnHM9YxSSc9W52duc84MI6++cuYAnCm2JM+P+7CSqg4tgvSxxZjx+cebcEmeWODMC+jK2pzg3AtbKLOeWOLPEmRHI3FU5M8M5fS1xpgZLnFnizAgscWYAljgz7s9Oojq4CNbLEmfG4xdnzi1xZokzI6AvY3uKcyNgrcxybokzS5wZgcxdlTMznNPXEmdqsMSZJc6MwBJnBmCJM+P+7CSqg4tgvSxxZjx+cebcEmeWODMC+jK2pzg3AtbKLOeWOLPEmRHI3FU5M8M5fS1xpgZLnFnizAgscWYAljgz7s9Oojq4CNbLEmfG4xdnzi1xZokzI6AvY3uKcyNgrcxybokzS5wZgcxdlTMznNPXEmdqsMSZJc6MwBJnBmCJM+P+7CSqg4tgvSxxZjx+cebcEmeWODMC+jK2pzg3AtbKLOeWOLPEmRHI3FU5M8M5fS1xpgZLnFnizAgscWYAljgz7s9Oojq4CNbLEmfG4xdnzi1xZokzI6AvY3uKcyNgrcxybokzS5wZgcxdlTMznNPXEmdqsMSZJc6MwBJnBmCJM+P+7CSqg4tgvSxxZjx+cebcEmeWODMC+jK2pzg3AtbKLOeWOLPEmRHI3FU5M8M5fRcvXoy//OUvmDFjhn2r++AY8wbnbKsrzp3BE5xb4swSZ0ZgiTMDeBbFmVmwk6gOLgn+AUMu2I1Ccq5SM4I50181d7OcW+LMEmeOYG5/mDgT6Wbn5CIvl+1WyD3PrDjLQ2R0DFLT0u1b3Afby9ie4twIyLNZzi1x9s8nztiXnNW0OIuztWvX4u2339ZEmlGwLuY4F9cklflJQy6yszKV+2tebg5ystX6GxEfn4DIqGj7b8bgCc55DhV/cmZmnEvOLXFmDJY4MwBLnBkHO4nq4JLgJ0786/pGITlXqRnBnOmvmrtZzi1xZokzRzC3P1KcCW0moHYB5sInQ8RWuQgSFGdRMfHIEPUzCraX7fYU50ZAns1ybomzp1OcDRo0CFWqVDEkzni+4OBg3LhxQ7tmFwVviTO6qPZTgvlGRUXBx8dH484oOMZMcZ4hFpv231WQm5Ol3F9F5ewfXqkhToizqJgY+2/GQFGoyjnbS1/2GxV/uZZQrZvk3BJnxmCJMwP4M8VZVvw9XN0wFMt2H8clMZ6zM9IQITo4iy2RG3EO53YPxuA9l3A5iluyEXl+C/YMHoF9lyIRZQ9lK7SMnYuI88uwY+VkbLiRhCSt9o7bkpGsbYtH8O4VmNuhHZo3boCG9eujQcOGaNSoIRo2bIy23Qdh54M84ekc7CS6gysvC7E+UzFz4wLMupJg3ygyCTqITTN7oUOrX9C4USMRqyF++ukn1K1TB43a/Y5+W4KRf7RzSM4da2YEzJn+KhMDYZTzgrDEmSXOHMHc/ihxlhd3Cz77FmHQ8pO4EFbEXeq02zi6eguGjj2LW8nMLwcRJ+dhy6pZ2HQrBXEpvBAUiJ2dgshz4zFl0zIsvmk/b1YE7u0YjVWbtuBoiG0TsqNwft0wDO/YDC1/EeOeY19YI20OaIwOY5ZgVxFrQbaX7fYU50ZAns1ybomzp0+chYSEoEePHvjss8+wadMm+1YbWCvGZt0kKLbOnTuHnj17okWLFjhz5ox2/qLgLXHmbXCMFcl58nXsWrwZwyZdhG964brkiTVDRvRl7Ju0BKsXnYYfqctLQ/rtTZi2chsWnQkXKyAd5MUi5uo+jBi4HauOBCGNdYu9jmv7BmPIzlM4FW6PlRGJsNPzMaJ3O7Rq1kRbe3D+aSR+8t8N+67EWjHPqSIjJQAXt6zE8sGrcfRmLLQKZIfj/rEl6NaltZj3GttiyZiNWqJx8004cNfezzLTWQTbvw2AfZz9hf1Gpc/ItYTqOJecW+LMGIq9OKOzO8ZkGYwJ6+13ZrJxUpxNmTLl8TtQescXNFko2Un0jnE0IilwD1a3/A/80Hsilt4THSUzRYiz8Mf5Exk35mJur3/Dv/VdiuV3uC0FN+e1R99/+zv6L72JO+xTYrHEzkVxlqu1IwM35v2ArnXfRcsNoQjVniLKdNgWjjDtmhKA479VR50S/x/e+Ko2av5QB3V+/AE//Ch+1qmO2lU+RtP2Y7HitD/CtXFjyz3HoR00dg7WnT8fb+fRmUnwX/IhPm9dGV+uCkYOUxOTb/rxAWhc7Q38j5JlUf2HH4Uw+xHf1qyJ2j/8jNq1qqFcg9YYMP0CboXZBmuek3pKztl+vf2uzFY3NX+jnOsZF228W6oSX+bOQaa335nRR+au4q/LuZtGcBLv2LGjJoi2b9+ujT+a3vEFzZOcE7xjO3bsWC2X+fPnP54L9Hw9wTkXbfIOueN2guddtmyZ9mn+iBEjCuWizDlPErANK4fVwv+pPwsLbZ/0OBwjas9QUdsxpmF7/J9XZmNLWJrwy8D1yV+jQ70v0H5bFMKTxAUwL7/ddMlNjcStOa/jvTY/oMamSO28eck3sKfrC6jXtgPGXNA2ITflNjZ0fg2fvvY8Xi8vxv2PNvtBWJ061fDtNzXQ8NeFmHctFlHadTZP1NgWR15IPMG53n5n5gnOeS3R49wdU+ZcmKybau5mxjmNfmw3+7zefmfmKc6Lyp2cbN26FZMmTcLVq1e1PirBccf4NAm24fTp05o469WrF0JDQ53OWVy0ccGqwhtzN8ZZzuO5AkhH/IOjmDNtAiaMH4/xE1dgx6kgsXLwNMSskuiH7Wfv41JI/qJcn3PO7+L4sPXoWaMd/vbOQuyLFWJAHJ/3+BjWPRWZQRsw9IMf0KDadBykVsmMRuy2tvj4506oPvOqaIftXI/PzaDZfvBbMwgv/O/u+GWSD7hyy/VbjzUD/g3/3mMapl6xP0odewUXZtTEf5V8G6+Wqap9KPzjDz/gx5/q4Eex9vnm28r4rt04rNghxKXNw+n64wkT5c9Nu4rtgzrgp39vjDGb/aF9LpV6HtuGNUKJEm/g7XJiXSVi/mSP+VPt2qj6XkPUabsQy44+RDwpFG3j45W6MYowOU5Vx7mrseLK6E/OuZ7R2+/M5DhXiS3nZjP+sm56+90xvpLDD2GM1p3jlXeopTjjnXhC71g98xTnKr7SSvAk7hiT5EKLAfX2OzMmSMyePVsTZ5ywqWoJveMLmuwg7sW2Tfhx/vuwruMraDRoGlbcEZNaqlioh4VqdxXYYTlOU68vwsJBz+P5ISuw6jYXkwm4sagrhjz/On5fcQO3+SRgrq3IaWmig2aLSRqpuL6oEfo0+QK/bn6Ih9q8meawLRQPtQ+4/XCwwzfo/l41TD+fjmgtLUEUf4g4kadnY8gXr+OTH8ZiyqkEMeXnaM9zZ2Zm5T8YlZ1fd/6UbcwWyWenxcF3eTlU/q0Wqq4NRAZPnJuClCMDUb9Ne5QdcxaPbMEQLTppspg/c8J2YXO/d/H+P+qh7VIf3EsXJxKdMOuJ+uWbGc5ptrqp+RvjvLCRYy4QeJGXnOsdV5TJ3PX2uTJZt4K8uWsytoovwXZ36NAB1atX1xZIcoLQO76gydxVYtNk7vxJ8BPe0aNHa7nw28mYCydOPV/GpB9Nb78rI8dctJFz5sAJVu4j+JjUkiVLULlyZQwbNkyrCSGPUYotYmhD238H1o5pgBdbzMfSS7ZbVNmPj8lBFj89ebQTE1t1w0vvz8e2h0nCLxXXZnyHbs2roNvOSDxKEmfKzc+Z80BWYjhuLPgYX/zWCHW2hGvnzY2/jr1938EvXbph4gXOZKINcdewods7qP9bL0y5rG3SYNubgOC1g/Db62/h+abTsel6DDIEB1mcb7LFhYDH5WQjJ9MNzrPsk4ojcsXYSk9FWrrI2RZQTDb57WD7Hee0x9tFbCJXzLFZmZxbtd/sPx0hhKQ2Nzpa/jzJ3xMT+TyAOJ9ohzwmi+8Aiq1Pnk8sGh6fQ5Fzu8mxojpeGFfVl32bvuzrXMAYnd9k7iqxaTJ3vdoxF7PgPFHwvNJ4/piYGO3RScZ3HOfuGH308nZm/NBUdF4k+50Q19CmKPVeabz/wQf44J2vUK3RfCzySULyYwFnHlmPRJypv+GlBtMw4rC8PW77gImcc557zLkYRzmi3+PhJgyo0wUlyyzF/shk8DPiXNkGsWjIzUlCRvAWjC7fGC1/nI1DQlHmpEUgakdnlG/aEz/NvSJmCjEfiHM9XhOwSen3cX/dcLz9Yn+0n+6DWLEp6/4mrB/2PF7oPwuzLtvF46NzOD3vF5T6ZTJGHrLn/PhJALFYPtUVncu+hnfLjsGigFgkMCdyJ7tLnlwDFTDOseI0mclXsWt4NzR5oTUmbfVFEH0ST2DDwF54/tXJmH8xQmuzmFD4X0FXPGKPj0HzLz7BB3VGYJlfGlJFzfKyjfUXOVZoevtdmRwrKmONHHP9Qs55Xf+zx7lst9HxQpOxVXxpbCt1AoUpz+XuOOdxvLZT1HXt2hWvvfba4w+I9I7XM5k7TW+/KzPDuTS3xRmNAVUKbVac0dyPbRvp8Q/2Y/2vJdF48HSsvFuEOLuxGIsGv4gXh67Eau02WSJuLu6GoS++iWErb+IOxVmeJCpfnN1Y3Bh9fymLTltCEKJ9ZJbmsC0MIZo488ehX6uhZ+kamOWThbiC83ZGGMJ2jUCV0j+iym/rcFGcJ5sLpKx0pMRFICY2BvGpttjpBUi2ibN4+K2ogG86f4/q64Ls4iwVKUcHoWG7jig//gLkq7Nx4kKWlMykhGC5vR7zW7yFV1qPwJBTcdqnZHwe+8ka5psq5zT6mRmcZmKTYzPiTA5OvX2uTPqqDk7pr+JLmBFnNDN1p5/knDAizmhmYpNjM+KM9TYcmwsHnuTBTqwb2xAvt1yAZZcjtPMWEmcRuzCpdXe88sECbA9J1sTZ9Zm10b1FVXTfFWUXZ/nn1sRZ0iPcXPgpynZujJ+32kRfbsIN7Ov3Hpp37Y5JF20TS6YQbBu7v4eGXftg+jVt05PI9IPP/F/R8PVS+HXKAVxK5LpJxElPQmJMOCJj45GU5qy/ZdnETk4aEmMjESZqzDqHhj1CVKLo69yfkYyUxERERqciOY2Cy+ablSH2p8YgJjlZxLCfj4uwDHFcdJzgTCxsUxKRnByHmJQMpCRFIjbCfv7wSEQkij7BOtsXbpyHc8RCLiMpCjERYbh37x6u37gljk1EutjH92IyhdBMF+M+OUZsS04Ui/kIcb5wPIpIREqGPQdhSpzbTY5Tb4xzs+KMxnarxKbRl/H1asdcHJEurr1RkZGIjIxGdGwKsgpeCzVkI02ME0fPXDFXcL4oaJw/OMdx8SUXYnrHFWX0oent0zWpLzLPY0v/7mhWdgDmnwqCvxCHYbfWYGCjnihTcxVOxItc7IeqQbQ/OQHxoWewe0Jj/PeLL6BEueGYesZ2x5wgX+RcV5yFbMbAn8Vi9ItlOBCVUkic5eVSnG3FmApN0KrOHBzWxFkkond2QcVmvVB33lWxAtITZ77wXT8C7748AB1mXLKJM9/N2DD8Rbw0YDZmX7HfN4w4jzPzm+H15tMw5qjOM9S50bi5rDWa1/oYb40/ivOPRIZi/ZGZIuaA2EcIj09Baro9rqNx7IvCauJsRHc0fakNJm/zQzDPmXQSGwf3wUulpmHh5Zgn+o+GzHjcXlUbP/xYFhWGn8D9ZD6CnJs/N7thcpzS9Pa7MjPjnBybEWc01dg02W7VOZJ+qr5sqxlxxscheefMG+LMDOfSSnCic8fYWBlIb78rI+RjjVOnTtVuyxN6x+oZ4zI+89Db72hEysND2PRbSTQdOhNr/KmxUrXHGmX+RNadpVg69CW8NGwN1vlyWxruLuuBYS+9hRFr7sJXG+m2527zH2vMwp1lTdG/+VfovP0RHmnrPsdtYjGhPcYfjKO/1UCv96thxrlURPI4saDQHhmwhac6xOpfy6BB626YfdNei5wwXJ7fBMPHjMCiG7naoo6faDOHx20UrnnZKQhcXRHVuv6IGhtD7ReFLGScGILG7YU4G3sOkVq+eYgUFzFO5hryIhG1sydKf9QLdcZc1Sbax+ctYGY5Z870fyJ3A2aEcz2jMODAVolv49x2W1pvvzOjD/OmqfhzUmJslbwJihD5zhlfxpfbCx6rZ2Y5l5wxd4LtkI81LliwQDuGKOgnzSzn8lFW1tBxO8Fz87FGvnPGxxol5DHKnPMkwXuwYXwjvNJqEVZe56gq2EaxIXYvprbtiVc/XIxdERnCLxO353yPnq2qo8eeGCHOKMccYvMc6dG4t+QzlOvaFPV32F+GT72DQwPeR8vuPTH1im1TXvJtbO7xPhp27o1pV4QnA9rPI+eb7MAdWNvpbyjdbxrm3ObklofkgIPYOaIm+i3YgSMPZa56ZjsHIg5iYq8G+OTjj/GxsE++/BqtF5zBZT7rlHMbl9bMxfc/rcMan2ixCLf7Rl/BhTU/4ed5q7HqnuxXYiHmfwBzGw3F1JmXcPnGBmxc0hL1Vh7BtmXN8HtT2/k/LvsDKg3fjwu2CVTz1ZD3CFfFPNnmm4/xwQcfoHTpSihXZRl23eeDWdyfhIhLh7Gp3hjsXTAbnXs2EOerhR9/2YnzCeLibc/NU+Ncpb/KcV6wr7pr9GNfZ5/X2+/MmLvqHEOT47So3G0QP8P2YXT3+vj0k0/wySdfoXzV4Vh5KabAY4Di6hW0C33W78Owc+79yRfOcbx7pgLmR76MIv5UJ7TvUAVfDMt/KkUMRpyb2xHd63yHhVeSEPv4FrEKHuD8kHZo8fHnKP9BNVSpUwV/azgVU07mC51swVdhzm1tQsQ2DK7fHa+XXYkj8Zm2NYHDMVzfZD7chrHlm6LNz/NxnNooOxbxe7qhUos+qLfwpjjC0UcYf88JQMDmUXjv5UHoMIt318QhAduweeRLeHnQPMy9YfvwCzGXcH5RC7zRfApGHQnTNmnnEBMQx5u2nArfjuV9m+Gvn83Diuu2NWDWtZmYN+UH1Fp5CTdjixhH4rjctOvYPbIHmr3cDlN3BkJ7jiD9LLYM7SvE2VQs8IkSM6oAj+d45L+JxM2Y1bI+qpcfj52BQiyITboxijD2cfZ19nmVcS7nGNVxTn9yzvWM3n5nZmacs62uxrkzo7+sm95+d0w+1mi07oTjO2c3b4oFtoDesXrmKc5VrivS/mm/ECQ15DA2dxbi7PdZWPtAbMhKEyLlyS8Eyb67DMsozoavxXo/bknHveU9MVyIs5Fr79lemBUgUdoXgth+w93lTTGghRBiOyLsQsxxWxQitVnoIY49FmdpiNKOK3hBSEbgki/RoEtd/LIrwXb+vEQ8PLkIu/buxmkxv+WIiS1LiDPm8ARyUhG0huLsJ9TYFPY4t8yTQ9G4w68oP+48bG++AFGic/NTFxvSkOe7Hu3faY9f2m/DTSfXKMm5Y82MQHbwQrm7CaOcF4T1hSDWF4I4grn9UV8Igod7H4uzVTfsH4QURNw+TNPE2RLs1sRGFu7M/R69KM72xtrFWYHYGTG4v1SIs25CnO20iT6k3cVhIc5ade+FafJ1npQ7dnHWB9OffMUnH4k3cW1FDZRqPxL9Dtpmh8yYO7i+cxo2HL2E2zFO2p0Th5iLKzGsWTN881MndBD1GzlyCIZ2qolqX9ZC+zG7cCUtDLdWDkTtf6mC3xddRaidwowbyzH/kxIo8XUf9DtjfwQqMxSh+wehQpkOaDv9LvxvzMCk5v8P/r9PyqLdsAGYN4/n/x29W9RGxVdrYeBiH9y1r+hTHxzBsW7N0KtdW/QYNhKjx4zGkO4d8FvNJqjRYC2WHuFcl4nIo3Pw+//vbVSo1AH1R04U55uFOUtuINDhyxLMcE4f9lX2WZX+Kse5Xl91B/Qr8sshXIC5M7bZcV507lnICruEne1+wy8/dUA7rb/0Qf8mbVGhzkbMP2bry3E3d2FXuxbYMqYP6sxehOod+mJax25YuOUEdh05hcMHD+DgwYOFjE8ErF+/Hvv379fd78z27NmD3bt3u+W7d+9+HDtxAmFhvrg1qzya/VodjQ4mI8OB7sQTYhz2fBnfLb2KG+5pSx1wvryInaNHo3/raZgvarFpThu83mYGRh22CR0iR8yrRXIeuR1D6vcQ4mwVjiaIxbh9cz7SHcTZApzgFCTGdcLe7qjUsi/qLbqlCZdCyA1E4JbRdnHGu2sCgduxZZQQZ4PnY95Nex+KvYwLiynOpmLUUdsj2BLMJUO7JNzG2RkjUfUfvTHtUIgm9HJDj+LEodmYdT4YRX2XEpGXfuOxOJu2KwiaZM04h62/97PdObsULXqdHkJxtGcL/Pb6j5hzIQVFzM5Fgn2cfZ19XmWcy7WE6jinPzm3vhDEGBzFmfVtjS5gibMCROWk4+H6r1G1a21U2RCS/16GA9hJdAeXCXGWGbgZIz9tjN/arMY5J2NWcu5YMyNgzvRXmRgIswt1S5xZ4swRzO2ZFmdJ93B3bUeUbjoGvXcE2jdKiHrnFM15dtQ5nBjzJd4v0wpdVgTg8Roq6RzWN34Ppav/ir6XU5FwaxVWV/8L6o9YAzEViuZEwe/4VPz4SVV8XKYrZu67py3usiNO4cSUCvis+yxMuCTGif8czPzlX/D3Nz9Dr62h2qJNg996rKj8N3zRZQGWch7Pi8KdXWPR8MOf0H99kG2hqEEsVm/PQadyP6LJoK24LoRc/OlpGP5ff8ML34zDvPv2wwrADOf0YV9ln1Xpr3Kc6/VVd0C/p1acpfriztZ2qPLlrxi8xA+2ZWUecm6tRpOPf0bn8QcRKoZA7K192NOhLZZ1qYRaDTui5rc90K91a/zYpg9q12+Cn36orX2xhKPVqVMHtWrVQs2aNfEjv/imwH5X9sMPP+D77793y7dGje/QrGVLHDq0ASdHlcegrk0w1Ufw5kB3zo3pmDyiPP4x7iBOh6txyWs31wz3AhMRoXX+e7i5oiXeaj4Jw/8ZxJlIJkM77D6uLBiBtq+0xZTtD4Rsch/q4iwCZwb8iD5vfI7Jx5Ier4vcBfs4+zr7vMo4l2sJ1XFOf0ucGa+7Jc4MwIw4I/h4n7uFSg05hI2dSqLJUOfijI81Pvf7Gqz15ZZ03F3aA8Oeewsj1zgXZ/2bl0Wn7Y9MirM0PFz3Nb7pUhuV1/+J4ixgE0Z82Ai/tlyFs07GrOTcsWZGwJzprzIxEGYX6pY4s8SZI5jbHybOgvdg/bgGrsVZ6x549b3F2GUXZ7dn10bPFq7F2ZdiUVh3h/0xLmVxdhd31nbAO01GoaejOBOl1jgrkvM8xF1fhUX1XkSriZtxIP8VGLErHWnnRqNJk66oN+keYuN9cHbhF3i1n1ig8fHKjIs4tX8c3hyzAkOa18XqpWtwRjQz6eZ6rK77NjpM3o6Doll518ZjSrfn8VKnldj+wOEaE34MBya9hFf6T8b46+L3rCs4vLgvnvtpKIYu24ljR49iz6492L5nFw7sXIiJ9f6GGm36Ym5oNmJOTsOEl19C04HbcLQISsxwTh/WjX1Wpb/Kca7XV90B/Z5WcZYVsBMbBz+HN4fOw7zb+bXNSbyJo4NLofuoEVgVJDZkxiMxeC/2zq2Knz+rjXrdDmH21QcYN2M6OnXsgDZt2qB9+/ZPGN+nbSkEU7NmzdCuXbtC+11Z27Ztdc+rZy1atESP3r1x6tQunBxdARMHtsIaP5G2rTk2PNiCZbM7oeSUkzgTrlbPQoi7iktLWuDN5pMxwkGccSzyep6UqMN5xDYMqtcdJV2Ks8ZoXXcejrMRQpzF7+mKr/lYozNxtlmIs+cHov0M22ON6uLsHq7MG442L7TB5D9VnP2A3m+UwaSjljhzF2yrq3HuDHItwflRFZY4cwOeKLS74iwvKwWpCXyBON8iYuK0l8ndLVRqyBFs6foqmg2bhXVFibN7y7Fi+Et4deQ6bJB3zlb2woiSb2HUuqLEWY44pikGtSqLrjvl+2WK4iw3DcFryqNWtx9Qe6tYUNo3O4KdRHdwmRBn2UKcDSjTXFzk1uOSkzErOXesmREwZ/qrTAyE2YW6Jc4sceYI5uZanPH9oRxtDkqKj86fg6KiEJci5r+i6Hy4DxsnNMFLbRZj1c0ilED8AUzv0AevfrIUe+zi7O682ujTphp67YsrQpzFwnfFZ6jY8xc03GU/r7I4u4M7a5rjw5Zj0W9P/jfA8f0M9reiOc9A2LGpmFjyRQycegRXnjhM5By1C2OqD0L7pofxMC8c4WfG47PWM9BvbwxyI/bhxJqBaLPqjKhPRQyZMRxzH6Yg4vhqTHq3NWasvgF/QXXmhTGY3L8kXh67D0fD8rnPCzuK/ZNexqsDJmMiXxtIPIadIyriP55/ES+UfB1vigtvqZIlUbJUKbz+xmso9eJf8XnH6dgYnY2oE1Mx5dVXMHCKyFn7GrfCsHFuiTOjoB/bXlTuCTdWYknbF9Bw6lbsddQWqaG4s/BDlOv1K9qfEjWLPItLK2tgwIoNOL5/O6bPmI2a08/jZkwCEsQ1Ky4uXrt2FTT+oer79+9r76To7Xdm/IptvsfChZ/efkfjMXw/PjMzHOcmVMKY3s2w4n4Bcea3HotntMYrk0/gtKfEWewV+BQQZ/xCnrikNDwMCxfXNh3Oo3bg9wY98VbZ1TiWWIQ4C9mB8eWEqK27ECft4ixxX0983bo/fl58y/ZthwWRG4SgbePwXqkh6Djnqu1r8E2IM58FI9GkVCdM2x0oZJP7UBdnj3CqXwP0eqMSpp9OgtE3FdnH2dfZ51XGuVxLqI5z+lvizHjdLXFmAO6Ks5Rbc7Co18ePXzqn/TJoNo7IlxjcQFakD06OK4n2k2ZhrT83FBZnGXeXYcuYkqg77xCOah/h5OLhgVGYU+8tjN95H372ptoKLcVZHu4sb4wJnb7GpLMZ9m9hFIssJXEWgUsTP0W/gR0w85a4wNs3O4KdRHdwqYqzvHhkXluEb38ZidazfZDkpKSSc8eaGQFzpr/KxECYXahb4swSZ45gbq7Emfb17jnpyLg8F8PaVXk8/3z8RTk0n30MF4q6ssecw77F/fBy++VYecP++GFBRB/A1FHD8Ebb7bhg+6M7CN1UD6MHfoOe++KLEGdxuL/iU7Qb+Rt+P23vD6l3lMRZjlgIn5/9ARqMXYjlN/OXYfICXjTn6Qg9Mgnj//Eyhkw+iqtPdEsxSQasQ4cve6Haz/sQgGQk316DXz/rhL5TjuPk8c3YNKQfVl0MROi5CWg2eyG67DyBK1umoWKDRVh1wfYSf8q5MZg0QIizCRRn+TXIDT2CfeNfRskBQmjdERsCFmBut+fxj1o9MHTpThw4sB/btm7FurXrsHffARw5IRb7fo8Qm52J8KNC0L0icp4qci7issU2mxnn7Kvssyr9VY5zvb7qDuj3tIqzmGvLsaJtSQxdeQw+jpf6jBhE72qLrwYNQ6M9YpyI3+OCTuNORAqyc8R18lEgLvjF6X5Q6QjGV2m3OhJwcVIV9Owgxus50Wcc6M66Mh4ThnyMFyccxpn8bwoxBwdxNtIuzm4EJ6DvqsvYe80P6WI9UwgZJ7Ck9Qg0+HI1Tic5/Emex0hDVuhOjCvbFz1+2Y6b2hSUhJyLU1Gt81jUXXTzSdEpkRWI4P2T8N7P09B/yz3beYU422z0nTM6Jp7D3sWj8H7Dhdh4M0Y/XhFQF2fXsaXjAHT4ZCz2htu+EMQI2MfZ19nnVMa5XEuojnP6W+LMeN0tcWYA7oqzzLBjOLWRLxDn24LNh3ErxvaNMe4gL94X91Z+i28mL8XE29ySIUTKk+Is+sAELK7yAvouv4rr9pco4i/NxNpBr6D/rvu4a5//bIWWfuE43Kc1elVvg1V+Yp2kbVMRZ6KzPzqAHlUbolWP5bhZxIzBTqI7uAyJs0jEx9nFWaovbs2pier9Z2L0eecXN8m5Y82MgDnTX2ViIMwu1C1xZokzRzA3V+IsI1PMMblZyA4+jp0rxMJIzkFjxmPJ0XsIKOr6mHUH51dORtUvF2HjxSLE2c0RGDD8B5SacA4P7PNN+om+GDq+BapviUR0KnMu0O5MPxxr9hr6/NoPK+WTiCm3FcRZBuJ8VmNylXLov1CIFYevy5MX8KI5z0G0zyLMrvo8fpu5F6efqIHg+fIE1P6pE77scxIx4tjs6FNY+dPn6NnzN/w2diXGdluGG7Firkm9jMk9tmFA3U4YN7sm/mPETuwMtMVMojjjnbNxe3AkNH/MOIqzyRRnYcsw/9dP8F9fr8D2/Jt/yMosmLsQlIcnY/zLL2OQdeesEFxz7hzaWBFtLyr3mGsrsLpjKUzcdBo3HHVEZjySDw9B1ZHT0GTXkwt4I+DdLPktbkYhczfGWQb8F1dGo18ro/buODh8pwxiDnfDzG4l0Xz9PdzzlF7UuXMWGpuGTWcDcfF+EFLTn/y+Sxvu4kCXURj04UwcT9BG5pPIS0Pa1alo/EM/NP39vP0Oklh4BK7Dr7UmodOgy/Z3Awsg/jwuraiKF3tOx9hTtlVFnkFxRrDaSRcmY97Ab1Fx+iVcjjV2fVMVZ7l3h6BXx4ao1OMsHur9nUYXYB9nf2G/URnnci2hOs7pb4kz43W3xJkBmH3nLC8r3f1CZUQj7uQIVP+5Eb4fexBXxWLoiXcqUo5jx++VUPOdhlh47NHjvwmWFbYPhyZ9ijJNumHyiYhCgz3z8gh0qlkHVZptwTUxAdq6rL44O9qpGvp++B0W35XHOSDhPA70+g5vlR6OX5c8LPDVwvlgJ9EdXEWKsyHiAtINlWfaP+ES4EvENoTAb3N7NP/wfbSethsXinj6SkJyzg6qAuZMf5WJgTC7ULfEmSXOHMHcXD/WmCY4U4kdi8C989Hvre/QdNgenCo0tkKwe2hNlPuxFlodfoT4x0NyK6YOboTX643EyhvJBaRZCmLPdkOL0mXQse8m2x/FF8grSpx1fw9Neg3FooLf9UH4bcfSxrXw/ocjsODII4cv0pAQkZ18IUi6EEl7B7yHz7/vh1H7HRqX7YtTAyqjTO12aLk5xLYgzI3A3flV0eqH5/FclZ6oPeoionLJRxTOdR+JHv/xd3zW8AVUXHYZ9m/TdkOcTcHE6yLHzLs4N7U9yv6P2vhhrg/u2Y/jH+BHZgAurpyLXXsuimqLBc1R4fOKJc70wNwZ2+w4Lyp33jlb1qYkBiw9jPOOYyE9GuFbG+HzfgNQf4fjy4vG8OeLMzHErg9Fz7Y18GWnPQh43Oxo7B/bEU2rNcXqu2lIMp6OPnTEmURMZBHvnCEBvov6YfB7FdBqxGVof7rVEYlXsLvzF/iq6QD0Py5foxD/TfbB6jqNUb/yIEy5VvBT4kxEHZmCNjVexxfjN2FXqG3i0hdnl3B+cUu80WYBplzWGXAxu7G0zaf4rkI9TPKJQ5zBrqcvzvhV+gPwyusLsdZfp/jxZ7Cs/Qf4sEEjdDwbCwVtpvVx9hf2G5VxLtcSquOc/pY4M153S5wZgBlxxiJlivjuFyobeRFHsbxlFfxcuSk6TdqJjZs248iRIzh8+DB2zvoFzdtURM3Jp3Aj3qHj5UYiYO84fP/1O6jVdhQW7T4sfA7hkLDD+1ZjWreKKPdbD3Q54XjFycLtRXXRs8GHaLslEhHaOAjG0Y5V0Obv76DD9D3YfMAW12ZbsGliKzT7tBxajN6O41IZErnpiA+4iDv37iJQlCgnRyz0M/TEWQoCln+Gcu1roMK6UPuiLgeZx8VFr2FtlGo+A5vt8bZs3ow9B47i4Lqh6Nf0HXxZfjIWnYx1+UiB5Jy1VwFzpr/KxECYXahb4swSZ45gbn/YF4IIJD88hu1DK6N8nYZoO3WDw3jfh8PLhuGnKq1R/bcNuCSusfkRQnB5QU90+Pxz1Os0Byt2Sp/DOLRpFsb1+ABfdp2EmWflO6OifyTdxP6eJdG4Y2dMuGTfmHobGzu/jurf/4R2c/PPYbMtWNWrIeq9+y2qzD2Hyw5Tb3ZqJMJun8Tl+0EI5x/BLgoZoQje/Tsalf8J1VpPxULtvHuwZ2E3/PLJJ/i+/SxsfSwKRR/wGYvWpUvgX/67Ar7ZGGwXg1kI2tQSP//jX/Avz9fAhDOJj7+VMen0MIzp8V/464gdOBCSX53ckAPYNfKv+K8eYzHqoi2/5OvrsfCbMnijShd0XbIfR0Quu7evxI55ndHhizLoOmQ1rogKPzo8HmP+71/Re9wB+Fji7Akwd8Y2O86Lyj3p1mos7fAPfDt54xN3OJH2EDfnvImqfTqh63H9vFlPPobvLDdviDPAF8cnjECXr35F/2X7sZtjYMs4tPuxH75udgCXUuzjJ4nvw93Bef94pGkhssWmK7h35zr84/Ls1+pkRF27AN9Lt/EoTcy72jYHxPjg/PwGeL7+WAzar71zoYF/INoZ55kBi7Gs22co+3439F6wE/sezwE7sXXmr2j12efoPX4rrj7xVGQS/Df8ivYNvkL5LpOwcr/0EbZnPsZ1aIvSlUZh1vEQxNkzzX2wGeuH/Cf+2mcWZly38xR7Gefn/oznv2mHphPW55/Dbmsm1EDtLyvhp7ZHIf80GpGT4I8HfmdxJjgeic66Y/o17Bj6G+r9tRkmbAuw/Z2zjHPYMqQj/v0v7dBl9mbsd4x5YDs2/d4aVb9ogvoD9uBaUZ+AuwD7OPsL+43KOJdrCdVxTn9LnBmvuyXODMCMOFNatOVlIzP+Jk4NbYdmL5XCq6++qv21cJJV6ovGqD/rBHzTcwu+5YHczETE3FiFCT9WQpnXXtd8NHv9NbzcahxGX4iE9nrIY2TBd217jOhUA333RiNKGwdhuDyyLVr+19/xwiuvoZT9HIz9+uul8EGZrzB43XX4JWc+cVctLysUPjN/woDfB2HutTztL+PnZOkIHH7T46ZaqNO/KX7e/sg+ZYrB5DMFvRt8gL+/8CpKiViMWbKk+HcpEf+Daviq7wYce5CMdDfGquTc2UXSGZgz/VUmBkKJcwdY4swSZ45gbn+UOOPdtuzcLKTG+MJn2bdoWrWkfazTxLh/tRZajTyAC4Ve1M8TQzkGwUfnYtS77+ITMU6l32tvf4G32s7Fhjux0J54tCMn5R6Oj/gKvw0YjLk37BszHmDX71/jmzefw4uvyrjSSuGj71ph8I6HCEnLeWK+SX6wF1sGlkfXWZtxINhZzcWiMisJ8ZdWoFuTb/CKdl6R65tvosagddh9LxWZj+84ip/xxzCv3ieo901LLLorRIx9T+69ORhWtx7eL78UByPE+LBvT7o4BbOGf4jS0w7iRHh+/XPDT+Dw9NL4aLhYBF6zX3tyM5AStAuLqpZHxVdt82rJkq/grXfeQZdZB3A5KgVi9OHRydmYUbo0Rs0+geuWOHsCzJ2xzY7zonLPCTmInWNF/+gxBdMv5a8ZcuN8sLnzO+g7dgp2hevXjH9c+sKFC/nvSevAO+JMtCvuOo5M/xVvviXGJ8dAqYr4qdM6HAjPtt01Jm4uwvAR/VBrygU81MqTjNuLm2HYwE6YdF4edw+H2n+PUY37YdtDcb3RtjlAxLmyqhM++3U2JhzX7hFpcPpV+kReGtIjLuL0rOao8Nlbthztc8A7pT9Et3lHcSs2o9CaJy8zAZEXJmBK+5fxxhvSR9hrn6DCd+Ox7KpYE2WJeuXYuMwN2oMdk95H6dHLsPSOvQ8l3cfN5c1QpnRJseYplX8OYRyjr37dHl2WX8SjhJwn4qddmYzp475BpcUXcD22aE5y025h34QB6Fi6G+bufwjtvmvGLRyb0xEvPPeSmPdKObSXub+LUi/2we8rbiEgKUvwLnJXHKfsL+w3Kn1GriVUxzn9LXFmvO6WODOAP12c2ZET7osru7Zj7dq1j//45IHTd3Ar0lnhUhF5/QJOHtiv/dFKLnL37TuAQ3flnTFH5CEtyhfBfjcRECcmAS3FTKSE+OH2yRM4uG839oi4+/bt02Lv338AR09fxMMnPr2yIzcNcf5ncevOLTzgY5NF3TnLEwuD6Fu4E3gPd2LyOclLDkPgrXM4dewQDmix9mt/rHPz5s3Yf9QH54PSCywOi4bknB1UBcyZ/ioTA2F2oW6JM0ucOYK5/XHiLBdZMmT8Ndy5cNA+1m3jff/By/DlR+RFITsWQUfFvLBvb77f4dM4djcBBb3yctKQEHwN/oFBCLd/GpwrtvlfPY4zB/fg6CEZV9oBHLtyHyE6lGanPELIzWPwuRuIMGd3zh4jAUG3z+OQ/bwHjpzEpYdJtg+r8hz881IQde86/G/7IZ5rIvtmZEYh9L4/rtxIQBLFnOBZq3tsAEKDLuNyaDwSHC8xYtEYH3YZV4LDEJbiyEsmkq9fxMWDB7Bl61asXScWyIdPwD9eLvzEGEwQPpcvIzg8AU+4OsAs5+yr7LNK1yX7OFdZ+BD0e1rFGTJDEHxoKBp+0gZ9J11AsLYxHvGn5qLGu+3QecopOGjwJ8B6clHmLDdviTMxYpAW64sTR0Tf5xg4cA7XH8Q9Ka4SA3Hn7k2c8Y17fOcsMdAHd25dha8QH7aoyYi8chZ3L9xEmN6ds+wUJEf64apfGEIcBgTnVbc4T7iDCyfz1wAcqwePncbdKMG5/ZBCyI1GzH3ecZI+bN8JnLsaZn8XLRfZom5azTNiERsixuvDCESk2rPPSUdqxF1cPX8cxw47zn82233yLnzjCveXnHhf+N87iROBcU+O/QJISoyE//XLuO/jh/A4cY3iRrFeSnx0H+fOHhPznp0TaQcOi/kpEOF2TWPkTzE5gn2c/YX9RsVfriVUx7nk3BJnxmCJMwPwljiToH9xAzuJ6uCScHaRcwbJuao/c6a/au5mObfEmSXOHMHc/khxZuNccazZf6qCKccmOhF/LiEycPLOmSvkZqkvADTO1dYtj8FzqMAs5+yrjK3SX+U41+ur7oB+T604Ewv53PgHuDSmP5rU+B4V69VDvXq18WOFZvi+y2HsuJn0xN0To/CeOPMuOMZUOdeQly3Gqgrnedo7++lOOXcH6r5xcYmISVBrN3NX5ZztpS/7jYq/XEuo1k1ybokzY7DEmQF4U5ylpKQgPDxcK7ZRmCk0fZg7TcWfnUR1cBGsFy9izh4RKQqSc5WaEcyZ/qq5m+XcjDhjm4sr55Y486Y4885CnfE5zo3OqwR9GdtTnBsBa/VHcu4KZjln3t7inH6qC3VPce4y95SLWDq5NxrUrYu6dZvgl3YLcSgw1ZQwIyxx9hRzrgPWWo4VVXANQ85VeDPDOdtLX55DxZ+cmRnnknMz4kyFc7bV25w/0+KMSbhjTJLBaAysd0xRJhOU4mzKlCla0Qm94wuabKjsZHrHODPG56IlLCzsccH0jtMzxmbnUo0tO7cZf/oyB739zoztlAObf6zTSLtpMjbzN8o5TdZNJXdPcM4LOAU58zfKuSc4M+uvUjeCF+6OHTuievXq2L59u9Z2TjB6xxc0GdsTnBMUimPHjtVyWbBggdNcJOeMrVI3R84Z35FzxuS5ly5disqVK2PEiBHaNpmLJzk3Wze9/c6M7WR8tpsLGMd2u2Oe5FxvvzOTnKvWjW1lm/U4d2XFnXP6PY2cMxczcDVX8fxcP/C6xnb8GZwzp6cBknPOc97i3EjdpMnYNJXYjpzT/8/gXJo368Z2Mi7XrlzD/pmc83hvc851KwU5/d1tO4/jeKWok+Ls+vXr2vjRO17PvMm5tBKyeO5YWlqaZnr7nBkTJGbPno2KFSti4sSJj9Ww3vF6phqbxkJxYIeEhGifPsjCGTHV2DQzudNU/dmx6MeBHRUVpdxu1dylr1l/vX2ujG3lwA4NDdXumrIWescVZWZi07zlT7Cvt2/fHtWqVcOWLVu08ccJRu94PfNU7hzfXESMGjVKy2Xu3LmPJys9P5qZ2M44Z0yK1kWLFqFSpUoYNmzY40lXHmMmNs1b/mwnRTDnN36Zwp89zmlm/M34sq1sMzlnDZ6VcS45Z7ufJs75O8e4GTHDxZWz9nAfPxXnde3P4Jzn5zzxNIB5k3POc97iXG+7O2YmtiPnPEdxHOd6210Z28k1K+d2XtefJc7Zdq5bjXLO43htp5Dv2rWr9mU0ly9f1saP3vFFmZncaWZ8aW7fOaPJ4hhVkpxsCdU7ZzQZW0WJMr7qnTMey5iqsemjmjtjy0U1B6XeMc5M+qveOaOpck6TE4lK7jSznKveOeOxZjmnr4q/Y2yVuhFm7pzRWC+aWc4JI3fOaJ7inPH5u9wnPwgq6s4Zj5W5m+VcZX40w7n0V72Lwnw9xbneflcmOVeJzbaq3jnjscWZc/qZ4ZyxPc05z8VczMDVXMXzy7sorKGRtsu6MXcjnDOnpwGSc5U7Z57iXGWs0OhLU4ntyLnsY3rH6Zkq59LkOFWpG2NLf5XY9Gdcrl2N3jnjsWY45/FmOWdc+huNTWP+Zu6cUdh5484Z45vhXJrb75wRTJRkqcJ650zNX3ZuFbBe7Ny8gKvADOfMWXZuFZjl3Mw7Z97knAPTDOcURKrvnBGsuco4IejnyDn/bb1z5hqSc7283QHjc5wbnVcJ5utJzo3CLOdsc1Gcu4JZzpm3tzinH9ut8v4R82Vss5yr5m4WFCfs7yq8ydxVOGM89nOaij/9zp07h379+uH48eP2re6D/sWVczlWVME1DDlXqbsZztle+vIcqpybGeeSc5V3zsxwTl9vc05Bbn0hiAswQbOFtsSZcX92EsZmDipgvVTFmeRcpWYEc6a/au5mObfEmfWFII5gbpY4Kwz6MranODcC1sos55Y4e/q+HIJzkI+Pj/ana4KCguxb80E/lZpLeEucSc5UOacv58F//dd/xdSpU+1b3QfHmDc4Z1tdce4M9JdjRRVSnHmDc/ryHCr+ci2hUjdCcq4iziTnqnOztzm3xJkb8EShLXFm3J+dRHVwEayXJc6Mxy/OnFvizBJnRkBfxvYU50bAWpnl3BJnT58443tR/fv3R4UKFbBt2zb7VhtYK1k3VXhTnJnhnL6cg5577jltPWQUHGPe4JxtdcW5M3iCc0ucWeLMCCxxZgCWODPuz06iOrgI1ssSZ8bjF2fOLXFmiTMjoC9je4pzI2CtzHJuibOnV5zxC8AscZYP+q5YsQIvvPCC9gVJRsEx5g3O2VZXnDuDJzi3xJklzozAEmcGYIkz4/7sJKqDi2C9LHFmPH5x5twSZ5Y4MwL6MranODcC1sos55Y4e/rEGb/AYPDgwdpY27Fjh32rDayVrJsqLHFmiTMj8ATnPIeKv1xLqNSNkJxb4swYLHFmAJY4M+7PTqI6uAjWyxJnxuMXZ84tcWaJMyOgL2N7inMjYK3Mcm6JM0ucGYHMXZUzM5zT1xJnarDEmSXOjMASZwZgiTPj/uwkqoOLYL0scWY8fnHm3BJnljgzAvoytqc4NwLWyiznljizxJkRyNxVOTPDOX0tcaYGS5xZ4swILHFmAJY4M+7PTqI6uAjWyxJnxuMXZ84tcWaJMyOgL2N7inMjYK3Mcm6JM0ucGYHMXZUzM5zT1xJnarDEmSXOjMASZwZgiTPj/uwkqoOLYL0scWY8fnHm3BJnljgzAvoytqc4NwLWyiznljizxJkRyNxVOTPDOX0tcaYGS5xZ4swILHFmAJY4M+7PTqI6uAjWyxJnxuMXZ84tcWaJMyOgL2N7inMjYK3Mcm6JM0ucGYHMXZUzM5zT1xJnarDEmSXOjMASZwZgiTPj/uwkqoOLYL0scWY8fnHm3BJnljgzAvoytqc4NwLWyiznljizxJkRyNxVOTPDOX0tcaYGS5xZ4swILHFmAJY4M+7PTqI6uAjWyxJnxuMXZ84tcWaJMyOgL2N7inMjYK3Mcm6JM0ucGYHMXZUzM5zT1xJnarDEmSXOjOCZEWcEi8xkVcHJiOJs+vTphicXxjVDMhes7OAqnVQSpUISwdxV60ZyVQeHBDs3L2YqYM1VakYwZ/qr5m6WcwpyTuYq8Ysz52lpaY/F2a5du+xb3YcZzunnyDlrMH78eC2XRYsWaducwSznvIAVdQFnTlwYccE4atQo+9Z8MHdvc25mMuc4V1m0sb2M7SnOjcIs52yz6qLNLOfM21uc04/tVlm0eYrzonLnB6FDhgzRxpreB0Rm6kZQkLO/q0DmrgK210zu9F25cqUmzubNm2ff6j44xp5Wzl3BLOdcw3iTc9W6kTMz41xyzvWMUUjOVedmb3NOQR4VFWX/zRhiYmLQtWtXTZzdvn3bvtU9eIpzMyjBk7hjTJKLPvkJgFFjY2fPno2KFStiypQpmiLmNr1j9YxxGZ956O13ZbyA89M8lfxZZIo7djK9/c6MPoxJU/FnB2FsOcCMGutFURobG6u735mZ5Zw50181d7Oc8wLORYJK/OLKOccU+3rHjh1RvXp1bN++/fH2gsfqmVnOJWfMnTHZjjFjxmi5zJ8/XzvGWS5mOecFnJyzho7bGZPnXrp0KapUqYIRI0Y83i6P8RTnKrlLzgvm7a4xPtvNi5nefmdGX9X+RnPkXG+/M2OtzHLONutx7o6Z5VyOFW9wTj+2m31eb78z8xTnerlzTD18+BCDBg3Sxtq2bdu0RaLcz1rJujn6GTGuH9h2Fd7M9De2V5VzOR/y7j3FGddDjnVxx8iXNzhnW51x7so8wTnXMFzLFCfOaXKOUakbTXLO9YzefmdW3DmnwJI3VfT2F2UcaxTynTt31sTZjRs3DI01T3Gu0lellWDD3bXQ0FBN4Ojtc2ZUvpxMJ0yYgLJly2oLIz8/P22b3vF6xriMr7fPlfFTh+DgYC0mz8Pf9Y4ryjgwQkJCdPe5MvoyJo3/1jvGmcnYKr5sJ/38/f0RGBhouN00Vc5pjE1/ldxpFufGfTmmyHXr1q21hRHvFHGS4i1+veP1zAznkjPmzospOeAirVKlSpg0aZI2FzjLRfrr7XNljpwzviPnnOS5YJwxYwbKly+P/v37F8qFPqqx6Ss519vvyuhvdpyz3UFBQYb7Ok1yprfPlTlyrrfflZnlnG3W49wdo48Zzulrcf7kPorla9euoUePHtpY4xwk72jLY8zUzSznZvob46nmzrmGcxBf73juuee0Jwq4AHQ3fx7HuGw35zmj7aap9jeaM87dMbOc87rGtUxx4pxGfzPj/FnmPCAgQONcb39RRj+Otbt376Jdu3YoWbIkjh8/rt151Dtez7zJubQSVOPuGhdbNL19zowTM1Xk1KlTtcma76Cw4dymd7yeqcam8U4CF6gc3Fy88ne944oyXmy4uOOnVXr7nRl9ZO4q/jI2f+rtd2ZsJ2NyULOTGG03jXmzZnr7XBlzpr9K7jRZN719rkxyzov4s8Q5xxQnJ05KVatWxfr167W2cwzqHa9nzFuVc/rRn7kzF06Sw4YN0x5vojBiHs5ykXXT2+fK2E62nZwzviPnnJhZUz5KxEer+T4M8+B2eQxz9wTnevtdmRnO2U7GZ7s5qRvt6/RlbE9wrrfflZnlnG3W49wdK86c04/tZp9/mjin4Lh//z769OmjjTXOQfwk2TFHT3HOdqhwboYz1dw513A+5Lu3zz//vLYe4ifr7ubP45j708i5O6ZaNxrbyjUM1zLe4ly1bvQ3M84l51zPqHKuypm3Oac4Iud6+4sy+vHazprxCaJSpUrhwoUL2t0wveP1zFOcs/56+90xQ++ccSLhLT5V8J0zfoLOd85YPCNgXMZXBS8YnNB5u9AoeIuUxKqCuavWjbdiGZs5qIKDmmSrQN6WVQFzpr9q7mY5l0JFJX5x5py34jt16qS957V79277VvdhhnP6OXLOf/MT4po1a7r1zplZzrkAIuesYUEwN36KT9Gq984Z93ubc7283QXHudF5VYKxPcW5UZjlnG0uinNXMMs58/YW5/Rju9nnVeAJzovKnddavnPGsab33quZuhFcgLG/q0DmrgK210zu9DXzzhnH2NPKuSuY5ZwLXW9yrlo3uZZQrZvknOsZFTC26tzsbc4pclTfOaO4ku+c3blzx77VPXiKczOwvq3RDbBzccGr0sElSaoDhJ1DPveqAtaLA5ud3Cgk5yo1I5gz/VVzN8s5F21cJKjEL86ccxK3vq2x8KTK3KxvaywM+jK2pzg3AtbKLOdss+oHb2Y5Z97e4px+bDf7vFF4ivOicucn3ta3NRYGfa1va1QD1zDe5JznUPGXawmVuhGSc5UP3iTnqnOztznnnSsKcpW68y619VX6bsKb4iwrMwOREeICrlArM4WmD3Onqfizk6gOLoL18qo4E+1WnZTMcm5GnGmDs5hybokzb4ozNc5y7ZyrjhXG95Y4MwPybJZzM+IsD4I3Rc613EXezF8ldTnOVTmnnzcW6oQc50XlbokzfdDXW+KMyMxQFWeibjlitGh8q40Vs5xb4swSZ0ZgiTMD8KY4yxCTUoTo4NligjEKM4WmD3Onqfizk6gOLoL18p44y0Gm8M3NVZuUzHJuRpwxZ0ucGYeczGXu/PezI86ykCX6vAqKuzhTqRlBns1ybkac5eapj3ORvSXOisjdEmf6oK83xRk/pM7OVhFnYqGenYsczut5xmvuCc4tcWaJMyOwxJkBeF6cRSLgwEIMr/MTfv7pJ/wkrE79X9C0aSu0alwPP9e1baO16TsBaw6dxeVtndBj5SosvZ1uP4drmCk0fZg7zT3/eNGpMhBrf8yWIkF1cBGsl9fEGf8TH43s2DA8FP/UhnfGLRyaMBvTBm7GxTgxaXJbEdDn3H0oi7PURGTFhsJP1D1DIbZxzp8EJwYznFvizBvizP4PBOLSiJ7oLeYkOff8VK8J6i88izN6U15SghgfEUgQ+aaKdts+mS6M5MtTMXNxH3Q/EIw4nSmYOf954iwFkSc3YVmrlmjeoC7q/PgDfvjhB/z444+ivXVQ/5e2WHohEu4sJcizWc6NizNxXMpV7Bo+A1OGbsPF2GxkG42dkoDMhAj4Z+UgM1dcS5KuaOebMXI3rqWImtoPcwY5zt3P+0nQT3WhbpzzJyHHeVG5W+JMH/T9w8VZ2m2cmd4YbRvkz0F1mnRDuyU34Z+uUy/Rj+PSxLxp/1UXWYmIO78A/acswvj9gU6v23rwBOeWOLPEmRFY4swAPC/OohB4aAlGN2iARsIaCPup3HN48YUSKPFOJVT70baN1mHgZKw7cg5Xd3RD3zVrseKO+38gzkyh6cPcac79xSCKuYprq0Zgw+aruBFu31psxVkucuPv4ejcdZg37xh8xBZteGfcwZEp8zBTLIouPXXiTPCT6IvjCzeLC+dRnBF1V+nt7nOuD04MZji3xNmfL87EZQxJAadwaFonjKhRB83q5s899et9i8/rN0LjGZuxyy9ZHEsIQRByDpvXbsSKfdcRybqL+EWJs5QrMzBn2QD0PvTwKRBnMbg+uRValyiBd76sjW9/Fu2s/zPqae2tg59rfoT6Dbtj+o5LeOBiAJFns5yribPr2DN6NqYP3yHmISPiTPTruLs4OGsTFiw7g4vCTfR40fGuYs+o2Zg9Zi9uWOLMEmdFgL5/nDjLQsKVfTgyphN6t/ru8fxDq1e3FirUa4hOo/fhlG+avX8mIen+eawftRFrTz9AsLatCFCcXVyMwdOXYtLBIEucGQA5MzPOJeeWODMGS5wZwJ/xWGPm6W7o1+c9vDXvGh6k2TcKaO+cRap964sZkBzmnpnpunMn+a7C7Jf+gQG/78BV+7Y8irMMtUW6RGpiHFLExexPR8g6tP26G96tuQv37JuMIUfwprZ4IHLSbX/XwtDE9Gg92lfuhXdq7MRN+yZvwPh0kA9LnP354gwZ/riwrCO+e/sT9F1yEUH2zTaE4+bcGij7YQV83fcwgmVqp/qjVtvuqDrnnv1DALWLt0SK4F0NgnMu1LPdrXksLk9sjkElP8akQ3GidU8i7+EuzP2+ND4t3wV9dkUhxZ3T5qgtdon0zFzlb68jcjLEYjXX3diCo4AVaFCmN8o0PIIH2ja1CzD7aDr7uv13o6C/Jc68s1Bn7ir+9P3DxFmWL/b3aIh6z3+LfvsiEGPfrCH5Io6Pew8f/D/l0XLkKQRqtD1C9O7xePO5EeiyOND2pIsTqC8zbZy7sQRyCjPizEzuRJbgjf1GdY7S5g3F1zuIWCFS8tyeo/LBeS09S631bKurce4M9Dc7zi1x5gY8Ueg/Q5xlnO4uxNn7eHveVfg7rFWyhH9EeCjSU+KRIs6Twb6WlyUGXSriU7ORlhqLhBjbH5ENi4hGVIY9TloCooKD8SAgAKHhEUjWm2GyE5AkfcPCEfYoAWn2mS5PkJOVlY3snCxkxkUjNlweF4FHkemQ3x+QkxaLwAOTMPz5v6Njl3nY/jAesRmCWNHe7KxUJEc/QqTmZ7dHEYhKEee0uYvjcpCbmYKE1CykpCUiJd52XGjYI9x8EIKYFDGZ56QgSWwLp79oS3yq6Dx2d9YiIyEeGWKRk56WgjiRJ/8WXUBgMKIT5Kf9duSkIT4mAZEx4uJu3/Qk8pCXmYCYC7PQ4IsWeKPifBx8FIUkUfRctkd02vTUTG0pmpeXjUwtbrKIm4xYe/vCH8UjJilL1E1MDCnRgjtuD8ejmCQk6gXNTEac3Vfzj0tBeEIaYqIixECTlx3GTsCjx8eJ88WnIklrnPhPpojpMxuNvmyD1yvMx97gECQKDrQa5aUiPSH/Dw1rMR7FIl7kmF8bISaTE5EqLiJJyaLfPHyIsJAQUesYxCXb+01WImIibecJj4pDbLpDZbP51/jTEZOchqTYh4gIC7bFihDHpT7BgFNY4swL4ix0HzaMrocXf56OZTd1hELMXsyq3wHt6i/AiaQcZKdFIHRzR1Ru0BLlhh3EvagkJAnuM1PjkJ6dilQxHhIF94/CwxEnxnRWNusitosLrVYZMV7TE1ORlizGoBj3HDfXr13Dvft+iE1MKbzQykpDakS4bewLi0oW5xL9JDMuAakZ2UhNF5yLMZQcLxa9UaKv///ZOwv4OJIk3c97d3u3eAszOzM7HjOMmZmZmWVmlpmZmZmZmZmZmS2LwWJm+L+M6i6pJbegW971zdv+9hc7VlVmZWZERmR8Bdlpfpvrz+MFXZmQswQLzvvjrh0zLR9B5JN1dKrclOItVnJRZYnJrBEVnOjnEmNcvAMJiEhpr2jl0r6J/fVQccxXjfXz1ScGPy8nNfYn2g/8GspFG+OSikOK9IUFqmupuBYW7K3FPc+AcKJilU7VmEOUrsI0m8cqkhZEkNJxSKTSq7/SvdauihHBERgsqnQf7YPPjUU0KNKTIg23cUUlDoFRhu9qY5T9IiOiScZxE8IIDzCJGyquhUYbCmg33iKUDcLU2qPmfGhUpIrBJu36hxH6mSGTIHPcRs4s91W979bEGD1pk75bU1/q/tPImc8xJrXoS44S6zj3WXoVR/D7nSwtVVTlR1u5oWJKVNgL7m8YRY7vB9Np9mU+BoSoRF7FpmiVE6nEJDw0gKBPai56q/VLlY9QeUGQyttCI43eFR9NZGAAUdHKL9XaHaTPceVjAcb13RSxkX4EersYffoTHgFqvYsMUflYsJr/Ykelz3jlB74BBPorv0ih3uTkTOUNwSqXCw5Fq5qIeGLDQ9QaHKTGovzfeDQ6JBBfZ6fEHxb28ApBhcDPEa98PTGXk7EEEaicMFblKXEqZojN41R/I2NCVcxUsULlJeKvfqEyJ2Q8wUp3cSqO+xDgbbiGq4c37irmxCabqyoXClc5nJdpW974+EWQxKWULZSPBvkG4+bsiKuLk7GcikH+sYa8JD6YYF9jfZVjeas4mjJkxKu45u9jGoN8VB+NJ9OAjDU9P08LX8LPbeQsA/gSiv5XkLOQK4MYMawg+Vbc543Jm3xy98Dz7XUebWtI62WrWSq2Cn3G4yNzaDZtP4uWd2JCryIUKVKEouXrU3b1LR7HePNp00SGFC5MYSVFSpRm3M7bOKRYz3yvDGS8naFukSIlKVbCnsWnnRLvXClKoALeC64MtKNTUb1cRUqUXsWO2wGqRDzeF9YwJ+/P5P6v3/D377ORu+MUht+QAcSS4Hmejd2aUkurZ5RipSgxbhdbHYz2iPLC6/I8us7azejFo1k5tgjFjP0pNGg1ezxcFXHdyELVfhk5XrQ4PWZu5a7+QC3qKWd7t2X9qLGsWrmCvsWKUUKVK1y4CN1mbOVO4oM35aQep5nWax4t+13kjVlzhBL9bBt9mpfmb3/4lt/+KRsl67ZixQ1PQsI/cHbCDCb13MFtFRwjYl5xsU8b1o8ex6oVy+ij+ldctVu0WCeGrX6Mk/97nm7rQ+0KMpaiFGs0iqGHHFJ8z+LJ2/0z6G2sq9mw5xwGXXDH30+elho7GaXa2jCUYok2KErR7rMY90C+Pwwn4cVWejUvxd/++J2hz3WaseKmP2KhhNeLWTO4qLGesY1iDek47CD3EtdJD+7NHMS6zl1ZvXkDw6pVoZKULdqQTmPO8FQlwl6Xp9OjSRlD/aqdaLH8Hh/1zx8/HmLLhsU0mbaVjQsq066BmnNSv0oHWiy9h1MG38S1kbOvQM48TrJnRBP+XmAhy2/7Gw+aIpagjy44v3InIEwt2CfH0LZKFv7012/54z9KUavNWvY9dubFyZ5sPDlR6WwRU5XtK5euyPjDr3l6ZRFzl3TB7qgLgbGqf9EP2TdsDguGrebIqY2MrFKB0gUKULBQEVraz+C0m+apRoThcXwZM4sVpaTMJyUt5y9g/sypbGzeke23/HGLVsQj8DLbJs+nXuvDXPOJMiz+ZmEgZ/LkbO5pL5wkBKmkSre5Ad6cm1KfTq1bMvWmIhmJF3Ph2daJdJX5b+xLkZ7zmH5PvMwEbifYOblJUhnlq40nbuV4ynev3E6yZXwDCqqxJ5XbxnE1folDkQ4XWN52B1umzmHOrPoUKVWfimMPcuvtFQ6PmcXk/ioOBauELiYQ1+Md6bV2Kv1WLGSTWgsqanFCxYj+S5nzQgagktcHa7GrW4Q///47fv/nHJRr1oUN930UqX3GkaFTmDJ4rxYP9Nkb+nA6i/rocUP9t2h3Jm9/jtY9VSomyJ0Ph9rTffUKRu/cxPGpRahU0lC2WIspTD7j9lmypUPmuI2cWe6ret+tiTF60iZ9t6a+1P2nkTOvw4xp3oHvSsznsIeZviVE4PvsPk6OngSqdfj+rpEUz/MT//2b7/k2Sz5aj1vD1ZeuvLwwn/Y79jF7di+m1ClCiaZ9mHzsFa/OL8F+6mJGHXbULhf16SqH2zVm7foN7Fm7islqjms5R9FitJp9kIspPmLzuTmOaV2Mfl+iOkX6bWX5yu6MWWtPzzM+xMhMD7rBxq7jmKzWVVmWTUdhIGe+6l9y9D2XB7dnUd8ZnPEwjXV+PF81iuUterD7kSI22rEg3m2dyegihY05kazdQxm7/JWKUsnhd3cVSzok5RFFig5j1NIXSTeglM29Lgxh6+FBzFi9lnkqRlRT5QZsvsP9WzvZsr47Lbae5/j6ZgxtYbxGuWbUmn6OZ/5J8z3B7w7Xl5WmbkVjGa2tClSpO4tdTxTp1Eq58urwVqY3mMTaBTNp36mJsVw9ajY5ymWPGHxejGdmZ0P9omVrUGLRJS5/MvWJGOJe72FYFxX7jO0Ur1Sb/rte8N7kzTJzkPmdnp+nhS/h5zZylgF8CUV/TXImd1c8X5zi0vQ/8eOAYfS/pQ6G3uPK3Or8MY9Kgjt3Y+rKucydO5kJfRuQr3B9qrSaxOxRK1g/bx7zpo9gVMsClKkykUl7HNUyrXQS9o6n+wbRaWQr2o6fpv3Y7ty5U5nZsyuV6k5l7JbnKo1Rbfu/4P6OjoxUSfuA4VJGycQhdK+Sn9KT1rHldTQhb29zamgbWv7tz1Sr2ZH+m89w5GMoIU5nOWpXiT4NujFomrHu3ClM71GNPxYuTeWp+9Fu1EephG93ewoUzce3dVoyZvlc5s2dzdzRLSlfshKFGw9k3MCVbJo3l4XqGnN6laNq+U50mfVMSxQSYm+wu0xWKv3pO8rWH8WICfOYr8rNG9aQShU70HTcZaMzK0UGv+bsnots2v+OT3LoMyhn9rjL3oW9KJOrIj/m68joNZu5/jGYqNCbrGvQjmZFZnBcTYHw2NvsLfMTFf5UkGrNlzBP9W++6vfI5r9Qo0IVmtiPYvqqTSxcIuMeQbeyFalfYySbnoWjdSfsBdvmTqdt476MGKfrZyZDezWkcu/eDD3z2pgYfuTm0tmMadyTDuPnMlsrN5wOFcrQovlEzjpHE+P5gD1Le1E2d2WtzyNVu9LnkJc7mT2xHVU79WKCVs/YRqPClC5ek/ZbXuCiPWl14krPSjT6v3+hRIUpjJ26kKWq7LTu6ljZotTu0Ydxy9ezYLlKtJUNhzSrTc2C7Zl5ygV3yZHeb2B2t8J8k70U2bp2YIQiNdLWhN6KmDdrRLtjz3mVgdfObeTsK5CzSEeebBtFi2/yUbx8U9p36c6QeZs5ZVjVkyMumMAXB1k/shYFFPnK22Q0i7fc4rGzC4/X5ad5jZ8oVXeiihFzWbpwKSeffeK9SuDt+uQl28rXeMco3UReZGWdSuT9Y2Xqjl/LivlLmDtrBjN7V6J+xQbUsb/NM+PT1pDbc5imjheubc/E2TJ3ZzBtQjMa5vobRf6Wh7HHP+EkNwgi3nL/9CXWbH6GQ2hsssQoOTJCzlQydrgFAweVo/ZONwLldnDwE9ZOm0SbJv0ZPUnik/RlKgO61Kbq0DFMfhSi0jNlN/+7rB05iSaNBjFU97dJdjQpbUevwSd4qt3MUNf7eIwVfVpToUxDWo6YoWLHPOZO6UizsqWw67ucG58iCHq6meE/VyRX6fa0WDyfuQvXsvTEYxydjrKwWltalJ3FSbVOxMb6825tHkqW/hv/XbEpg8bPYIGKRXPn2tOuXEWadV7IcXf5TvAW2+Z0oWjWymQt2o3xG3ZyxyWQKJ9zLKzYilaV5nNWxePYOB8+nhjHoJ41qNfTnmnaOKYxtUNdKlfuS+9lt/mohhod4saLlTkoUjwrOZp3Z+UmZfMFUnYg7QuXUzqYxsH3yqc0jSaHzHEbObPcV/W+WxNj9KRN+m5Nfan7TyNnEa5cWNydenmyULR2Wzp1607P1Wc4bu5rjjhfXB7sYGLX+nz/l1pUaDGMdSdu8sHpDXdWNuDHCgWo0rWfNhcXbNjL6ScfeL+vN6Vb9aXuckOiG+1+gOU//ZFiOerTpvcGtqg5Pk/Flrn96vBL+Z60nHuHj5p5lN84HGR8s/pUrNSR4eILC+YzeXRvGpb9D/6nXDVKbHMkSnaBjPzInZ0nOH3kKa4ppqaBnMktb9H7Q/ZWykbvku3Z/FFa0OHBjaF1GPhdYeZeVWRUnfG4PIWFg5rStds0Zms+PZexzYtTvmNP+l/1NT5l9+LN4nHMa9eSPuNnGvMDJX070bj6GHqoPMnJaG73/dXpXu8PFKw+kmnDZrNYlTtw14kP16YzsdV/8psSVRg8Zyrr1ss1pjG8fT2q5WzM5D0vcZTG/G5wesMgarRvQe8Jet44lyn9m1AnXy4qjNzDcS2oqvVg1SBqfZODfFV60HHaQkM5+440ylWYuk1aMn7JRFZulPpTmNinAQVL1WPk+ht8EIXEuuN8YQ32TYbQrOckpmjtzGb6mA50K9+MiSsv8NDMSx46ZH6n5+dp4Uv4uY2cZQBfQtFflZypueX58hzXFmSjwKgJjLynDkY+5uas2mT5bSGqTrnKS33+Oe1mbsk/8EPOLgzZ52d03hDirk6m3I+9qT3oNn5EEvziEEuq1aLRnHNc1sroeMHSbjUp120Sq92C8H62jZVl/0Czifu4ZCwh4STkwVjG7d3HjjeG0BLtsp8NebMxedZZXmlH4hU5u8RRNcH2n3qtPcFJRNwlJpf6GzXrDuGg3EyK88Zrf3fKfasW+ZZrOJF48/4xW1rn4Od/lKPRlLcqWBnhso6eZTuRu8ohVULC3T2O1CpEsb8Wot7Ea3wwlFLXfcNm+yaUVMF+2C0/gixZyz8dZmCdUZRoes74bYZC+FU2tO5Jp8oLOavWl8jYexytVYAif61Bi1nvjXe6FB7ZY1cwG/+ZfwCLDcpQiOPtjAb0L1GKXseC8YuOJ+LBCHq1b0u9qc+T6grcN7G4V3WK263nhnMw8cHHGV2hBeUqrOWpsYgg6OBijigiesFFLdpyIPAI9vXGUbzJWeN3cvEkvN7L4k17mX8tBTN6NZNRHcvwj77HuBskNnTn9uB61PltHkq1P8NDfcXwWsv85rn55n/q0vfYJ+NdMRV4jo9lRuF/0HLJPR7LQY9dLG6Rn9/9sTaVN75M+kD70zH2j6lGviYLWX/TN91d8Gzk7F9PzuQFmnCPB1wZ0ZMBVX7kv7/5hm+++Qv5Wo9RJH0Wc5Yu48TDj5iEJLg7hZYDRtNoo9E7Yn15u7kkFfNkpUTvk7w2HNUQfMaObkPKUHTjO3zFNFHX2dwqL3n+WooWGxyS/NpnP5u6daFI9jnsdwwlPsyB3b2bUbpeL4Y8T4rd4Q8XMb7C92TPVYqJp71xTecuanJkjJwFnGlPl6GlKbTJEd/QMCJu29OhdWeaL3iroqcJ3i1mYqd6lOt7gieeASouzqBajl4U6/zM5DVGPx6t3MKmuad5LnfUY3xx2taY+lUbUnX4ZZObFp+4v3I8y6et5pZ3DIHPNzKx8O/4R80RzHhjLCIIucCSul3oVHsR51TgiI0LwGFrKarl/zs/t17AgURSHY376j70KdGUWtM/4CrTMuAAXSqNp1Ln60YfVQbxO6Ou15WuDVdzPTqOsE9X2d6kEOXqqwTuocma6XWQifWLUKGOPducITREEe/Nxan8y3cU7rKCW4njiOLD1OrYVa5I84OfCEyuWg0yx23kzEbOTBHpdIYz89vQpsz3Kv6oGPS7AuS2G820GXOYv2oLh575EphoMh+Czi/RYsWIHR6GQ5GveLS4MXn+Ow+Npl7G8IxMEIDPiUFU7jiMVusNjhTjdYx1BbKS+4c29NrobrhZKgi7wLjylahRcwqnw5UHhb/m8ejK1Cthz5CtymbGYnzcwtRGP/DXIo2ovseR8HRMmZycPeVwg6IMrdGLXU6STenw4s74lozOW4UV9yJU1PDgSvfctKzbltmJSYiC+1rW75vNlOsqv0tQ89D/LJNkZ8uu67mdzKwvODjCjlqVB7JaBZkQ1VDg6Wa0LP5ncjTZwjUT94l+Mp1pzf+LbwvXZcaVkMQbKrGP1rC88t8oNXofRzzVIP1ucf7QWobvUfHEWMaA+1yaVorvmkxjxnXJZvx4ubEHDf74O3K3XMJpo4kIvMwR+yz8zz8K0GbFw6RdNh22Mivrn+jeby1XVT+j3I5zanw5arTazkHTsSudvB/ZhLpVJjBsv5v2oMEcZH6n5+dp4Uv4uY2cZQBfQtGZIWeCuOjIdBVlETkLv8PVue3J/stMpp/wMJIwVdbjipr8Oeg0bRUqZhgQ40XErWVq8R5F49EPVILsh8vp5bT7qS/Dxm/l8LmznD0rco5zZ0+yc1QO8rdrSPWTLvi93M/uKrmpVn8AI7ef4/yle9x9HpLYngEx+D/bzLJcPzN64gFum0uWwpxwun9Oa+P08SUq6chCz9bjOSrxKsYDjwN9KFXAnvaznyURuVg3To8vSce+fZgnLEyH61761x5G4XpHea7+jI+/w4Eq+bCrMZiV7wxFBOKS4dfsGTWiNDnn3eR1YEYnqqrpsJNe1e0p0uBg4gYn6mJsNCFn4dF3OSjt1hzCqvfGMhJ8Vf/61hpCUVU3iUzF8mZLG8Z0q8yQc+HadzOuO8rTb2ADeqy4wHlTG1zYyGy75lT8oTsrb3oR5XudWe0bk7doJybtVvq7cJUbHwOSEzoJ8U676FNL6aX+Ae5HqQXYeCYRoU7cunpR2fgs5zYMpVunluQddpZHErVx42qvGvTIU4uxFwLx0Q0cdoV1g0aRteAGjrgmvegurzgu7pqHLpse8lQipOsmZnZoRbYKWzkphNJQTCEA93PLGfJTYyYuv83bdPzdRs7+9eRMPrw2fGukgvnLzcwe1JDy5cpRtnQJihfJzg8qUSrcaChr7vsZyXk4EZfG0KTnYOose4JEw4SIT7zZWIJKap423uSQlOwoBJzuSPdk5OwaqxqXoXXlXuxVSb4kAsEBKhCE3+LChJF0KjCWXY88CX27ifY1hlKux+UUiYAL16a1pJMiWNNPeuAojSVk1OYZJGen29NZ9bnwFmc8/T/hvLkEPQa1ot/q5L56/swKJjZoRI2sI9j02Auvp8vpX6wRJcpOY92585y/eouX3smvHRv0kGO9ctN76GQWP4oj0F9/3ckUYYQ83cCoAvm0hOV64l1iNTcCz7O0XtckcqbI3odNxSnXvjkttqbYjS7iCst7DqVAkXUqQfInwX0XncoPp1y7U8ZNg5T2/c6yVMhZ4w3cCgvB5/5G+uTuweBJV5JudGmIxmmHHSMGtqLXGdmkypWPm4tRtn1LWii2ZtpuwOk2dBpajuIb3+KbjM0aIHPcRs4s91W979bEGD1p+1rkTODr/Skdm4cT9nAznVvXp0K5spQtVZIi+f7Bd7//hnyd5rH7sb/h5kiCCy6HZ1Mw62QGrn1luOkX8pQHKzqRN98ERux0TIpB0b58Om5PlU5J5CzK7bBGztp3XMhunThoeM6JxkUZXr0vB/0S8Ht/gCV5f2HIoI3cSPadVxjv19ahVvuaVNzhiP5ZdmqwlJwtvxeuIpUL9/pXo2XByrSYe5gT565w+aY73qaPohOCiLu3hNqd7ak0fD2nE2OTkvMX2Dy2Jm1q5cZupysuqv9hpxrTomMZyi54jKdJnyPujmdSv6xkH36Ma15JJ2I/HmLX1J/4cdw61r9MOecDePdUkTVp68AKlgxvwD/aL2XxHUlevXm8dgDtfizM0OWXea/HAP8H3NnYjdzdVrLgpn5bLoFQh32syfczI4Zs4bY6EnB3BWsa/0DPyctYf1TyRsOYzp07yrlV/fjlb92o0uOiCQFPDpnf6fl5WvgSfv5vTc6kckZEb0w3lLkyqYk+OJ2cLV68WHM0QfKyCVrZuKhAgnxdcXN11T7yFnHz8iUwzNC2bLKRvJ6hDWkl6NIghg8tSN7ld3nlL4oxXFM26BBydnW+ImcjxzPyjiodeJPLKhDl6Lia5beT3j4Oc73IwUGKnE1dyS6dMER5EHp9CVXzj6TJ2EeEJrjzevcQcv89O9//Iwe58+QmV65cBsmdhzw5vufHRgPpdD6A+GBXPPbb06RSPrLlzEG2f5SkUIH5bH3ggpdfBOGRqv9q0fZ5spElubIwcvw+bmiRUukiNopwf2/8vT9yZ5s9/WvkUNeXNn7mH7/7L2p3n8FJ8c9wF9wO9qVk+8n0Up3Wp0RclDMnxypy1qc3cx+ILuSoUoYiIf1qD6FI/SMqzMUTE3uTPZXzMqT5GA5p7yqqgqpwtFzo+SrmjGtHjsFHuOllCNfmbJAo0obcjfqwnZ7VB6k29vNQXUezUOgVNrTuocjZAk4HxRMSeZt9qt3BzcdyUH9HUuqq/vWuOViRswM8TtycIIqXm1ozqms1him9fgp249GsCjTI9We+z56XPKIXow3EHjmy5KVwyeFsehJERFw0DgeHMajKz2TLkYOcP//E/9jNYuoVZ3yCQgiOlTmk2v24g16KKBZWfb4bqeabNKvqRoT44+t6l6trh1KkcH5yKIfPk+0Hvs1ZiV9GnOWp9uW+Cxd6VGNo0QasfBiLv573BF1kzcARZCu4jkNOIYZrKrhfnMbCLkLOHvBYWOL79Uwb2Ync9ie442lYfA2/9xmD9701LMz6M6OmHuWOLHDqRIKSlLoXyJa7OjmTxEjzDSUpy5oT3c8loFrq5yJ6MJf/CiIiIpg9e7bWl3Xr1mn9EJirqwdEEemHuTJpiVxbbvpIwqoHVf2cQK67ZcsWatSooZEz075I2zLmSGXzWFU3LjJI+ZxHYvxxdXPnU6AiVIqBfa531Y66lMGu6h8JUUSEBROoFhZ/X288HY+xsUZhCvz2H5Rtu5ZzAVI+gshLo2ncw57aix9oN1Piw714vb44FQd1oNVRiUeG/kk3/U51pNtgRc42vME7Us218Essb9iRLrUXcM4fLdkK8PEhIeQGZ8cPp1Oh8Wy/q2LCtck066YI4OInxjukegwI4MmiHozLXozZx11xELeOT8/mhnmklj0ezu+q1Z1zytNAzuIMNpdyUkQrdbw1vYaUo9JuJ9x93nB3YnFq5PgrP+RQvqrHSs1XcylfLUjpyjPY8z6UiBgHbgy1o9U/spMjZzayZf+ZamN3ceSlD/4hYUSpNsK9TrOpeDaG9VigkVPZ+CchTmyuGk5EAIGPtjAifxuGjjrOE+mXdl512P+s8cnZQs6qpShaEeO3GxRJGtyN9ieNrx2owobyTzk6bDBtCkxg9zMvwh120bmCIrztTmo3tjTt+5w2PDlrspE7fl64nJ5P6ezj6LHwiWbbpGupf96dybDpfSi1VdnHwxGnzcUpY98dO61dQyEp63uiNR0Hl6PERmVz7RXVpPksdhB9y1wXomI61zMiX9LPU54TuLm5JZKzo0ePasf0Pkrbup9b07Zcx5Cof9KuZcnYk/zcsL24uTJpSWb6LpB4qJMzyYcEn/df5kqccqkQAr08cNdzIA81r7yDcHb3JCQ0JEU9VUe7mhFqLQsNCSLQ31/FIB8c721jQdM/kP0vf6DmmO1ckZusCU44HZqpyNlE+q82vnni/4i767uQx24R0y8YGJd23QhvvI4Zydm6V/I+CWHOB1mryNnQAWs4L5VVf6R0QsITjjZSxKlmfw65ReB+exPDcrVh2MTTPNeKqBxOrqngfbgxLQdVp8JWB4K1HUDM21LGKom6kDOVFam/H3NIkbMhipzt/Kj8V7ug/J8nt8e3UOSsIktuRuCn2op9uJIpHUqSJUdOcmTPyQ9/6MfYdQ9w8FXrfpiyqSKe3sfVelkhK39UuVweFY/02CS5XK4cP5GvUj3sj37iU0QCQUcb0nxgTSpvdyREXjE3thx6YwwThuUl58LrPPIxjEUQqcjpzilZ+Gm8ImcvJFiqNiNDtJzO88IyOjauSDaVT+TOkZWff8rGbxotZPUjUagrD1ZNpkOWLkzbehcnnYH63OXmuq7k7rqc+df152YxBL7bzap8WVX+u407Smeep2cz+k//TQ51zexqHLkTx6Ryl9zZ+eHvXeg59T4uSrei35Q5ncxv3c+t9RVrOYOI9MlfzV/xc6n/uZ+YF20sSnzUeqiTs+fPDZHaXHlzovt5ZuKjtTFGl2/kAhkVCSwi5s6lJdJRwcqVK6lSpQrz589PZMOm5aKiZVcciQ9LWW1v8sG4ErtxKznnqpi4UlZsdPLrJ9ZV8c/3XH+G2Ocnz+KbPPVSi6bsBqjqhEQm4Pb8DBfnZOOXYWMYdkP1yfsq55d1IHu3FSy96a65koS4AIfT7O6bnfbjl7D1pSGoEulO4JWFVMk3jMZjHvIp8gGX5rQhy9870n7SNo5eucz5M2c4q+TMmbOcu3SD64/f89o7nOgotQgGOfHswQ1uXD3IZpWAN/7mW7LnK0yxkmOYsv4t8vKk18N1LMqZheFjdnFFyw/CCfxwih31q1K/eGHy1m1Lg9m7uXjlHJdOL2FckZ/p2nIM+1UMjQ90wHFvL4p3nkDPXa8VjVETWf0vIvgdR0cVp12P7sy4oXQlCo5T2f27bYr8DKJQ3YM8UMlFWPhVdlbMw+BmozjgphLZaJWgimNKQHi2ntmjO5Kz3z4uu6hEQF03OoX+k0m0Wliiw+DtFkXOBqo29nInSnYRUjoPuMCall2xqziX4z6R+AdfZ1fF3NhLu66qXSFisYqZvtuq1S1cT9WNiFbplDhcMI/XtmR4p2oMOeuGs9ctjjUqSIOiTem95hxnz5/j4rmzSv/KDucucOLMBc5efoCLnyR8qs8BH3B8dosbZw9wdH5nchXMy19yFaF40960Ofgeb/kdkY/b6F5tkCJn+7irIn6MSrQjH65net8q2gYppUp2Y9Dqoxy+coWrG4fQrWML8gw+zh1fuS3vwJmuVRharCGrHkTjq+KwBDy8T7Gi72B+zr+SPW99lVUF8Tiemcy8jrnptO429+S7gFermTyqI3lGqOt5yrMU0bOk/OG431qhyNnfGTZhH1cl24uVoPe57gWyiPXp04fatWtz6NAhzf/0QJkRsdbPddHrin9L4jhjxgytL3KnWPoiwS5lHV0y07b4uQRz2ZFLtlaX4Kqfk2And5s3bNhAtWrVmDJliqYT075o7UarwBoRTNCdpYxTttTjT5FS5bBbco7r7mp+KhKTXPcqWVP+Eq2uFxsTTcxnOx2GE/LhGKtqFKRenuZMuB5KoCJvEedH0LDbAGouuKO9lhgX5smLtSUoP8iOloc9NP/TdntVPut5zI4uA0tReM1z3ELUDAo6x5L6XelYazEnP8URHBOHj1rEov2vcHz0EOwKjmXLTQccLoylSc+B1Fn2AH9FXmLjVDyMknjszcMF3RmXrSgzjzgZdraNSU/vhnFKAnR3TmdGS91jLoafLEmsqxa0WOXrylefrqrHRPtGzH4ciofbRfZUz03dMu0ZuOECF8+f1e4Wi6+eOXuei1dvce+JIx7B6hqxUYQ6vuT1netcObKRdYrg5cyTnawFilO9+yTWPlcLtvNxNhXOztDOc9nrCJ+8PImKCFd2EduoeCHdjPfG+95Ghv3SgcEjjnFf+WOMWiTi40KJ8zrJwlod6VhnIWeUP4WHePByTVFK23el7fFPyr8U6ZAFWi4U+5CjQwfSocBItt1zJeD1NjqUs6dc22M8k2aUfeM9T7Cwdic6N17LDS8XPhybRRFFzroseKg0rdqNFiJjsKX/me50GV6Lohs/qoRb6X5jcUoN6ka7YyrRkh3hVKIdo+zpfqgFdgMUOVunbB4UpRoyLPgiMrflCbnMdT8/v0TCYYlkxtdEUqsrcHR0ZOzYsVSvXp2DBw9qx0z9MTNty1jlrrg8nRMdmF43I/Ilxm1NfYk1cuNMyFmWLFlYtmzZZ3rRRO6IxilS9Ww3c5vUoKIeg8o1ptKYwxx/8pGwyFCVB5naXHzTEM9k3n4egyLwvLueRS3+Rvb29gy7pdarWAc+7ptGgZ/H0WfFY8Or0V4q8V/Tidxd5jPtvJOa22rOSneC3XE/PJAqHYfRQhE5ZQWVm+xlZf6fGdp/JWfU+hUfIzsIqn5E3mV/gyIMUuRsn2MQjlfXMSh3R4ZNPsdTtZzFKV+IVf2Tn8lxO9CIFoOqUW7TG22XVdM5bipJNvdW/YlQMewe++oVZlC1Hmx7D2FKZ/Fyc0YRmutjmzMiT3nmX1RrgTwhi/mE89tH3Lp+imPbJ9H7T9ko8EM+CpXoQMcht3n06R0PN5WhTJ2q1Bi9jZOXL3BOnp5pudwZlctd5fqD53zwiSFC9cV1T12aDKxBJdWwv9ZniXcqb70yirFD85JjwSXueUjD2he0hL3aw46JWfh57FrWyrczfjc4tagtJYupHDdnPVqPWMOmy1e4clDlocPq81Pbhcy/JneqHbizfBJ2WXoxdcttPui7ZLpf5/LKDuTqsJDZF52VzgVheL/YzrK8PzNk8BZuhQTzZG1vOvz1R9qPXMvm01e4fN4wHslPz5y/zPUbL3nn6E+wmn8yB+XnVMzp/mv4ioj0SQiW+LlcI6N+LuVkbZcbV/b29hohffTokaYlc+VTk8z0XSQzdUW+kWQpo6JXMncuLZGAIdCfnC1cuFBbUASm5WLVoh6nErpw12vcPDRfI3G6bD1+jVe+KuiocvGyDbJJPa1unHJO5SABFwYwbEgB8iy9zQvtvTLDHYAw5UPuL85yeV428g8fy/Bb4iTXubi8Izm6CDnzVI5tQLDTWfb2y4HdhKVs17cjjPIg6NoiqvwyQntyFhDznBsLu/PDt0MYcyit39ZXC7x+x0OH9ysebVjB8vn96fhdHrq2Xsw1FVw+PdrAkmxZGDV2LzclWUpw4t3hWdT4fV3qthnJnAPXuZD4ce89tlbNQ4/GIzig/DghxAmX/b0p0VHI2Ru5Nyx0hugwB46NLkH7nj2ZdVvpSjw5XgUOhx30qWWvyM9hHivSFBV1gz2V8tKl7nA2yHNu2Zpf6U00GHt3DBNGliXLpAs80t4HkO39P7dBoogt4lTG9nYzXavZU6D+AR7KMQlVwZdY16o7HSrN46R/DEFhN1W7eRQ5G6195yEEGxV85ambkEchZ/eUAg0zKEzxxFaM6FyNoee8cfd5yoUueSjXrC9DJUsyC6VI2Y7fEMGSEOHAxUNbWDWvH02qtuavtfZyyU0xYs9d9Kg2mAINDiPuHBPvzoultejQrCx1Bq1g7bY7SbsmfpzHzBHlyT3kBHf8JClx4lz3qtqTsxUqExRyphiKmmdnWdV/qEouV7HvQ4D2Cpro0OXcFOZ3yk3nDfd4KGTcYR1TO7UjZ+29XPGQR6fy5FQ6HoTHxdWM+aEqo+dd5IlcQC1isWb8QCBPj/r27UudOnU4cuSIYcGWJD9F2dREfFwCnLlz6YkeQOW/AklGZs2apfVl7dq16fZF6klQk8XY3Pm0RK4td9QlmEsfJEDr54QoSiK3adMmLWGcOnVq4h0qOS9ltb4r4iI/rxHhdI2Tu1ckxaBFS9h+9S0fA+UOoyJhmu7lvyIBOBxdyYaeI1l/TRECZYYERYIMbcu8F8TwfmEdhtQtQ+9jofiHhBJ9cTgNeynitPyhdtc6XpGzl+uKU0HI2REvzf9k/sjc9T7Rga6DSlNk3Ss8w5VuQy+wrEEXOtVayCnveMJUIT9vb2IDr3JyzFDsCoxl+z0X/J4spXnNIVTof0PbvEee+hnmlDu3ZrejZ/ZiTD/manit0fj0K3VRY5U+Kbpxf24XxihyNvuEO44y9bWbBaq+iuFyV53gG0xt2ZmmrRchT3rDA29xoMXPlGw3iolp/uihrAHGfxqR4HGTI9tXsmJEY6o2aU3lpfd57nSdo11y02/oZFa/jMdfnqLEyKKcdFdepUv4P9ikyFk7jZzJN6Bx8oRBxZd4n9MsrtNZe61RyFmkPLVcV4wyndvQerdskaRGoeaGupwy3U3W9BlC0XwLOeTgRZTDFtqUHULp9obXGhNU4pvw6aR2vS6N1nI9wBe3aytpn70vg6ff1H7zLl7NB1GdzIaPW+vRv1cF2h8J5dMnVz5sLEZpRc7aH1c0Tn4LSQ0gTtnT60hLOgwqR8kNyubyZF7FZN0W+nyVuS43Y2TuJ7dV+vKl/DzlOYGLiwvjxo3TnlIfPnxYO2bqj3p903oZFRmr3ITx9FSEXF3H9Lrpia43a2OMKQk2dz4tkVgjMUh/crZixYrP9KKJ8s+E+DDCPB5xaeMqlukxaOkGlh57yr33roSGhxjW58QY5M/7w5OYvHgOMx+oc2oSyZwzXNO4uU/sJ56vzEfO7p1ocUKRs3hHnPZPJ8/Pk+irCJf2LpPPA26v60zuTkLOXFQ9FX9U5fgwLzyPDtKenLVc80JFszhCHPezWp6c9V/FGZXOJag5q+1MHfOAgw2LYl9DkTMvNUefb2dmtiKMGLmDezI9VL+VKlTZSBw3N6B+5+qU3/qeALkRaTLHTSXJ5j6qP9Eqht1nb61CDKvRh/3Gm7ry0xRqUebs8Pp0y1uR+ZcC8DJMRxP44XJsO7tWTMe+Ykla5e/Bxtuvube1GaVL9aD1ouQvf3+G2ChcFDlrppGzDwTKT4DImxTqVNC10YwbloecCy5zX2vYcDzizT52TPqZn8dvYNOHGMJuTGF2hxyUsBvP2DlHuPVBkj2F2Mc8WFOW3B1nMvuq5MdO3Fs5WZGz7kzZcgcH+TZH4HWLq6s7KhstYs5lN4NtlS79Xu9keb6sKv/dyp2oSF5v7Eufv/5M/42vUn11URBvRt+66H5qja+IWOsrIjKvhScIyZL2M+rnUk58TR4A6U/Onj41fBxjrrw50f3cXHxLT6R9vb61ehPJ8DdnAumoNCaJjjXI0DdnaVw7Pjr9dzj1b87yZuSbs6DbXFnViRxdV7PibtKWRhFuFzkwIAcdJq9gl4PxoLzWeENeaxxFk9H3CVXplOfV5bQpVpjS/bdyVDKfRETgcWADR7ac4pYQELeH3Fq2lCNXPpDs1WyuM6NYZdo2XYTiTQS93ceGyj8yaOYhZDNJeMPjFfb87s8jGXfK5B3zeCceTWpHnW9/R40OM7goqox0w/1QX0p2nkzvvR+MDqvUGe3MibElsevdmzn39aNKh8676Vd7KEXqH9NezUlIuMvhmgUpm6Ui7ZY/N9mF0ZUTU5pQpWE9Op5xw8dwYzQDUAp3289IFTyr19mV9N1YpGwIIq81Gr45C4u+y/7KeRnaYiyHExtViYjTTkUe5ZXIfTwyxiR5HenVxjaM7qII0Llg/COC8TzWnQq1ipBnxC6ck00NpaNjO5g9/yKv/NVCFPmW07uOsPbAK5WymSB6D8uHNOav9Q5wxUuVCzvOuJoDqKYIkuE7uY9cGZKFaj37Md40woU85NikohQvnJV8Yy/xSvu9Mjcu9qjOMHmt8UEM/jopD5bXGoeTteBaDjqFagFb4HFxGos6y2uNjwzfnLnvYGHzEvzpr3a0O+RI4owMvsq56c0oUXkyy5QNkvXfDDLzzZlAD0jW+LnUk/oSoATyb0u/OZOglp6fp4bMf3MWoeqm1bZKAj5TSxiuByYwOufvyVF3MGseByf6XyLiX7O5fysatBjE2rdxRMWoOHp3Bg2bDqPKpGfqCgpx3rzbUIwK9h1pfVz/lsCAZN+cyZ31yCusbNSNLrWXcE6RC6HCAX6+JIRc5+y4EXTIP4ZdzwKIDHzCinatKVFvHPOFcxgR57CNBQ1yUTBnSSad/oSLkLMMQ36EugsTcpVi+c0Y7Xu5ZIj7wN0ZLShd0J7msx0Mr/XFf8JhR1uKVC9J0YlHksfBmJfcOrCHFetf8DE0XIXay+xbd449500CuODRBCb0aUjFJa9w8HPhw6aaNKrfm7aLnJM2RFGIfn2YK6f2ctnZG59HOxhXqANDR51MikESX0y+OZPXGmNi/PmwuSRVSuQkf+8tXDZp2v/gWAaUa0WZAfd5rXwL770MLDuA+q2PGTduUtcL0DcEWcP16BhCXM+yWo21VsvZrNbXEEHoVVZ0KE3dRr1ZpUhqcIA77zcUocyQHtidSu7Z8lpop8HlKbVZ2dxM3JU5LnPdmm/O9LdWvpSfp0Ra35wJxM8zk0tk9psza2OM6DwzeZDUTf+bM6FEqcPP7DdnIbjs70btSj/xTduFHDbHMfxvsc2uJNUHzmTxO7GbJ16n5lPjp+GMXPtOXs5V8/MJDzZ2IU/nRcy4bPLz8lGm35wZtiqKcDV8czZ84BouaO9E6njCkUbFGFqjL3uVY0YEPOR6t2I0rTyG6ae17zUM8DnBqo65yFKmPlV3fyT885CdDMm/OfvA2c4FaFauEcOvmziHy2pmNviJgvlrsvBOuMrS/Pi4dyMHVS52L1k48eXckI40ztGFba/U2F5sY0TuqhSoPI81yfbXj8X96l72LV/HTWdle2Vz38P1aW5fk8o7nQgzmf7ht8YycUReci6+zmOTgBT9/oCBnE3azA7XKIL22dG7aT4angnXbn4b8AnHQ/1pXvE3/LHZbNZoW9K68mj1VDpk6cHULXdRzRvge4+bQqC7LGVe4muN8jt2e7TXGkcM3cpNpaKQR5tYXy0fhWrNYOVdIwE0IubtRjYfPMThZ4GJ+UhKyPzW/dzcepoRZMZXBL/2b86s1ZvgV7MhiD5J0lNU8IVeDOyfjZ8W3eGVlhUYoJGzF6e5POuvZLUfwSD5YjLwBheWtOLbtktZdCvJIyNczrK7+7e0GLOIrfrmGFHuhF2dR+mf7ak16LrhLnTQU24uqk+1eo1oMX4jJ06e5KTIkTlMrlSeLnZz2ekRjf/bQ+yuq4JTfXtGbzrJqVOnOHV6H0fmjlL6WID96tfa9yDRPrc5Nzof9Tv3ZMi2+9x3ecfbE4tpXL4ZTQYvYYvUO3VMkb6JTCxeguLf/YZ8dkNZIfumRrjgvq8rsjtcpx3vEoN7QrQjR4fnp3nnzkyV7+w0KHd03EbXCv3IWeWQRkK03RrrFKXiX36gdIMpLNip+qnGcmrdeJrX6E6tfnu14KbdFY/w4PndV1y/5/V5YpYIVS78Ibt7tKdN/raM33uFO85BhIdcZX2TjrQqMYuTqnJo9C12lfiRfvWGsi/xAaQaz8ctdCnXi1zVdnM/MXpE82J1Iwa3KUmvY/6Gb7oCb7HEvjrFylel+5KTHNZtsHYcfWq2oUKL7Yp0Ke0GX2FeVzuKlOvJmO0nOa7p8jT757XCbmRz2p5wMjzpin/G/p4qOc7XTuvzLcf3PNzckRZtG1Fj3A5On5Z6Jzm6ZhS9G+fhp7+X4O+ttnLZO1rpxo0LHcvQP1c1ltyNwU8P3EFnWdZzAH/Jtpw9H+WupgHuZ8czu/WPtFlzj0eiSNfdLOtVhP/KVpTv+4xj8b7j2lh2LuyDXaca1N58i7uGB85pIjPkTPdz8TdroPtpZshZRvw8NWSenFlJDINecmNdJ+pWzEvzfvNZf8Q4D0WUz57cuwi7lgvpMeGecWMO1Yb7QYZW6kKhouNYe/U2r1ycebqqACX7tqTh4aSbRQL/4y1p37cAuVa/wUcef0deYHGNdrSpMA/J6XVyRsgVTg4bSIufBrLxcajmn74nhzKwUwWK9F7JrmPSpyNsm9eG5rn/yi+5iyty5mPYrTHaA8dnr7l03RVvFTBTt4Afj+d1YtDvv6fjpO1sPKp84sQRjp88pa59kEMr+9OrfHnsRmzgeCILU1fzvMTMXuUpUqku/Ved5JhRPyeWDaVjlU7U7HJWze9AQl+uxr56E8rWnMBKdU1DvDzA0pEN6D3CnrVPE7RXSBNerGN0015UrDmROfv2Kj1L+wdYN64hQ8YMZ/UjDzzvb2FEjhb0sz+qPQk3QM3NgNPMr9yWVhXncErFtdi4QBy2lqZmyW/5n0qtGbbysDGer2R2w+p0bzqadS/jpaaKf3fZ2rYVrYp2YeKhmzx0VyRYnsRVaUvbqou4oHQZE+PGs40daNGqNg3HruSAdq2DHJjcjhqlW9NszEmeqXgTFezCi5U5KdDXjmbHkju3z+GGtOpTlF/WKpt/YXImc1wnZ9ZA9/PUko+0yNmXyCX+XTcESdPmwY/YOc2OkhUq02bwBnYeNviXQQ6zb/FChtRWPrXpkfbzOWr1JejpLiYXq077NtNYc/c1Dg73uL26LVnazGHieZNbKFE+eB3uTclW/Wmw0nBLIsJ5Hyuy/oUBPZdxJhnxecj+GrnpV7YjW7TtTCOJfLSCXlWaULnRVNZLf04fY++ifjQp8wf+p0wTquyRrfSVPmN8cLj9hGePXPBPMbUM5EzP00JwONiPznVKUazFbDbKNZX/X9xpR5fifyJntgrMvRNBUIIzd4c3UsdqYzfjAIeN6/7pHdPp2mQ8dfpc5ZUW6Vx5MsaORoWrU2bIBg7peju+iCmtK9KuXg+2P4khRBX1O1CFur3LUWKLY7IfiQ+/PpRRA3/iu7lXeGASvqPf7mbz6D/z51Fr2OAQQ/Rtdc3e5SnUdR6r9hrj256lzOxXidy5cvBN4ZFMP++psh13HiwbR4v/sWP8hts46VNd5YnXVrTm+zbzmX4liZwFvd3Okp/+zMB+a7moxXNH3h4YTaMStajTex7r9DEd2MiCEcWo0GsEk055GGKaGcj8Ts/P08KX8PNfOzmzKpcw4v+7rfRDb45l8sRKlNv4mPcmd3Oi5LuNV5e4vbI4FafOZoqs1MEPuLm5PyUHbWbjw6SFMdLjGsdHl6Tv3I0cND4tSYjyJPzuWppWmErHKfeM25cqqhL5gWuLmtG2lGzUkVubCPKBe93RWzj6JpSIuATiY/0JfLqNuY2qUDKHsUzufOTN3YUx217wXvuNLIXoT7gfHUCzStnJWqwHPXc7EBDqzvsDQ2hWNT85tXq5KFmtNtN2n2fftOY07NuDrpfCNMLkc3oUNQfMZdgRx8TEKiHalTPTatB76FCWPdaPqgnjdoiRrSZQtd0ZbcvuuLi77K9aiDENWzB64gzaq7byKcmVvTadJp7gdpD+u0fKSd2PM6HzDBp2P8urtMyREMqbfcMZVCoLOUvXoufOl7j6PuJo/2H0b7yKy6EqoMU85FjjskzoOoNTiQFNhQvXAwxvMUb17yjPEud3DG939mTawCaMO+eHn5ZXxBP16Rq7ptvxU3bVX01HSnK0pF6bPZx870qkPAmRD6Sf72bFoKpkzZlULmeFrnTZeA/3xHepIlXQH8nAklnIUbIWvfe8xinSkUfTe9IhW07DtfPkJ1fzGSqwbmXNhMEUqjSNLS+CVDD14c6wZkys1o5NKpAH6FEv5BpbxkyiWKWtnHANSyRnXtcWsHpAWQbuespLuaHosJG5k/qRrdM0Jo4tRIOquQx9rNqK6hvv4xAaJ9pPFzZy9nW20o+L9sT93nqm161IyVzGeWicL7lbzmbeBTdCTPeLTvjA9RFdaPJjNorVaceCMy+5u60JLSf3o4fs8mGCwIv9GDyhDtV2OuAv5CzqJpvs7BnYai1XVGKkk7P4kNtcnjmZvuUnseeZgZyp1RyHXZMYlCU7ebV+qfg0aSwjundmQs4yLDjrjaOE9cALbBozkyqN9nPZW+lBq2sOAXzYNokR3/9Azuw5yaF/aK5Erp2vQEHs11zmWaCaB8YaBihC4H5ekadWZFFxUPfBXNlb0XbAaR6q8jFK9wmx4bicGcLoFlm1jXcMesxF9rbjGHHF3bBJkXa5aMKfbGNerwr8nEPFX2P7VQbMZ+vzYBVbQgh7uY+pFfsyYep5kpZn1augq6xrO4j+rVZzWSlJNgXQnpyNbEuV0aNY0DYXRbR2s1O5z0J2PA1T/q0jmNfb+9CzSBayV2jGkENv8PK8ya6OgxnUfgPX1PW018qiQ3A+N4gxbbInjTVrY/ouuMKTcPk+R825QBdeb61KnQlD6HPB5G6igv/ZHvQf34Baah3wN7wlnAxpJurpwEbOfp3kTOJq6jZXyXSELw5nljE9bz6Km8ag3BUoXno5m6+7Eiw/+mosHxv0nPPjKlAzezYKdJ7DuosPubdzMFXs17DohsnrQNH+eJ8dS+P+E+m+3bBLWqT7KbZVLMakMVu4miyde8Epu+pMaD5U+45cb83pZD/sGxh9+pey5Oy4lCnjytByTD2q7fZQ/qX8MvAqa9oNZ8yAvdxTBMNUw/omMLrJ42OcebhkCD1+yma4Zp48DFq3ghUjBimfb8z6e5EEqhUzJvgWR8Z1oGbWnIl+mDtnDdoMO8RVxQATtRHhyIP59vT4OQd59HK5slOv+xh2Pw7UNv+Q7+19TrSjy7gWND7ghnLjRETcn8GcyeUoteYOz03Cd/THY+yfU4Qis3aw850aUazEhSVMzKlijG6jSj3ptnAXp7dNpVK5/gxY+1T13ZeXWxfQr8hg5u66j6t82Cbwf8S9bQMoM3Ady+/oSVMcIR8Ps7lcUSZP2JW4oVxCpCfv9g2ldY0CSbE0b1Gyt5/PmtuuhOivSpqBzO/0/DwtfAk/t5GzDOBLKPpfQc7iQlxxd3vFK59wlZQbDyqER0Tg6fqRQPcnvHL3wF3eI4oLI8THiRfOPviYPJ+OV4t6oOsLnDx9tEVRDBUtH+CGePHulTsO7qEmj6NVeb+3vH9wnatXrxrk2k2eeYYaN35QATA+joT4ILxfP+bBdWOZq9e5dvOd4VuCRMSr5MqNt09vc+v2c154RqpwpcJB0AdePbzOdeP1bz14intEHJF+jrxzfM9rucUk3yAFufLGyROXgKSVPCE+CsfnN3muJucn0yfb0QG4vHfj9Ycg5CZLbMQNdlf+hTGtRrDnpTuvVD+vXb3ChYsPeOtm+pqW+lekN++eOfDgedq/uSWvh4X7OfDxyQ1u3bnPC49QImPCCXR2wendJ4Kl2wlhBLx7idtHDwITlaraUIuBw6uPPH3tTViizRO0Mbs7vcNVkUU9VoneInwcuHVD+mzU7/VX3H/ug1ewIt2JDhJCkNtTbl7TbaDKP3Dgg1/S6ASxoa44qD5fvnqD5x7GpMzLEYeb14z1lK2feeAXFk6orxvPnjrjpewo99XDXN7j+vI9HkHRREYbvjNQkxJfVzdevPIlMDGzVElCiCfeTi9x8gtXJF4deL2O6RN6k2foYS4/usTT+8Y+PnrD82R3JtOGjZx9ha30lWg9jg3E6/kD7pjMMW2+PHXD+7PQGUuUxwfe37vJzbuPeOsRQKD3Wz64O+Go/W5eEuKCnXB2e8NrP6VbaSg+BB8HZ5zee2t+FKf6LItYWLDyKw93nF654RduQuZDffG6e1P5iIoj12/wxO0Fl+fMZG7uXmy+7YebDCDqE25vHbj70At/k3n6OVS//TxwfvCAu8onLl+8yIULF7h06ZIa6zWu37qHU3Bq9WMJ8XrPLWMcvHJFxZjLz3j5MUWyGeOK1/ubiTFPrnvjtQcunz1BCsTl1XWOHlY+c/myVu6Bgy8BWvOKIkWosb1yws3dEOcMUAqMC8b7gzMf1DXlJkpChBdvNhSj3OietD34ik8vrnHTaLtHzn7aN4GmiAl25MPjm1y5fodnboFERoXg/9EZ5w8+BJuaLsoVj9cq1hvHcO3ma5z1bVyVzaLCFYH89II3bsqWySoqTQU54uT2ljdiczPqlDluI2dpzVPz0PtuTYzRkzbpuzX1pe4/j5wZEROg+frtZDHorooxHnySnV5NkRBNmNdznt9Va/Szj7j6hxHq58xrZ2+8QpLmRoLKLyLU2vvinZr33oZEIj5a0YdXL3Bz9SUk2TSIINDhNW7vXbT8KVFLEQ44v1R+dV3FoJv3uPHWj+d76jF+ZlMGng0jUjYNiPXH5ckb3r7yJDCFaZPIWdKJBD93XG7fSIwTb7z88PPwVP16i0+o8Um36kGw+1seXb7AVdnIS8pee8Jb1+DPb3b6u+J8S/dXkRs8/uBueIqXIIFCEZbAD3x0fc87/2jDztRGxId54OH+ipfeKvczUXNsuIq9Tg956uqNrx6EIhXpuGNio3tveav0GqfI9dsXKifxkJ9aiiXC11PlIh+V3l0IlFeqBbHKRr5OvHTy5lOobqME4qIC8FH2cHfzS2aP+KCPvHmcpKOr129z402Atm6kBZnf6fl5WvgSfm4jZxnAl1D0v4KcpYaw0FA8vZSRjX9bAlF0RKRq2/i3JRDjSN+jU8TEjCJeEZw086R0IOryC47QNvBIC7Gh1xU5y8uQZuM4ZgERSAuityQCZS3UBay0uZo1+KiFTCcK/1LERxOj7G6Rc75U5Gx0J3IPPcm99D4sSwM2cvY1fudM/DyGGMvXsCSoBMhaSPuSuAQFm96BUZ3xuMzi8YsYseKR4YN/HT7rWTmwBpWbbuWSa4RKp2QDAeO5rwKlcyttHq36nZl1SUO4J68VOSszuCt255JoXMZgneJkjkZGWd9vqW8jZ5b7qt53a2KMnrRJ362pL3X/6eQsDSTEWBfbZajWraLxRHnf5vTAvsxfddXk6bXgCQs71aaW3Xj2uho2HkkL5sjZvwoJMdZ/nyk5UGZ7HOjvTZhVfm78OSQrIGNNz8/Twpfwcxs5ywC+hKK/KjkLC9N2d7ImMGVG0VJH+i5iTX2ZJNK2tQRD9CUBTQJbWogNvcSWwt/Rq8ZAkx+UzFyiLn2W+tb2PbM2l50CZSGzpv2vYvPnyxg7qDl/7XWAq66W+YcpbOTsa5Ez6zc50P3cmkVQIO2LnyePq8oGXtcUCetE2TINaDFiMpMmT2aykuE9a1F/YG/GnHHkk/xIkGyz/4VsbglEV5m1uYw5NZunB+m71uswd16syEa+ni1pkOJ7v9QgOpd+fy2bSz0bObPcV/W+W2uzzNhc6n4tcpYZm8tY07O5eSgf8b3DhX51aV2qLo16T9Hiz+TJY5nctRPV6k9m6PpHuGVAlZkhZ1/C5nINa+rruYRlekuCbnPJZyyFbnNrY7N1NjdA6kvdzPi5jZxlAF9C0TZyZnl9mSTWOpdA9JURchYX+ZQLA+xYPnY1VxOf2tjI2b/U5k7H2LJmBm2X3uDpJ8OPjFoDGzmzkbNk8DzH/lmtKF2qJCVLGqRUy6lMPu2ReEdXfuPmS9ncEoiuMmvzzJIz+ekPIn1xPtGN3stmMeV2ypcYzUN0Lv3+WjaXel8jURfoNk+t7zZyZh5S99+LnBkR9oCDI7vQqGQJYwwqQ8nSA5l35EOynVbTgo2c2ciZJbCRMwtgI2eW15dJYq1zCURfGSFn2u+LhIcRFaGSLKOKdZtbozOB9FnqW9v3zNr8V0fO4mO0HywPDo8iLMJ6m9vImY2cJUccsZHBBPj7ab8bI+IfHGn4zlFBfs9L2v5SNrcEoqvM2jyz5Mxg8zjlfmGEK/+LyOC72KJz6ffXsrnU+xqJukC3eWp9t5Ez85C6/5bkjATCAv3w9fI0xiB//PxDtV20MwobObORM0tgI2cWwEbOLK8vk8Ra5xKIvjJEzsxAt7k1OhNIn6W+tX3PrM1/deTMBDEqSbRWbzZyZiNnlkDqSttfyuaWQHSVWZt/GXJmeduiN+n317K51PsaibpAt3lqfbeRM/OQuv+O5Ew0Zd1KmAQbObORM0tgI2cWwEbOLK8vk8Ra5xKIvmzkzPL2f802t5EzGzmzBFJX2v5SNrcEoqvM2vzLkDPrbC79/lo2l3pfI1EX6DZPre82cmYeUvffkpx9AZvbyJmNnFkCGzmzADZyZnl9mSTWOpdA9GUjZ5a3/2u2uY2c2ciZJZC60vaXsrklEF1l1uY2cmYjZ5ZA77u1NsuMzaWujZxZBxs5s5EzS2AjZxbARs4sry+TxFrnEoi+bOTM8vZ/zTa3kTMbObMEUlfa/lI2twSiq8za3EbObOTMEuh9t9ZmmbG51LWRM+tgI2c2cmYJfvXkTBrOiEgjuqLNnU9LdJiSMwmuAnPlzYm0K+2bO5eeCFKSM3PlUhNTRZs7n5ZIHem7iDX1ZZLozmXufFoikDZNyZm5cqmJbnN9gloq0mepb03fRTJrc52c/bvZXOa6OXJmrnxKyazNpZ5uc4GMwxw5M1dXJLM218mZ3r7pObm2OXKml5G+f22by3/NnU9LBFLPlJyZK5eaSH+l7S9hc3Pn0xJdb5mxeUpyZq5capJZm0u/v5bNRd+mibq5cqnJl7K5ub4L3N3dzZIzOW+qt5R1MyICnZxZa3Nr55u0Z63NBVLXHDkzVz6lCP632jw9+RI2T0nOzJVLTb6Eza3Vm9gsM34u7YrNdXJmrlxqotvcmtgs8rVtrpMzS2yuwxw5M1fenHwpm0u/zZ3PiHwjjWdERMERERGJzm2J6IpduXKlRs4WLlyo7dgjMFc+pUjb0q41bYuIoiWYy4IhY5C/zZVLTcRIUs/cufTEtO/yb3Nl0hJd79bUlQki9YSUir4tHbfetj5JLRVdb9bUl7a/hM3lDu6vzeZ629bUFci4+/TpQ506dThy5IjmfyLmyqeUL2lzgSwos2bN0vqyZs2axGBlru6XsLks4GJzuYbMf/2cQJ4obt68merVqzN16tTEuKSXkT5b2/bXtLmMU+qLn8ti9u/m5zJmsbm0b2rzjIjUyYzNZdxfy+bSroz7f5vNBc7OzowbN07ztcOHD2vHdNuY6i1l3YyIjNXf31+b79L+r8XmEvfkxpmQsyxZsrBixYpkeklPZNy6zSXO/attLm1bW/9L2lyuZYnNpfyXsrm58+mJtC315TrmzqclMm6pKzaXdd1am1vTtsjXtrnkrUJM5VoZtbmUk7VdSJ29vT25cuXi6dOnmq+ZK29OMtt33ebmzmVUvpGLZFT0zpo7l5aIkgU6OZs/fz4+PoYf+jRX3pxIu9a0LSIDlQVMyJkER/nbXLnURNrVJ6ilote1VneZaVsmmNSXgCb6tnTcItb2W0Qft7X9l3atbfvf1eYCGbdOzg4dOqT5nwQrc+XNibX9FjEdu0CeasycOVPrizw5l75IkmKurojUt7ZtsbEs4GJzIWIy//VzAiGKmzZt0hLGKVOmJJIzvUxm2jYdtzXX0OtbU1dfSGQBl8XMGj+3dtwipmM3dz49sXbcIjJWGbOMXa5javOMiLRrbdum47bmGnp9a+rKOGWOy1z/32ZzgaOjI2PHjtV87eDBg9oxU9tYO24RGavcFf+12VzinsQgnZwtW7bsM72kJTJu3eYS56yxuTl7ZVSkbX3s5s6nJ9boTBdTP5drfA2by/jNnU9P9PrWtC/jlvxFbC7r+r+bzcXPJX+Va2TU5lJO1nZ5yipPzoScPX78WPM1c+XNyZeyublzGZVvJFnKiAgb1SuZO5+W6EmQTs4WLVqkTTSBufLmRNqVASlrAPMAAKCXSURBVEs/zJ1PS6R9SRJ1x5a/zZVLTcTYomhr2pYJJm2KyL/NlUlLpI60LX0wdz49kT7LnQcJ5paOOzM2F5E+y7it7fuXsrlc59/F5gJ55aVv374aITp69Kg2dkkMzJVPKZm1uW4z6btAgpv+5Gzt2rXp9iWzNteflqbUnUCuK0/OatSooT05k34I9DJSx9q2TW1ubX2xuTXzRUTqySImd9QtnevSX+m3NfNNxNTm5s6nJfp8s1ZvMlYZs35H3VyZtOTXbHPpu8z1/202F7i6umpPzsTX5Om9QD+v21zEtF5GRcYq+YPY3BrdZWa+ZcbmEm/E3jo5k3zIVC/piYxb+i42lzhnjc2tXVd0m1k7Z76EzfUnZ1/L5nINa+qLvqz1c1ObSz7z72Zz/cmZpXoXX5MHEjo5e/bsmUW+9jVtrottQ5AMQIwjhpLJYimkjvRdxJr6YiQ9qFgD0ZfpN2eWQLe5NToT6M5pbd8za3P9mzNr2v8121wIkW1DEEOSaArpm21DkM8hdaXtL2VzSyC6yqzNZcyp2Tw9ZNbm0u+vZXOpJ+PWvz+yBF/K5qn1XZJJ24Ygn0Pq2jYEsQ6Sw3xNm8s1rKmv5xLW6E2g21z/5swS6Da3NjZ/bZvLTRjbbo3p4Eso2kbOLK8vk8Ra5xKIvmzkzPL2f802t5EzGzmzBFJX2v5SNrcEoqvM2txGzmzkzBLofbfWZpmxudS1kTPrYCNnNnJmCWzkzALYyJnl9WWSWOtcAtGXjZxZ3v6v2eY2cmYjZ5ZA6krbX8rmlkB0lVmb28iZjZxZAr3v1tosMzaXujZyZh1s5MxGziyBjZxZABs5s7y+TBJrnUsg+rKRM8vb/zXb3EbObOTMEkhdaftL2dwSiK4ya3MbObORM0ug991am2XG5lLXRs6sg42c2ciZJbCRMwtgI2eW15dJYq1zCURfNnJmefu/ZpvbyJmNnFkCqSttfymbWwLRVWZtbiNnNnJmCfS+W2uzzNhc6trImXWwkTMbObMENnJmAWzkzPL6MkmsdS6B6MtGzixv/9dscxs5s5EzSyB1pe0vZXNLILrKrM1t5MxGziyB3ndrbZYZm0tdGzmzDjZyZiNnlsBGziyAjZxZXl8mibXOJRB92ciZ5e3/mm1uI2c2cmYJpK60/aVsbglEV5m1uY2c2ciZJdD7bq3NMmNzqWsjZ9bBRs5s5MwS2MiZBbCRM8vryySx1rkEoi8bObO8/V+zzW3kzEbOLIHUlba/lM0tgegqsza3kTMbObMEet+ttVlmbC51beTMOtjImY2cWQIbObMANnJmeX2ZJNY6l0D0ZSNnlrf/a7a5jZzZyJklkLrS9peyuSUQXWXW5jZyZiNnlkDvu7U2y4zNpa6NnFkHGzmzkTNLYCNnFsBGziyvL5PEWucSiL5s5Mzy9n/NNreRMxs5swRSV9r+Uja3BKKrzNrcRs5s5MwS6H231maZsbnUtZEz62AjZzZyZgls5MwC2MiZ5fVlkljrXALRl42cWd7+r9nmNnJmI2eWQOpK21/K5pZAdJVZm9vImY2cWQK979baLDM2l7o2cmYdbOTMRs4sgY2cWQAbObO8vkwSa51LIPqykTPL2/812zwz5Ewg/bbW5now1/su/7aRs/Sh29xcvzMCad9GzizXXWZtLv3+WjaXel8jURfoNk+t7zZyZh5S10bOrIONnNnImSX41ZMzaTgjIp2VxqTD0qC5MqmJDp2cLV68WAuuAnPlU4q0J+3qE/yzMtqVjEh5TokgVJEzL69PxCplC/TjiUhRJ0mUojVDqbaVwuXvRJiUSQtiqOhowwT//Pppi8HIKvFRddPG53UFojsJaDLJBSnLpCW6zcW54tXfSTBfPqXojq1PcEskXZunIwI9UZf2BebKmRNpW8YsbYv+zZVJS6S/0ncR621uWETNnU9LBHIjQidnpomRufK6mEL6rdncQj8XMbW5QMZhjpyZq6vb3Fq9CfREXXQoMD0nY9qyZQs1atRIRs7k/JezuUrajNf9HGbqakdVjFD6StPmWn0DUp4TSPsybkviqi5SV9r+EjY3d96saL1UUP+ONtrcfNvGchpSnjOcTM3m6Ympza2Zb0k2t3xNFBF9pWnzNEQg45Vx64TcXLnURI8x/wybC9zd3c2SMzmfWb0JdHIm1xKYK2dOvqbNBREREYnkTPIhHebKpxSB6FtsrpMzc+UMJT9HQrzquzmbayfV/+t/pyIxas7ExKi6/2K9iQhSkjNz5czJl7J5ur6i9epz6O1LGQPM1E1FBGJzebCgkzNz5VKTzPi5lNf93No1UdpO1+baqIwwOS7QyZnUFySrl4ro8PHxSSRnL1680I6ZK29OMmzzVET0JmO3Rm+6fCMdyIhIQxJYRMydT0ukg4KVK1dSpUoV5s+frylOOmCuvDlJq+2YxJsCakIpEvTZeaWooJAIfALUIhYbRUKsTLhoku4lxKrDn9cTSSwTpwylCFpUVBJJSoiRY1IuhnTvK8RFE5Pi2hkRTe+RMaTLv7X+Ja+rByS5iyn61h0to6LbPFL0HhOX1Ie4jF1H6uti7nx6Yu18E5GximNLkiBPkkQX5sqlJolj/wp9z0zbAlnE+vTpQ506dTh06JDmfyLmyouIrgTij05OTnz48EHTnaU6E5E+6yLXk8RxxowZ1K5dW7tTLP0wXahTSmZ0LuPw9/c3a3MJsLK4bdiwgWrVqjFlypTP+iLtWt++1FXjjlLBWNOmGcR+rs9o1QdJeiRpSqvt6ETnU+VTxDgZp9SVcfv5+Vns5yKZ0bvU08Xc+c9FxcLE8agEIFJ8JZW6qmBS3Plcf6Y2lzFY6+fmzmVEMlNfr5txvSWJqc1l/JbaPDNti0g9XVKeE0gcGTt2rHYjRGKQQLeN3ra1epOxyjyXdU2u8WuxucQaiUFCzrJkycKyZcuS6SU9kXIS18TmEp9Ts3l0bGoRSCXrWpwy6bu0rfolN4dSy4E0iVZt6UlOQsxnuUZ6os+VzNhcnoSIzeU6X8PmIubOJUpSUEsTCSoHNVvfjMg45War2FzW9f9Nfp6e6G2nrXdlx5ik+Wqav8vYJW+11OZSTtZ2IfL29vbkypWLx48fa9c3Vz41sXbcIvrYra0v8o0MJKNi2llz51MTUZRAJ2cLFizQHE2SN3PlzYk+2M/bjiTY4zH31q7i4uXnOIaZnjOItO/19hpndizk8F0HXEPkSVYYn56c59qqdVx//gnvyM/rybW9nhzj8vFtnHkdQECEBCUnHh89xbFtN3jtrxZIrZwfrlePs3/WDCaNHcmokSMZmSijmTx3OZecVfATJagE4/N2Uhe5UxUR5sSrvVvZMH0KE0abXltkDPM3HeK5dlNFkVNVPqmuwZFlcou+RQ+m186IaPZW14n2e8PLqzuZufsG1x0NiXt6os8XEXPn05PUbZ6+yFhNyZnowly51ETatLZtqaOP29r6umObO5+WCEzJ2eHDhzVdSGKQsqz4nw557L9ixQoGDx7M5cuXtSTCUp2J6DaT/+rkbPz48ZQtW1Z7nTm1vuii17dGb6Y2l2uY9l/ImSxyGzdupHr16ho5k36Y9kXXu3U2izWSCG9eb1zKElMfHTORcUef80LzUUVGtDoxaJQ4JJiYgE8EqWPhMl9SsXnQi53sPrSUhTdd8UsR42Scojc9UbfWz0WsGbteV8Tc+c8lAn+H29xSZP3y7Q+4hCldaDe+Pm87yt+BdzdXs/qSKu9mSMRNRcZqSs7+Xfxcxil1M2NzvW1r+q6P21zfBebImalt9LrWtC1j1cmZXOPXYnOJNRKDdHK2fPnyz/SSlkg5U3L2uc0NMSghypGneyYyU+UiiTFo4iJmn3DESyNY8RoRi46W+Kf+DPUhKDwIr2TXSiHhAfg/O8yqXUfZqmJQuLky6ciXsrnU/19pc//3vDi/kXnTJzB+9KhE3Us+OGqU+nv0BFaef8WHSKXzDOaBpjaXdf1f6ecZHncakn79cKL8XnFj2zFOHX2CY0TSORm75K3y1FDqW+In4mvyxC0lOTNX3pxkduxSx9r5povF35yJmCZ1lsD0tUb9VYyMQjoritIfbyYhBr8n61n0j78yePhOrqbyWq7zxdlMavYjLZde4bavHAnl9YYBjP9bFiZue827pMdoJojh1cZWDGtThB773fAUp4q/zvoWnWldbAoHXRUT18o5cXNoE1p+819kKVCGkioRlWTUIMUpV7ow3cZt4ewbH6z4IoTwoMvsqpiXir/7lpzFTK8tUohqNeowZvV1HnmrCWyspUNsZfpaoyXQbR4j9vZ9yJ29k2k6/TAHX2Xs+zVxEq2++q81SN3mGYMQDNPXnSyB1JG2xckthfRX9xVr+i5tStvW6k2CubnXGlNCxvj+/XuNwHXv3p0ffvhBm1N3797Vzlvj53JN6beuc7Hh7t27tcXp5MmT2rG0kFmb66+4mbOb9Mvca4065LzVNlf/i/R9w/Ojc1hcoyYNSyf5aJmyJcjZzp7B++/w1Ed//17VCHDg9rkLnL/5Am+l68gYlcClMleDb01m+qJudDjyEV+JQykg+pJx6681WgJ9vorurbG56M0yP4/E7fxsZn73LcNnneWWvKEVb35diXc9z4np3/L3obOZcd/MwBXSsnl60G1uzXzT9SZijd50P7cmPgmkvukrbpZA+i5tZ9bmqfVdkui0vjmTdq3VmyCz35xZa3PReWZsLvXMvdaYUYi+U7e5sqnLc57vnMrUTiWpVsEkBpWvTNH2I5i16xHvvQ2vooofRrq/4+7WM5x95oKj4SLmER2I79UF9Jq0iDGH32PpV0TSXmb0Jkj5WqMl+BI2T9dXnI6weWgp/s/fcpCnaKkk3ZdR/y1TkjJFfqZ08+EsPeFAkAUuLzY3fa3REuh+LuO3VO9SPj0/TwsZs3kE8S4HmFKsNZ1bbuBqihAveevX/ObM2vgo+hK9y3Wsxf8HG4LE4v90E0uz/8Dw0bu5HmY8nAIul+cxtVU22q64xl0/ORLGm02DmfRDLqbufMN7szqM5fXmdoxsX5I+B9z5JEws4SYb23SnfenpHHZX/dLKOXO5Xy0G56nC/Mt+uKggIoHEIE68PDoV+2L5qNZ9LTveRKsQagniCfO/yPZyOehfz56tb0yvLfKcq4u70y5/CZrOusYdn7hkr1WJunx8/QmPMJ/YpAW5TlyC9FaJ+m+8vM4YE0dcfMYmq0xQsVlsrHUTNLML+JcgZ9YEc6kjfRexdjGQtq3pt8CUnJnbEET6JYucJE3t2rXj73//O//3//5fvv/+e+1urgTDL4m4OIMuMzKezNpc/87QXFCUheaftSEIce682DeKzoULMXTeKe57J/lowKfHnJ1emdKVG9F00UN8taEpP7o5hTb9R9JkzUsMD77T0E+83BFUcyouIdXXJqUt0Z/lULFdjTtG+fa/BvF4X57P3J9+ZNTc89zWyFkq/f50mTOz/0GWkfOZ89BwKywl5A0Hf19v7VuYfyVknuhrojXzVfdzaxdwqZdZciZz3hroSVtqfU+PnOl6sxaZJWfWxhgZb2ZsLnX/aRuCxLtzZ2o3+uapzqCdT3lpEoP8Pxxn7+jcFPxbawaveo631nVPPp1eTOm8Mxm25YPKiNKCStSjwgkJDSMy2rpEPTomPtXYlRHIOKy1uQqbFuZdpjB8FyvzJk2bO+xh9aTW/KPbJg4890jUva+/0r+fB/5v9jG/7i+0aj6Y7Q4q/hurpQeDzT8RHmmlv8Sqfqs12FrEqbzP2tiavouoAh5HmFG6HT3abeZGihD/tclZujZPBZnJH3X8/0HOnm1hee6fGTVuLzdSI2dXFjC9bS7sVl3nnpGcvd0yjKk/52P67rd8MDv3YnmztQNjOpal/yGdnN1ic/tedCw/k6Mm5OxK/9qMKlKfja+lVgqEvefNxkGUKtCOhmPP8cYiewk5u8SOCrkZ0XoSJ82oLd73BicmdCB7/gGM3P2aT8bjOnx8vNViZsVujUpkcsYp57YGkpTLO8VxVk7Q1G2eMdjIWV1OnDhhPGqAvAK1c+dOmjdvTo4cOfjtb3/LN998o0nlypVxdnbW9J1a0vXPRmZt/tXImdclDs9rQ85Gk1nz4POn1PGOm5hQtQXNG67mumJiKpoSdWEotTv3o+qix0gNufmh3QuxAqIvSVxCQiy/uyqNZiZRl+9VxGYZnzMxeF5ZzIJsWRk7/wJ3NHJmvu0Ejyucm5eVHGMWMu+ReXKW9OTMcuXFqtgmGy5ZM99knuhrojX1dT+31tekno2cWW5zve/W2iwzNpe6/zRy5n+WOa17kr/gAg6lTAKIwO/BXEb/Ixt9BqgkOEKOOeN8YCo5/j6O3itfpvlWj4w06VM2y8ctNUTv4m/WIlPkTNlNXie3BmJnuTEmcS5Nmws5m9aJHIOPcU3LMVMiEoe1lWncrRYND3oQkcFhaDb/5K2t65ZC+mvIQ6yLMfEqhzNsZmfdwiRti+5Sh/JDj2PMqtCJ3h22ctNGzhJhI2dfipwNqMOIQnVY9TAO0xeLEh8yBdxhafuyNOsyhq0f5YAKUt432GE/j+WLr/A2Vd8xkrOKeRjafAwHPY2HkyGWoOc7GVGzMO2n7+WSj/Gwhjie7RvNyDa1adCggZK2NG21nwsfjV7gcp4Le/tif+oxT5LllCoY+T7k0KglbFx3D0e/j7w4v4Zh6y9x0dFkYYh148Xmngxq09Bw/Ybt6TJoJzd8VDBUp+M1fqEmuPMp1nZtS0utDw1o2GcKQ68FfE5kTZC6zTMGGzmry8WLF7VjsqjJbokdOnSgYMGCiYRMFyFq8s1ZRhDn/YDT3ZSdG4otG9J+zGJ2qjmd3EqRBL6/wdZN93ipvUacMWTW5l+NnLkeZcfwhvyl/AY2vzLnzCG4XL3LndPPcA31xvPyXAY1/YXvf87OdwXqYzdoNydfuvPh+jRO3FvP9q3bWKn027Zpaxac/cCbBzvZumsS466oxExuA8e+5tzCbexedphbtw8xr10rGtWoQe36jRk6fyMPUoTXkFsH2Nq8MU2N/jdwyw7VxmZODZ/AqafyvUkc8UG3ObxkPV0HnOOev0o+jXXNIwCPuxvo1KYp9evV0+ZavQaNad1vLGsfBhJsosI4zzuc6dqOztp8aUCXWbNZtG4uC7PlZNqii9zW+xrrjvPpLth3MsaSbrOwX7yO7Yqc5Zu6hHmPRa9+qt2bbB1yhmuHVjBraltq1+1FzxVX8DSqPejuCpb1MbTVoEFTGjZZz97bKV73DL3Hhrn2NDL2vUHTtjTffAcVkkwQitP+4UzoaLxWw5a07LBS2SlYi/sJitRK4iJz1pr5qvu5ubmaEUg9Gzmz3Ff1vltrM73v1tSXuv80cua5l2GNuvDX0hu4pJGv5EiI8eXjsd3cu/0StzBnnh2bQf2y+fnjb/OQrVAV+i/Yxd33Xjjc2864C9dV7J7Eiq4NaNx7PIsvOPDh9k7mrt3Bkksq8VGI9nvI5bFDOHbyOBcP7Wap8pGG4ieNmzNi6xWepuhi+OvlbBjfiEZamQ40nHqS/YdnsProPKbdklxArXchD9g3cgFLZp7huUpRTDVsIGeGvQpU4sKD+ePYMWsDt1S+kzQLg/iwfyl7RkzlzJsowxsJ6qzHyY0salSPhvXra77csNkiVuz1UKtUckS+P8iuEQ0MfdT6OZ8le11U9FaQO2eqbd+7Czh1YyFbDh9kU6MG2KlyE/fd5+OLM2yc0ZGcA/Zx1iUpERWbRRmX8qhLzWg5vCqFNjgoumyA76V5LOpljHmaqDjddjlrj3hqn83IaP0CPuF0dBKLe+vlGtOw6Sy2X3U3jtEI/6ssmdSHxvq1Wnam6fYHPNQG8Jabe3bTZ9hVrrubED3fB9w7PZjBR69zzUP3p3CC315hx4AlbN//RGW4glhi3uxlcI82Bjs3aESbwTPY/DreRP/uvD9/nS1DT3Ht6EJGj2hOveYjGXPYwaBD3nNxznB6Kr1J/9p06cSWY1sYXX4QQzptsZEzE9jI2T+bnCl2JpeOifbj3erSdBzUip5nQ5XDKW/1vc+hSWvYsuE2DmbbF2SEnKnJ5KsSi6k/U3PsHBZqSYzqfcArXq2YyKTODWnTvhNdunShS8f2NC/dgWa9DnPwtlLWp6Psm1SYb2pOZ9YF36RgFeevkpz5NCnennbjbuD66SanFjTjz62XsviOgf3F+T7i5o6+tK1filpN2hqu37oe9Yo3oHbPoxx+JZoI4NXFA0zp25/uzTrTWcooad2qAWUHDGfybSecU3njMnWbZwz/zuSsf//+2oYg4muSDMjfEqRSkjJdKlWqxIEDB7h//772zdmdO3d48OCBJnLs/r37uKkgGeF6hQeb7OhTqRlt2ogt29KiQV369lrOfadIbTHxf7Sbi3vHsmj7StrZL2X1oHEc3HqaG5/dzf0cmbX5VyNnoS+5taIf1b4pR402w5k6ZwGr95/noblPwFSS5H1zOeM6FOfnPPn5R5l2DJx0lEtvnHiwvgAd2ualSoORjGvdhf49+7HuqhMvDnagQ588ZF35Gm/Z3SryAstr1aLkD/VpO3Uxk3v3pUenjnSslYeK5RthN+81DsaFLvrtNtYOq00pRQLbdhKbdaDX8OY0KZKDqn/NxfjjauGXsmEPObNxF8MmXONpYFrkzJM3xzYwu2kryjWyo7Xy565d1XWbV6RSsVzk77iBvc8CDbHk01UurGhB1QLVaNDC4Ps9h7aiXZPy1P3ue4Ysv85DyRPi3HE4t4w+lQtSpWELOkqc6D2YVnaNqFbnW74dvJLl2vrqztsdM2jxX/Wo0rGnik19VNtjGb37Fp5hLnzcspiV/VrSpZuhrS5dOtKukkom2mxm9Sk/Fa/jiA18xZ05E+jetB11lT66du1IhzZVKFi0ASOXX+K9uF24G863pzFsaAOatu5ouFbbJjQqW5PKYw+y760Y1nBHXe7IWzNfdT83N1czAqlnI2eW+6red2ttpvfdmvpS959GzkJfsX9SB8rlKkLdPpOZOX8BC08+5r65By4xbrw+t4j2tUrx5z8U5ZdyTRm39giP377hztqm/NioGrU6tWNKvy50HzOPjVdf82pPH8q06ksdgyMS5XaAZf/4I9VKtaRbn8XMkzjQxY4udQqRo/pgem9+g5emongSvG+xsk89qpasRGPxpe69aatiW7Oav+enOlUottWJqAQ1l8KecWLmWjYuv8IbNT1MNWwgZ5K8ydGH7KmYlV4l2rHZQTI1HR5cH1Kbgd8WYs7lCHxU2/7P1rNJxbv21dvTSYsJXWhRshjlO45lxuMgY91A3A+sZ+ugtvTs3iExT+lcuyX1681nyi5ndS1BAq57q9G//XeUbjic0Y070U+VW3DiKS4vTrJ+ZhdyDz/DHXMvMES+Zdvg3BRq1ogB1wKJjfLH6+40hg6pTvWmxvxJpHMtyv+mJCWqLWCdo4ovUcE4XJ/D2BF1adqmnaFMx9a0KFOJ8v3WsOyRv7q4Wru8HnFj0kjsVFxrpF2rE21bVCJvsWZM2fYYVz5yYUZ/yv6mLUvPuqoRCxKIuLWEheVUHtBqEYuEEQuiHXl7cCwV8nVnyKqHeMW78ur8OiZ1sqOsItZttOs3pVENFcfbz2THHQ98tVDwjruLxlHvN3Wp3rs3bYZ2o0ufOcw550pw2HveLupGr3I1qNpE6nemd9eaDKzbkMpqHevYdw+3jc3rsJGzDOBLBNR/T3IWr70OEBsRjMuuytQZ3Jha+9xN7jSkh4yRM/yecGtpLvIMn8CIm7LgRuB9by2DC1fCbuReHpma7fkyupVpQ8uRJ/kY4YfD8bnUzFeDrksu88pYLiHkDS82NKFMz8mMuhCgst6bKsnqSPau61itvbYVhcfJaYysmJNi9ns5YbiZpmb1O57tmEzLRutZe9WbaP99rBnSggIN13HCy1hG8OkYe0ZVIH/X5Wx9EJh4F8kUmU3U/13JmewSNHDgQG3L+Hr16vGXv/zFLCETkW/NfvOb31CqVCl6q2DarVs3OnbsSKdORjKvRP5t16EThw5u4PrqoQyqX4WhJ51xMw7NY9845pYtRr+DDrxT88f99DS2T6xNvylDKdd2IEMr1GTKuNXsUYtoesiszb8WOZObLUHvz7KnaU0a5v0T/yH6/WsBao3bya5Dxzl5/iLPXP008mqAognXJ9Csz3Dqr35tiCMxPrzZXJLK2X+gaId93DcZQtBpO7oNLk2Rje/wFfeOus7mVvnJ+odi1Fz0BBd1KFYeUztsYGn79uTPt5QjbhEkRH/iwthmiuy1pO1FH2O8Uu53YRwDCv2RH3OWZMJpb1w1B8zouN9zc/lSptit4bLy+yRLvebhks4U/q4tw3e8JSghhLdbR9Cuenkqbn3EK+NNmIg3O1ja+Huy/OV/6Lj8Ni/VOMOfrGZj22oUrbSNPW+MWop8xf2lDcn381/4z44rWfVWDvrjtH8orb77I99138RuY0yJiXQl1GEvUypVxa7/Vq6ZLvIeOxldpxW1O2zjjp8vPrdXYvePtvSddEslLEYkPONqj5asmLGTu0pJcU5H2TviT3w7dh1r3IxlVDrjd30+HadtZ9WtT2qOypyxkTNzsJEz85C6/zRyphD0dCubB5SmbI4/GWJ8jrpUm7qdI0dPcPrSTR64hhKe2G0PPp2cT+Fs0xm86aP2pgvh4sMNyfPH76k97hgvdfXG+eF9fBCVOw6l5fo32qFYtYavy/8z2f7UGLuFb0h8k8/jIH3L1KRigwVcVD4fG+3Mh8XNqFOwF53nvU7MjxIeLmBQlf/h9/kbU32vY7qv+SUnZ085XL8IQ6r3ZJeTakMrIfDizrgWjMpTmeV3I1SffLk9rDB2zdsw/bmxiODxOCYtG0Tv059UTFS1w66zrGltWjabwUHTN49Cz7KyW1sqVJnGbpcoItV09z/VjNaFf0+2Wis5LbxIh9MBNkxswg8NRjB5/R5toy2RA0eOcGTfNg7Mak/l8iWoM3wV9yX9Dffgw6E2KgauYMlrwyUMCObN0PKULFGdykf8CfJ+ztkJP/H3vqMZ9sxYRPBsJQNnrmbiKQ+lEm+17s6l0d/sGLHshZF4KYTe4kT7pixbfAKhJ37nZrKk5Hf0VHnwXcmV4314dWwaLbIWJ3/VSay766GtUXEe5zkzvw75B6xn9dNwFQ/Xs7RLKbJXmM6mJ+pvuTYhuB4aR/8iOSgz9iinta1APXi2ujN1/vpXfhp2hGOJ+WoIn+6tYFj+EtiN2MMVfRIE3+RIvRL8/NtfKNv/AHdN47aCjZxlAF8ioGaGnMkjZfl9n88VJRuCbGZZTkXOxqZPztqvTNoQ5O3moUz5KX1yNlqRs34H3b4AOatCrcGNqPFPImc3FTnLNXw8I+6ov+Pf8/zwNHK3mMbA1Sd57fgeV1dXJc44vb3Ilp55aN6tL4tVUAh3vczRQXlpOWkN296LfhOIcDrL7q55aDthJfskOfG/xnkhZ93Ws+aRjNCBKzNH0TrnAJZf804KzIK4KMJCVSCLicfjbG/mDC9Bu+W3uP3aGRetD664ON7k8sphNPmuHePXPER70zMFMpuo/7uTM3ka1rhxYwoVKsRfVbBMScxEhJj96U9/omjRotrmIG3atNG+R2vZsiWtWrXSpHmLljRt1oLDS7ozq/tAcpVczWF3kyjqeoajS7qQfdIpDjtEER/xCa9X+1k3vhVFCnak36xLPHYLIjwDkz6zNv9a5Ex+pD1GtRkT6IXPhWn0bfQL3//4Ez9nVz6ZMws//O631Ogzn6OO+m8nRhJ1ZSxNew2h7ornKhrJoU+82ViCSipJqL/iVbJvQAJPd6T7kDIUTSRn11jdpCiNy9ix/lWC9pQqLET5pUoyzo4ZRptfxrHrySfCHffSo8ZAyrQ/xjNTlca95PTo+jTPUZxpJz1xEnKW1oYkyZBAfGy80pPhr2gfL9ydlF+7XOfislG0+KkbM3e/Iyz4Oiv62JOrzDqOeimbGoorePFqhz2dVYI6cNFVXiVE8XR+F8bkKsfMY15qeU9CxOvdrOr2E98PXMxCLbny492e4XTOkp1+i66hv0Ea7fEYjwuzKd1+It1WXOS99EeLNS4q1jzi4KiytG/fkqkXHHE8v4R6v9SjVp8tnHFyw9XdCz/5ITmZM8ZBRXw4zLa+2fhLl0mMPeOAm7s3vgFqbqtz0qT8N0GV1ddEa+ar7ufm5mpGIPVs5Mw4CS2A3ndrbZYZm0vdzJAz8T3vT2nYXPlwXIQTjsenUrlEHv7+j5/JkkPFoGw/8sMP31NlzG7OO6o5pxV2w+3oXAplm8qg9W8NN0hDn/JgmR15s9gzSMWaxFZihJzZU6XTMFoZyVmU22HWFchK0+Yz2aDlDTqecrBBMQZW689B/wQCnI+xoVhu+vdcwWlT4pPwiUcLqlGpeS0q7XQkNB03+IycNSjK0Bq9Pidn41syOm9VVtwLwy/BkWudStO8SH367nvNB1dPPLyV/bR5G2eoFx9M/JPVNOw2irpTjvLcUY8dSpzecXZBC7qptnoecMc1XKnoVGNatC5Gqam3cTadfq4n2DmqPL/76w/8pOK+kIJEyaX+zpGVLnMPcsdPJfxahQQS4ow/qSKI9MVda/cjd5dXoma3utQ48okgrwecGF6A71r0wG7fK9zcvPjkG6H1XYtHcrF4NxyPTKPEz/VpOno/113dcfcJUHEtgeiwMOKNfh7veIiD0/OQbfJ2Nn9QB8JvcfTEfHKOWMpku/bsPnwJ4YnB99eyoX0+OqlYeiNQ5XF7uzOxTUl673FM/qaT7x2ur+pMwXbLWHLDX2YnD1d0p12WfAzb+iLxhpxWbk07cndcyLxrn4zjF4QSdWsJDQs1pnzn7TZyZoL/T56cKXKWK50nZ1cVOWuXk/amT86EnKlJlDo5i+PtNnlyVkaRs0w+OYtU5GxnJeoObkzt/R7/FHJ2a0lO8o6YwOj76u/Ip9xZ3pzvc+Xmx1z5KFIov/atUcGChShUpCD5fvwPfmk5mAXyw+kqmLvuaku5HtMYfFyip0pwr65laL4mjFpwQbuzjfcVzi1X5Kz7BtY+lpB9h21DRpAv70oOflTOr458jije7u7OwEq/5Ye8hTWSUEjrQ0GtDwVy5uTv/9GI4ZueGt9pTo7UbZ4x/Lu/1ig//Lxjxw7tNz7kh98LFy7Mf/zHfyQjZ//n//wf7Vj9+vW11xflB6hfvXrF69evtW32dXmnJODGXCbadyN7z9M8CDBJ6qKfcWvDeH4qtpT5l3yI9z/Npm2zabp6L8d3rmZqQ0XoN77B9CZjasiszb8eOTNJEOL88XJ+w7Mnj3l47zY3zi9lQq6/keUPuak1+BD3tCxIkbPLo2ncw546Sx9rMSM+3Is3G4pTcWAHWh81zWLUIpWMnKn+RV5hZaO2dKk9h/MBhjgU4OdLQtgtLkwYRZdC49h53w2v2zNoZjeUmnOeGghgIgJ5urg7o3MUY9YJDxw0cmZFoh52j2N2jWhcQPl1oXzkzZaTn7/twoxjzvh/2M5k++7k6XeeV2GmOo3B68oiZmfLzthFl3kZ7sb5Eb3pkqcv25+HJSWEAq+rnJtl3BDkiXaAN7tn0D1rG+bsfIE8sI+JSSD44x0VqztRpNgv/D1XAYoVNsQZTYoUIf/PvyN3jdaMuxZGgNdDDihdls+dlVyq3wUqNabimge8NRl+fIQjDvuHUKS4ItnqegULVqJO6xWcSHzUptSl5om+JlozX3U/NzdXMwKpZyNnlvuq3ndrbZYZm0vdzJAz+amNDNk8NgCHd695/vghj+7d4cJuRcBKfcPfvs1K63kneaolzS64HJ5FwayTGLDmpcHvAh9zf30X8jZfxLTznklJdJQvn1KQswhXAzkbPHAN55Klc8852bgoI2r155BnNF4PtjI6Z2NGTDiOpBum8DmkiM7AGlTYrshZOsudZeSsEstuRRGg4mzI2SkMrZuXb7PnJ3/BEsqXZ7PqQkBSzhIXQODZEdStkp//UWWKqdwkMXYULkaBHH8hR7FSdN6jiJ3SW9iJhjRXfa68LQWhdDzA+kkt+EfLGSw5conbt29rcuPGDa5cvcrN2/dw9lfri7F4Mvhe49T81hTV4lZh8uf8E3+u0ZZ6x7yJifTD/eh4qpTPz1+y/6LOl6Zc9SlsfRyaROzUChDmfJFVXfJTKld28kjfa7aj1taXfDQlU2EveHZ0JNn7bWS+PDrz3M/xPTNps/E8+yYXZ8qalRwKjMLz2BoW5rdj6dG3uCYE8nBcQ0YXr8zie1FJT+U0eOFxeTVdCs5h0U55+uqpyP1YumTvxLIzan4ZJ1Ccw372TlO56ITtbHlnqjQVA7yOMrF8Rzp12IoyWTLYyFkG8CUCakbJWcS7beyeXk/70FxeyxIZNG8rNzzNDTSBoA9H2d48O1MWKXKWymVdri1kYZccjNz9mJfa+8CxOJ2cyrIG+Zh77B0fUhnW2512zO5bjmmXgvGXORV307pvzqK8ebG0OMPGdWXGw4hUyIw5ZIycRX+6weVJP9F9wWr2yrc97ofZPz4bP1ZtTrNBU1i6fLG24YNBVrF203YOXH3Ge9FXQhDhj1eoMfWj54T7eId94MGhURSzW8PK826GO2peVzibjJxdY+3A4XxXYBMHnVNbKFy5MbYJXbLkpXb/ecxdrrdv6MOqdZvZuvsqj52Dba81mkACg7SdGXImG4KI38gPSgvkBzwvXbqkkTT5IXhTgiYirzWeOXNGK5sq3mxg8szeFFhyD4eQZKsSr3YupekPc1imkvKwsNfcf3KXI87K0aI9eXNUkZS7Xsk/XE4FmbV5ZslZVGw8CXEqzr3YzqJRanHUY1Dj5gzdejvFpjnmYM7eEfhd2cS04rmpmq8zc5/GEqXaiLs6xjw5G9qZNieTU1nz5KwXXeus4IKqLGuaRs5CrnN23Ag6FprAznuuuFwZT/MBg6m//jnJPz0J4vnSXkxV5GyOxeTMB4cTq5nSojENa5aiTuNBjJyqfHrlDCb3bE2Nn3ow++BHPF6sZ+KYjhSceonXyeaLImdXl7I0Ww4mCjkL/sDJYYNpW3Ayu16EJCNnCZ5XubA4KznH6+RMzafd8xQ568O8PW+0p2xi6k8vjnJxTh5+qVGbevZzWZkYZ0RWsmaDWlPO3uG5Umu8aj/i/SnO7V7LmoWj6NOsBN/8UJgSNZvQas5Otn4UZSgdBzpw4fBONqxewfQ+tamV5c/kLqfWpRbTWX3iI3L/N1bbxc1GzlLCRs7MQ+pmjJxFEO5wivW9OtBKj0EtetJq/kXOv3QhOtY0484IAnA+O5VRVX5H9g6jmfFC1hZX3I7MTk7OAhQ526TIWY8lzLpm8h1CGuRslP1aVHpkgiccaVSMobUHccQ9Eo+bm7DP25Nhky/wylhCh9+JJrQZ9iXJmTf3JrRmXN6KLLkurzUqRLvw9PpBNq1dxMIpXWnwTXYK5qpEnRZjGbPYAcdQV17vrEyl2qUo0306y5PFjhWsXLORTQfOctslkkiVz/kebkDzIbWosseVCNM+f5DdGjuTc9gpw8+DpIeYINxvjGDygKY0rtyEulXtGaK1uYp5vQtQrG0Tau53JyImgUj3Z1w8vIPNijzNHdmWJtn/mzxFq1G7+ShmbX6Ms6gkIZTAF4c5uWMNqxYOo2tjFde+L06ZWo1ps+QIh+ROVoIPn66spVmpMUzb9ZJnV7awf9Yktt59z7vTg2myajOzbz3gwa7l1Gu0gSPPfVWO6861AfUYlb06a+5HazsLJ8ENl+MrqP39VCZsfK9yXQ9FzqbQNbs9K867Jr42Hvd2O9smfkuW6dvYnuwpaxTxXidYVLEzgxQ5s22ln4T/leQs8uMhji0zfO+iy+TVB7j/yfxCEOlxk7OTf2Lc5t1cNJs8RfHmwBzGVKzEvFMOuBodyu/eEnaMzs7EMw68NxvrArg5pRtjGrRh/fMYw53nGAvJmWZXZSDva0xr0oh+w1fxICNZaiIyQs4i8Xuwg/6V6jFl63WDQ7jsYefwAvyt+ioWXtFCVBqIIc7vFpsaVGXgsLlsO7yFHT2qUH/DfS54GRfvZORMbPeIfSNGUDbnAg6+CTXqISU+cXN4FVqUqITdZcsneGYT9X93cia70KVMjESfp0+f1hIn2TDkd7/7nUbO/vM//5NmzZpp+hKYbfvJKiYvtKfwpte4h5naxI2PxzYxPMd8th77mOLOmmXIrM0zTc5i4hQ5U7Z7e4gNswcmxaAevZl24BHaHjefIQKv28c4uWAdZ16HpSBBOmL5MLs29lXK0udkFCFqjPFXRtKotz11Vz3VEqNEcja4I62PJ9/i0jw560aX2ks4p2KeOXK266E7/o8W0LThcKqMfpSCHPvzaGFn7BU5m6nImcZHMkrOfE6yYUwLcuWrQdOOfZlz0cm4CIfje2YJjXL2ZvLutwS57Wdq7z5ka3WG50kfuihE43VpHpOyZWfUQvnO1ZcrozvTO3srtjwLT/7kzPMypydlJdtIRc6eagcUOZujyFl35ux6pT05E1N7Pz/I+WkFyFJ5CpPOW0I4IvF6eIAJ9t3o3bIS3xXqR83pj/hsg1G/21xZNYC+XZpS55fsNBu5hsPyqUdcLPHyO0JWzFfdz83N1YxA6tnImeXxVe+7tTbT+25NfambMXIWSYTzZXaPGaxtOKHFoD6j6bf2BlfeuKo4lfJ2Zjhet7ay4+gBDuiPK1IiwZsnS/ORtWtnWp+RiOGK+6GZ5Pl5Kv3XvTbkN0LONipy1nkRMy6bJBtpkLPhA9doN4iSYCRntQZy2CeWT8+2MyVreUaM2a8oVXJ82tOYpr2sIWePOVCrMCNr9uOwWrKSZoEn18Y0pb8iZ4uuhnzux2qterFoIlP6dqBxniI0KDqOvc/e8WBrTYpX6oHdhvRypXg8DtSnuX1NKu90Jsy0zw57WTO1A9n7f75b4+d+nkD0p5sc7/QXGpQuSa1Os5i1St/RUNVRpLVF/xpU3uVMkHKTKFM3jX7Hk+2DGNlHjaFodup1GssGh5Q2j8Dz7m5G9utMt4Zl+UPBIbRZ9UFdP4rQ14dYXKkco6bNYdycLSwbvZlXwSHE+l5m6KAjTBs4lLlr7fjb1Itck0eFKg++N70pY6qVZ9adyOTre+w73uwbSZZyMxktP/yrIvL9ZZPokr0fy866aN9CC+KdjnFkVin+PnIHG96YDkYp0PMg9uXsaKrImW1DkCT8er45U4g1+82ZUmSwmiCbK9C8b09GH1NObjyeiIAz7Bjaigol5VUf38RvOaKcDnN6biFqDJnHZkU4Ul453mENE5q0pU6jDVz1jDU8Qo42T84uy++cFW3A5nfageQIesq9eV0o9MsEuix5a2HyaiRnFXIzss1kziR/N0lDjOtJdg1oQ9Ziq1ly2dtwFyn0BfdX9abUf7ehwaTTPEs2R0JxuXmeB3df4qmT0jhfXm9ozqCR1alUqzHdvq3OyvPuOOt+pJMz+ebsoYzAi8crRtEtXyMGHXVJvEOiIcydl+ce8vqjNw4nR9K9RX6+HbSZ28ne1Iom0v0JF0+/5rWn/oFpcmQ2UbeRM/M/Qq1DXrcYMmQI5cqV489//rP2Y9S7d+/Wkj2z/X6ykkmz+lBw+QM+JnsS4sSbPctp/eNsVhz9mObv5aSHzNo8s+TMOpuH8HH7CIZl+Rului/hkL5NYjK4cmxcM9q27sS8x7FEqHEm3JpMw9ZDqT7L+FQrxpt3G4pR4QuQsw4FxrLrqR+RPteY2qgzJRotZrdp4PE+xYYOxSmXswSTT3nhYu7RdWp4PA/7zire9L6Jo/GQIOLdAVZ2rccf/96dkYediI95xf6RgyhSeBjTn5hs+hPxnCszGlL9+7/Tc8kNXiXE47htEDOKFKHrjKe8SFRfBH5XZzKw1vf8T89lLNFuu39OzqKj4gnyuM+Hg8Oo89dm1Bh8irvJXCeGT4+u8uD6IzxCoon49J4rF5/yxFnZ2lhCw5vpNK7Wi9IDbuAUqmLf4/OcVzEs+SajbzjatTCd+k9l/Vu1LipylmAjZ5/BRs7MQ+pm7psz8JFvzlQynRxBfNjSmho18vG3Yfu4be4d8uAnHLUvSvkB45j8RBzEA8/jcyn/0xiGrXuv6KBCyGMefClyVqMf+xXXCfW+zonG+WjfcCqrH5jYPOQu++2L8EvVelTZ7UhYOm6QnJy94WTrAnSo2IpZT0wq+h1geet8lP2lOgtvhalcKxTv21e4e+2p4e2ARPhyaVgbOuRszcZHKv7dWUaPnPUp0XgLJ1LkWIFv7nD79AXe+soz9wR8Dn0JchZH0JstLPz7X+k7cAeyTUAiPA+ztUdectVuTJ0TXoSF+OFw/SBHH71Ksat3INdHVqW7XU8WPwojwP01Fy4856XKVZPh1ijKle5LrbH3NbIaG/aa29OL0KFNYfI0mUGfBY/VCiYX/sjZtjMZ/uMPlO9fkApbX/EmQHSdgNuJIUxpX4jaky7zyGQdSXh3iO0Dq5C713rWP5PM24V7yybS2ZScySWCXvN072AqVO/LyD2vTD5x8MZ1zUBKZqtMie67bd+cmeBXQ870H8Mzq6iEEKIerqJtrbyUaj2cbXc+8vGjLu+4trYrrVuWo8L887wPMJm4Ma68OTCC8iXz0GTkBs68NKn3/iaHJ1ejYpdutD3oQmi0YZLKLmkbWnWlbYmpHHLTyZkTl/vWZEC2skw+8p4niW2LPOLGthH0LlKIhoN3cjTxrlYCCTHiUN74+oQSlar9hZxdZFuZ7PSs3pPlt02vLXKVo9Pa0apQJTqteMizxCAZTfDLPawoWYhsFXsz7OA9Y/m3vLu6nAnVitO730IuJBIm1R/Xg8oB8/F/vvmeHwqt4qTK2BLjmeclTi9uy48dV7NS+2gvgaA7q5jfowj5R69iw433xuvf5+a2BdiXG8GiXS/xD37O3skNyFW4OL3WXufOB2O/Hx1g58gulCq1iKUXPJLaMUFmE3UbOUubnAmkj0+fPmXo0KGULl1a27FRvjkzi9frmDy8KzkHnuGh6TdnMc+5s34i2fLNZ84ZV8MibyUya/OvQ84SiPO4wbGJVSlUIBftpu3j4hvjPDf63MfbG+nWcDyNep82bmKh/u/jdnpW7kux2us57+qBt787r9YWosyAtjRN8c2Z/8m2dBpQlF/WvcVHI2eXWFanI3ZVF3BGrXRJ5Owqp0cNpk2OIWx5GkpoQhwft3ShbasqlJ17ngfvpD9vuLqhK+1y/Z6suUsy8bSPYbfGuCCCfPxwcQshXPvKPBV82Mysdq0pUGY+256o6zk74fjuAoemdaT6d3/jr/9ZnyHyY/hx8QRcnsOkLiUoOHEr++4Z9PFI2+X1j/z42//CbulNnqogmuB1mmMTOlGi4GSmHrjPO9Hb4+PsGFmeH378b76xW85ybUczD17vmEGn7zsxY/tLZK+iqNAIAkM9ifQ6z5665chfqgt2ux4l6f/JDuY2K0fXtuM46xCE5/V1tKzYjsZDt3HqvSOOTs64vnvEleWVqDpiMIOuhxLtfIaDo0tRsPd0pp56w0dHJ5xdXvH63FJGlOnOuOnnkPxWfqA/zvZa42ewkTPzkLqZImcJ8Wrc5myuYpDnWRb2q8Lfi1Sj65Jr3H1tnP+aPOPR4TUML9eLSQsuGXdhDCTg3iaG/dKMPvbbueDpR6DnA+6usyN7+3lMuWiyNU+UD15H+1GunT1N1hi2FoxwOcDqXN9j32cl55KRs0ccrJOfgZW6sl05aEJ8EIFnx9KyeBtqd9vJVemP4yue7hlG61K/43dFmlJtr6P2yiDx4QR6eCsCGkxkCvUayJkeFwN4sbYFTauWotzQA9xwMIzz9bHOdCv+3/yUpxrz70UQnODIzX516VahDcP3POf1R0ecXBRpeLyVkS2HU77RAe7FxJIQ95pLnWpTLl8Daqy4xitdb+9PsL53beyqtWWDIpbBqk/+h2rSsF9lym5zSk7OPuxi5cQ2/NhrN6ed0ydnoY5H2FK+AK1bTGbpLdUnFxVH397h5NJyNCjwB36frzU1FQH09XnMqcmVKGzXn757n2mxyMnZAZcHm5hWsyuDBhzghSJwTmcWU6ekHW0nH1A6Nsa1V9c5OrcUpUZMYMzVQDVLFJQ9fE8NoEmeb/iPPK1pfsTDeJMqkBfLm1H79/+XPxdtzKIHUWjpsqqU4HKEHSOaUKhoH0btusdjTT83ODGrA83zlaT9khs81FJ6B24vGkv7H3uy6LSzYS8B7dfLYwhxOMz6ysVp33Y6K69JfQfe3VnLkmJ5yfJNHqr02Wt7cmaC/w82BDEiKpiPz3awpHsDquUpQIECSZK7fidqrTzDdQfZiMNUWfHEBKuE6Px8xtSuROlfTOvlI1vbkQw79wbHCMPuZFKeqJtsateTDmVnmDw5c+HumDa0/c3v+SFnAX4xabtggbwULV6M/gtOcNctyISEqIXR7SwrWo1i6oSTPEt1fY4nIvgae2sWpcof/0aWvKZ9FMlFxdpNmbn/FR+CtU1hkxAbQtDLXcyoVo5SWfMay+enQN4stB+xnBPPXDHNseXOycV+1Sjy2/xkn3qXN6Gi63iDxuTJ2bIOZO26htUPjHf1o/zweLaNBb2LULGI3p8SlC03mFnbH/PSO1yrHep6lePz7MhTsDB59H7nq0ipErNYdOoDLgGKxBiumAyZTdRt5Cx9cqbDx8dH+22ztWvX8uaN4c7oZ/A9yZK+g/i59EZOJD5yVfC6yMnVPflp5BH2vgkzLABWIrM2/zrkTBBNuN9T7h2axJDK5SiZX/cHJQWLUqDlJMbsfMl7F7VIG2sIqT3WrRWVfpeF4o06s+TcS26vq0SNYR1o9dmTsw50G1yKwhuSnpytaNiVzrUWf/7kbOxw7PIOY8tj5f9SOew5t5b2pvV3OY19yk/dEX3o1bIRA3OVYO4Zb5wkkAVdYuvEudRqcYirPsoGUtccov1xu7yQWW1/JF/BAuRX1yyYvxqtB8xgwcLR2P+Yjw4Tj3FZbo9GeeN+fzXTO/1CmUIGfVTu2oouA7rQ74csjFtyhXvaqw4RKk6oxGRGRyqWKahds0DVzlTr2p+Bfb7n53HLWaRtIy1PzmbTLUs3Zu80PDmLCg3BWy3Eco1wxzNsbV+fGln0eKckXxaa9JzIztuOBETEER3kyP11KjmpUpAcspFJwYIUyF+YnA0HMe70UzwlJqrY5vl4NZPLlqBMdhUztWvlo3DBfPSceU7F8gjtLrptK33zfbeRM/OQupkhZ7ImpG7zaALcX3B541iGqDlbyjQGFahMqVJzWbL3OW4+KsZp5dU65XuXQ70KUf6HrBTssYCNF+9ya0M3CnZdxPTPnpwZt9Jfl/TkbO0vWRg2YPXnT84aGra53+Gk5faq4/7cXtuW9hWykEv6U7Qi+dpMZmDfwtQc0IDKu9xU79V6F3SdDZ3GMHHIAe6rJcZUwwZyZvgJCzkTHfiQMxM60OQvWckt11R+PHjFVKZ3bknf/JVZejtSUbhIgt7tZ323+pT9+RdDXBHJU5kG3bay5024FjuVZYl2u82JYXY0+SG3id6yU6NFd5Ydf4VbiOwfkID3wXo0G1SDSjs+f3K2eoodWftl5MmZ0n60H/531jOzYVWK5za2V6oiOYfMYemS/vSq0o6irc/wICKQD682Mb9WOar+nM/YLxWT8vxEm2GbOfM2TPUrVvHnV1xd0pVaivBpOtakGFmbDWPm5VeGDe00xBDvtJvxpf5Otaq9Wf1e75eKCXfG0ql4dXKUW88VlaKLh8ZHqxgRH0ag6z3OLx1E8ZIlyKddW+mpbA06LbrKE68IYy78gTtLJtApa1+W6k/OYo0xJi6MkDf72NKkNnWM4y1TsRBDhg6lTb7O9Om+3fYj1CbIMDkTSEetTRgFEoyEnC1dulRLnC2BtJv+QhJHwNPLHF6zSiOCuqw5+YAzrjGEB8oTH3PKCuLj+UPsWG1Sb/Va1l13xMG4fhjaFiP54XTnAXcvvMYjcSJFEvjyHtd37WDTulWsNml75cpVrNu+n8c+KQ0cT0LoR+7vv8C1yx+MP3BoDmohi/TE5fJZTm/fwoYUY1u1ag17z9zCLdX5E8OH47vYvXhhYp3V6zZz0zlMnUmJGMKe3uD6kQucdgvTnubJE8s4mZzRKjh/uMsJufsdaFozioD7uzm4Se/PJrbtf4iTcZokaOpW/+f3goM7N7JG7/fqfew56prmK3AZs3nqEJJi7QIudTKTPEjfrfUVCQbWEjuBBAXZrVHI2YkTJ4xHMwYJhJL4mA1I8YrArR1Jl6q1GH3ZK/HnEwJPTGdR1aJ03PWKZ8m+LbIcmbW5xBXDAv55PyTgSmJUq1YtZsyYYTyaBDmfGZtriPPk9fE9bNPnuSZrWXX0Ke8+eyU5itBn17iyfQObdx7ixjtv5WOXuPpUJUj6t55GxHrd5f6T85x1NPptgi8O1+9x7+p7PqlpJjPF19eHyFBXPj1/yp1TT3AKNG4VLQhy4OVmFdOMfTr45B6n5sxhWc72rL/hh6uoK/Ijzy7fYvu+N7ik96NDCW54Pd7IFhXvli9bpmL6Tk7ec8Qn1BOnk0e48cAJt0T+HorPrW3sWW9oe8eFK9x594GPJ07x9t0nlTTEG7aDFvje5Pju9Qa97bjAobvvcHE4rhKQ97zRXqdROnN9w/3j93njKl9QKD9X5OyTl7ec1BD59CqX16826l7J6vVceOmZ/HX3iNfcPbudVcuXaTcLV65ax9ozH3BMlvOG43P6EEfXGq+zajXrNu/kvldkol4zsybqfm7N4i+QejLXw8I+m1gZgrSdMmHMKKSejD21vguBmDhxouZr5m4QZUZvArm5K7HKGuh9twYy3sz0Xepu375dI2dr1qwxHs04ZE0Qm6eZP0W48HrreraY5jOrtrNx+yscPovP4fi/OsZxVX7T8ds8cfXHz/E+Z++/57WPSaacEE2Emzp+4z43HAyrdkKkBx9PH+fpo494J5tGQXhcP8uTKw8w4SjKMe/z5IzKx1R/Vq7ZxuoLzjzYW4/x8xrR7WSIIbmPduXx4YtcPvualPu/ybqU0uZxjk+5v3ldYl5x4Y0jjs9f8OH0RT74KVsZSuHz4ipHVi1j1cqVBn2sOcTFR15GQpGEeKdH3NuwJilPUXHh8I3neGh9Meguyv0aNx9f4ZJLio3dwt34+OoOJx658Sky6YyeS5j3lRCcrx1nr57XbdjBuoe++AY58fG6IounnPFU1fwjPPl05hDn15nEtTUbuPrBJ/lbRyFPuHZ8a2L/V67exMpT73BLOV1ifXC4fIr7N5/iY+oKYQ48vnKfM1d8tRt78hMxsdJ3w1llhOcc2b3JmOOuYfORS2i/rJSIMPzfv+DuiYe8V4QtRPmafJObhHgCbp7mpHG8G3fs4qGzM88uveT5XafEnEKHEHK5cWwN/P39sbe318iZ7D5tCXQ/tzY+ZjZ/FHwjg8+oCBOVXd/MnUtLJJDKArJo0SIqVqzI7Nmztd+QkGPmypsTaVfaN3cuUYLCiNAeoaZEPBEBPjg5OmrXESdPqhdEUIjO+lMgPpro0CDNyDJBAgIMbUTGy/M3FaxCAgnSrhFCWIwiW8Zqn0ExlIiQAIICAj5rN0ZdKS4ukrAg/Xhy0dr2DSAsrdeM1DWiQvW+JImMMyAwFE//QMKikt+SiI8OJ/SzNtU4dP1FhRKizvv4GG0eHE64SqLkN8yiwoIT6wQFK51/Nn9jtTIBRr35+wcRGmluMYtSelF6SNaHJMmQzVMRGbskCE5OyuE/s3n6kmRzU5tlTKSOtCliTX29bfmvufNpifiUp6cnPXv21BKjPXv2aGOXO63mypuK+Kn8Rpre/5TnIyITiHQ5zbXljelRvxt9Bo5i1Ch7erSoT782U7jyWs0Zo2XNQRKa9PrxpWwuujO1uSQzolP9BtH48eO18Zr2R+pI29ba3NdX2Vz5m/m0L4bo8CS/MYjyt0S/jlcxwJ8QIUXyG2IRycsGh6s4IS4UFUKwjCsonKgEYxwKVn6u2pdxe3iqxVrpWaJRTJg/YY43FFHcxcqDbw1P0XT4HWTLoCbUqzCX/Y89cA8NVn4YSrTWSKR2zdT8UiQoVMWBZH4fR5yKKZERUdr442MjCQ82lg1Rx02zGLXwye/uSLnoqDCC/Hw12wQGhRCSvKC6rNKbFIyJUrFYrhesYokiFep/0ZESo1QiqOZ7ks1Dzb+SGRuV2B8t9oZL5E0J1Vay2Kb6bTxjijjVZ4mNBptbtyaKZMbPZW5LPRm3+Lul8U3vuzVti+h+aq6+xCB5+j5ixAjN1+Q7VrlhZNrHzOhNriNP5mTsMg5Lx56ZGCPjtbbvEmuEXKxbt45//OMfWj4kCVxG+y/lpF0Zt8Q58/WCVKww+ODniCIkQNnMpO9BwcpfEpfmWKIjwlSuoBw7LpqYZPFKzbcQdd2oCGIjDO1K/iJZRazKCZJ8SySUCOWCscp/Y2MC8HG+y6X5c9l+6AkOhoYMiH/DVvuqNOnQi6X3gxUhUfFY+Zy8RxOXoK5pkp/oNndWiXySzVUsiE7xLpQ81YxV5Fv9OypM6cLYn5BIRagNRZIQF5Ei7/r8eoKE2GhC/H0SbR6sBqf9JGRkiOqHSf2QSKLkrQZ13XCV1+jHZc6Y93NVJljpMGW4UrEzIkLio/QkkmBVz8nRFf/wz6NRQozJGJT+giNE68mREK1sHJw89ww05rwJaiCSxyaeC5XYKlcwXFf3Fa3vEp+TbU9pQFyErEn6NdSaFqVltUSp+eOvxi3rYlLbhrlhCiF/chsxNj55Hiw2dnd312yeVD99kXria44q3+/bty85c+bU3gqSJ2HmypuTzPi5iG5zmavmzmdEvpG7MBkVcQ4Rc+fSEhmkdHLevHmUL19ee6XIwcFBO2auvDnJaNsS/FKKKMlNkUH5DSdZyORY8nqf10kUdV4CoUySz9pIrK/EtI6JyDlp09PTQ7tOYnlNkpczJ3rb8l/T634mZurKcann8PGjNsFFD0l1Pi+vSYrzonPpf7JzpuWVJF3TRNRxaVvqa+M2V0YkxbVMJaM2NydybbkBkLrN0xZd7+bOpSf6uBPHbqZMWqK3bU1d8Smxdffu3alRo4b2pEjsLj5orrw5kX4n2lyJ9EMkRAV0QbTbFfY3qUPjcuW0zUTq9pnMmhfxny9+KSCJSHr9yKzNXVxcNJtLf01tLsHSzc2N5cuXU7lyZcaMGZMYfPUyMmZr25b2DH03zDWzYqae7hfybw/N5ro/pSyrXyfpWOJ1lUj7Mm5nZxe8xc99/fH3difg8R5Gt2pGodJt6bNgPas3bGbjho3MH1aT+h0b0HblFR65SIxWY/A0iTHJ2jYnydsW3ek6N3eNZMdNRM55mtrcTJlE0a+XeMxwXZnvyWyeeD656H0xiOGY3vfEcsnKpNZvwzmpm5n5KvWt9XPph9STccucl7/NlUtLpN+mfm6J6L5iru+SWDx79kz7jlV8TWKQ3Bwx7WNm9CbX+czmZsqlJl/Gzy2vL7FGYpA8Mfjxxx+1fEhuhmW0/1JO+p6+zc3NWRFDjPnM5inKJP5tWkaJ1BNJsnlSPdNyIobjfgSEeuL8/DBbG5ekYdmWdJy8no2bNrFl7RJWj+pJlYq9aTX2ILfcA7RXk32NPp3ymvK32FzyxmQ2N5Y1Kyb19b6nLKOfT5QU57UyRpsn6i3xXIq6qehD+pu6nyfVMSc+Pkk2l3wmeQ5nkGTXS3FORPr+edsmZVI5Ln9L28nq63WSiWn9pDLyb3O+8nn9JElZTm5EiM1Nj6cnUk/W9rdv39KrVy9y5MjBtWvXEt+kyojIeJPZ3EJJ2+YZk2/k8VtGRe5+Cfs0dy4tkUeEIitXrtTupC1evFhjt3LMXHlzIu3q73BaKtKOLA6ibP3xsrlyqYk83pQgKo84zZ1PS6SO9F3EmvrytEHalj6YO5+WyDilTZkgkrRbOm4R0bnozNy59ET6LPWt6btIZm0ud0/EuaT9fyeby51r06305Zgl40/N5nINA9S8Cg8lTOlXdCxPMszfqf0c6fUjszaXp2Fic9GhaVvyb7n2li1btO9gpk2bph0zLSNj/hI2N3c+PdFtLv81dz4tkTFI++LniXFVG5s6F6fG9GInSwdWIXvOXOTKlVtJLnJW60ffnc/xk6d0qmyUattaP5d6X9PPZczmbJ4RyazNpd9fy+ZST8Ytc97ScUvfpe3M2txc36UvkpjI02nxtaNHj2rHTPuYGb3JdYQAynyXcVg6dr3v5s6lJzJea/su/ZS68t2rvNYoJC2lXtISKSc+9r/R5ubFEIPi41SbLidY06k+ZXKoGJQ7N7lz5SFXjrYMW3uft1HK94x60MqbuZackxzma9rcWr3puUTG9ZYkpjaXtdZam1sbmy23eXKRupnxc7mpKkTF3PnUROqJCJEdOHCg9lrjixcvLNLdl7K56N/c+YyIRd+cSUelUWth+s2ZTDRLIO1K+9ZCWLM4tijdUoiCZYKJcS2F1JG+i1hTX4wkbUsfrIXcSZAExhqIzq3RmUD6LPWt7XtmbS4kRRzbmvZ/zTaXoKCTM0u/ORNkxuaZRWZtrn9zJjpMCRmT3MWXhNHcN2dy/kvY3BroNjfX74xA2hc/Nx9XQwnyeM3D+/e4d88g91+64WZSVNq21uZS72v6uYw5NZunh8zaXPr9tWwu9WTcaX5/lAqk71/C5qn1XZJJ+eZMfM3cN2eZ0ZtAyInMd2vspvfdGsh4M9N3qZuZb87Ex/632jxtROPz4QWPb980xqD73HvggGdwxmOG5DBf0+bW6k3PJazTW5LNJZ+xFLrNrY3NmbN55v1cbsIIybIG8qRa3xAk1R2oU8GXsrk1c1XH/z+7NaYD/VscayaKGEi/62IpdCOLWFNfjKzfubAGoi9xbJnklkK3ubXOJX2W+tb2PbM2lwXMWkL+a7a5Nbs16siszTOLzNpcEnX97mpKyJj+Wbs1mtrcmr7rNjfX74xA2hc/tzSuCqSutG2tzaWetX4uusqszWXMqdk8PWTW5tLvr2VzqSfjtvRGp+BL2Ty1vstbKrbdGj+H1P3n7daYNjJjcxlrejZPC9Z5dnJIDvM1bS7XsKa+nktYozeBbnNrCLluc2tjc6ZsrupL3cz4uTwttZaQy6uNtq30MwgbObO8vkwSa51LIPqykTPL2/8129xGzmzkzBJIXWnbWptLPWv9XHSVWZvbyJmNnFkCve/W2iwzNpe6/5bk7AvY3EbObOTMEtjImQWwkTPL68sksda5BKIvGzmzvP1fs82/JjmT+jJma22WWZvbyJmNnFmCzNpc+v21bC71vkaiLtBtnlrfbeTMPKSujZxZBxs5s5EzS2AjZxbARs4sry+TxFrnEoi+bOTM8vZ/zTb/muRMD+Zfy+Y2cmYjZ5YgszaXfn8tm0u9r5GoC3Sbp9Z3GzkzD6lrI2fWwUbObOTMEtjImQWwkTPL68sksda5BKIvGzmzvP1fs81t5MxGziyB1JW2v4bNRVeZtbmNnNnImSXQ+26tzTJjc6lrI2fWwUbObOTMEtjImQWwkTPL68sksda5BKIvGzmzvP1fs81t5MxGziyB1JW2v4bNRVeZtbmNnNnImSXQ+26tzTJjc6lrI2fWwUbObOTMEtjImQWwkTPL68sksda5BKIvGzmzvP1fs81t5MxGziyB1JW2v4bNRVeZtbmNnNnImSXQ+26tzTJjc6lrI2f/r733AK/iSraF/b1333/vjCfdcbbJ2RjbBAfAxgSBE7YB22ByEhlEDiLnnAzG5Awii4zIOQchEJIQAgQoIAFCBCUU179Xn7Olg2iF3i18RqZrvrKG011dtWvtqt6rT3cfNbHImUXOjIhFzgyIRc6M23OSqBYXhfmyyJlx//kZc4ucWeTMiNCWvp2BOXNlFnOLnFnkzIjI2FUxM4M5bS1ypiYWObPImRGxyJkBsciZcXtOEtXiojBfFjkz7j8/Y26RM4ucGRHa0rczMGeuzGJukTOLnBkRGbsqZmYwp61FztTEImcWOTMiFjkzIBY5M27PSaJaXBTmyyJnxv3nZ8wtcmaRMyNCW/p2BubMlVnMLXJmkTMjImNXxcwM5rS1yJmaWOTMImdG5IUhZxJk1QlOUSVnEmQzg1UlZ/RtprgYLycn41eJnT5Vi4vC+FXJmcTczATluFUbg1nMVckZfXPMZjBn7M7C3Aw5M4s57cxirpo3Sm7IWc2aNZ8hZ3mJuUremC8zmNN/XpAzZ2Ku4puiSs4cMVeZb87GnONVXajLHvO8MM+OnJnNG0WVnJnFnHkzEzv9Oouc5RXmRuuMkheYS3Jm1D6vMFfNm6xzlbxRJOYq5MwM5jJvZjCnbzOY53dypoo55SU6z40y0Pj4eM0hyYbePlmpDHDWrFmoVq0aJk+ejKioqHTwc1L6o1/6N+qbykSxmYeFhWkLV/5bbz89lcSKviVYRlTGrpI3s745Th6DpJQT1ci4qWYwp9KetmbyZgZzNnMuEngMo5hL32ZiV8kb95d5V/FN4Vzv0KED6tSpg40bN2r1R9XbP7NK3yqxU2lP2z86b1RizGZOzHkMR8x5omDtL1y4EDVq1MCIESO0nPBzbpe+nYW5Gd8cJ+047vv37xua61T6/zNinpM65l3Ft5nYHX2rYk57jpvjN4o5fT4vzCk3b97EwIEDtQsh7EEUGaO0VfXN43Ce87zGY+UXzNlruMAmOXvnnXcwc+bMp/KSk3I/xk3MeW4zMm7q88Q8J80LzLlmJOa0zy+Yc3+Zd5W8Scy5duV53ei4pW8zsdNWJXYzvqkcK9etRjHnfjy3k8i7ubmhWLFi8PHx0WpNb389pT9nYS71JRrnVulMJltve1ZKRxRJziZNmoS7d+9q5Exvfz2lTxXfVPrnCSw0NFRrjvy33n5ZqRnftDFjT1W1lROMzZz5NjpuKn2bGbuZcZux51h5AmdT47emsmByq2Z8S1tn5I3CuU5yVrt2bXh6emq5YMPS219Ppe8/OnaqGXtHzEnEHDGXC6MFCxagevXqGD58eHoTl/uY8S1tzdqr2HKctOW4uYBRqXP6laq3PTs1EzvVjD3HyjHrYZ4bNeNb2pq1V7HlODleM5hL33kdOyU4OBju7u7ahZANGzZonzlik519TsqxctHG8xqPkV8wZ69xJGczZsx4Ji/ZKffjuYyYs8/9J2GeG1XNG9URc9o7A3P+NWuvtz07dcSc5/U/EnNpoxo7lbZmxs51q1HMuR/P7Y7kzNvbW6s1vf311HHcKrE72uttz42+RIKUW5VGXOjobc9KpcjbGqdNm6ZdBaDo7a+nTDgHygantz07pbApSgZO0dtPTykEmr75V2+f7JTxykllNHYKc03fLEq9fbJTac9JysKm6O2XnapiTpWNRCV2qlnM5S1u9E/R209PKWYxl3lTwZw2ZjBnM5e3NTreUqS3v54ybuY+P2Iub3EjbhTHbTz2kiVLnrmtUW5nzHmBuUp/NIs57Tluo32VynidjblK3qiUrDDPSSkSc5X55mzMOV6OW97KqrdfVsp46ft5YE7hYlLvtka5j1nMOc95XmMOKXr76SnFmZjTTt7WyPWQFL39MyuFsRNzeVuj3n5ZaV5hrtIfqap5o1IyP3Omt5+eUvICc5W8UZgv+lbJG4Wxc+3KNSxFbz89pZjBnPs7G3OuW3lbI+0pevtlVimOtzVeunRJ+0xvfz11JuZSrReC5EJkouUEMSK0YewSZKPCSSJBVhHmiw1N5ZkziblKziiMmfaqsZvFnM3McdFmRPIz5ryibr0Q5Nl7vRmb9UKQZ4W29O0MzJkrs5hLcqaSO7OYM25nYU47x4W6EckrzLOKnVe7rReCPCu0tV4IoiaZyZkRyQvMeQwVe7mWUMkbRWIuyZkRkZir9mZnYy7JmUreHcmZ9bbGHMQiZ8btOUlUi4vCfFnkzLj//Iy5Rc4scmZEaEvfzsCcuTKLuUXOLHJmRGTsqpiZwZy2FjlTE4ucWeTMiFjkzIBY5My4PSeJanFRmC+LnBn3n58xt8iZRc6MCG3p2xmYM1dmMbfImUXOjIiMXRUzM5jT1iJnamKRM4ucGRGLnBkQi5wZt+ckUS0uCvNlkTPj/vMz5hY5s8iZEaEtfTsDc+bKLOYWObPImRGRsatiZgZz2lrkTE0scmaRMyNikTMDYpEz4/acJKrFRWG+LHJm3H9+xtwiZxY5MyK0pW9nYM5cmcXcImcWOTMiMnZVzMxgTluLnKmJRc4scmZELHJmQCxyZtyek0S1uCjMl0XOjPvPz5hb5MwJ5EzEm5ScghTmTSH2lBQu9C1ypiIWObPImRGRsatiZgZz2jqLnInM44ki5hwr+xtt0xRynheYW+TMImdGxCJnBsQiZ8btOUlUi4vCfFnkzLj//Iy5Rc6cQM7sf0UG7WpM6DIpib7VTuCM2SJnxnOXgbkKZhY5yyp2i5zpC22dR85E/IlqvZ1DVevoNskLzC1yZpEzI2KRMwPyfMhZDB4EHsH60Svhdfgm7to/zSzZkrOEaDxOToDtl8CeFTOJpg1jp6rYc5KoFheF+fpPI2dPnqTg8X3bj5WmJQXDe+Y4bF68Hb6ZzjdZY547sciZRc4chbE9L3KWGHoI+zcPx7CdPrgcbdSe+4u5GhqPuBjjvimM2SJnxhcQGuZJ9pzHPEBywmNonSkhAhFnV2PCyv3YHqDfO5k3xs34VWKXda4SN4V2qgv1vMI8q9gtcqYvtH3u5Cw1BJfWDMSo/r3Qq5dNew+agtHbbuK2HlxPHiAuKQ5R9n/qSnIMHvpuwK/LPLH4RLhhopYXmOc1OUsKO4gj++di9pkQRMTZP9QRiTmPoYK5XEuo1rnE3CJnxsQiZwbk+ZCzaESeXodJP47AvLV+CLF/mll0yVlaLB5fu4TDC7yw8/JthNo/zixmEk0bxk5VseckUS0uCvPlfHJmL+zUeERf3YXdew/iwIV420dPLmB3h0b41X02Dt3XPkqXrDHPnVjkzCJnjsLYnhc5e3JlDTx++wHfLzqIUxFGTmRJeHzzELy3LcbWA/cQabxMNWHMFjkzvoBgzMnx0Xh44zx2bNyDY5dDoHWmmGBc3zkGjUeswOwTkdq+mYV5Y9yMXyV2WecqcVNol+NCPQvJK8yzit0iZ/pC2+dHzlIQH3wePkuHYlizj1Dz8yqoUsWmlatWw4e/9MDIpWcQECFi1/aPR3zoZRxb6AWvCzdxQ/ssC0l8gKgjU9Fx+HQM3HxVdC1jkheY5zU5iz3SCwPc3sJrEw7i9B37hzoiMecxVDAnZmbqXGJukTNjYpEzA/L8bmuUv6pt/6eOMEkEmvtmSDCC1oxH2aITMGxTaJYNx0yiacPYE5PUCjNDjE8QKVFRd/HwQVbfC2YvqcmJYvzqE+wp+7QInBr7KTr3csPUC7aPKLyHXcPP/m8pKepD1iQ+1iJnFjnLEMb2/F4IYmvmVD5/lnuJRcCczhhevAImbgtHNmuEbIUxq5IziplSS002g7kDObN/YlQSBG4qF58o2iyJ8sOVNR3xQdtpGLbfgYgJHIllznGp9UdZ5yoLHwrtLHJmPPcydpUew/HK2FXsafvcyFlKCI4NbQHXojXhttofV6JjtYvS1Mc3d8JzYHGU/Wc9dJ3hgwgt9Nu4s2MKKhQbjZ6Lr9kuSmQjyUmJiNfOS8bnK3OVmJSbWspazJAzmzDujAjijvXHkN5FUXDKYZzN6pYru6SJdQznjQrmci2hWucSc4ucGROLnBkQ5zxzJhqCWDg9evQYYWHhSHRoLGlJ/vBeMAhvvToUfVYEIiZVNg/xNy01/cScq0SL/QloitjH8fEF2iQlJSNFHINxcBHHh//5jEP2IxHbxfESE5PEYjseybrFIfbRjvesXyn0woaW+8WLWJDYjyfCFA01WfxbFLbD+LKN22E/5prxp/JAPG7CNewfUAYt2rfBqFO2hU92wpNBQnyclv8c/cq47bmlxMXFItIiZ/ZPcyeyztmUVEQ2c9XY1evcJk4jZ0JtEdNv5thZp7a6yPxsU1paFLwnNkfvV0ti+LogBOewgGFetN6RaSfGrEvOtP0z6kL32GkpiBdzhmPPTZ3Zek7G8Yh1ooa5Q29l/5T1mA2WHE/uMHfw+9RuaXgoTuAkA3xhQdbybH+gaLjdPi3OA41R+JfR6L31pvCTRZ7ShbGwrychPj5exJ7DXLf3aGLkeFxZ53pzNTdCO4ucGa9VGbtKj+F4Zewq9rR9buQsaifG/twOpd+bik3PkI0E3PeegkEFiqBT18U4IphYWlowrq8djiKvuaPdzIt48My8t9ecyLEoG9iusXIPvXGLfUVuWF8pTxeoJvwkKUmcVxJFf+V+4pg6uwmx1ZZer8qanLHHsb/yIq/9I01sx9Lq7IlYSwh1lLjj7hjWtySKTjuCc5nypcWgjSdF6ytPuI7hOU0Bc7mWyKpWchKJuUXOjIlFzgzI8yFnjxB1wQvzO8/E6h1BtmfObh/C4Y090WnzaezYPATzerugevUaqFarAepO3I+T2s3VN3BsRT9ULlsMf/nvYihSriq6TlmFc6JpJUZdwPHfmmHc0s3YH86xi8X2k6wSnYzwHUMwqnkduLi4CP0aX9YdgxWn7kC7jVkLV/wn5hy2uLdHk9rcxwW167dEvTV+CLI9eiUkFY9vHIBX907YuNsLOxfNwTixX61aLqj5ZV30XnEC/rH2XTUJx/mRvdCjju14LrUb4Nt667DLT948/RBR53dgbscZmLP8GK7GStwSkRx5Amv6/Yr5s0/ipvgk5tYh7HbriM2rV2Dp9Enooh1PjKPeVCw79RBJj87j4CxX+/i+wjf9PbDmsj2YxLu4d2ohBizYixkrJ2P1RJmHr1Cn53Ks8rHhnPLAF4enfo/6Zf+Otwu8g+K1uqLtklMIjLqE06N7YtmklTj9UNvVLmE4M3cIXGvV0HLgUqcuvp6xBzvv2TdDFE7ECazuNxcblm3Fvu3z0V/4rUPfX9XF0CVeOBstzlcsbJJLg2KmuGjD+UpVsddOJooNlWKRsz+enCUGb8PmZe3Rbv1pXOSX1BF7sGbNMvRddgSndo5Fz3bfa3VR+6su6Nj3DK5rLu4gYKY73Eq9jcL/8zKKla+JzyZsweabWfTY5Gvw9VyMJo1XY/W5e6KSM4QxP03OhIMb2zGwc2N8qdWj8N2oAxptvoanDp8agesbf0G7n2qiZs2aou4bomX3NTjhcC0nKXgzdqzvh05bz2G/Zw9M7Wo/3vet0XDWSZy/xyYmF0YPEXN6Cnq2qmvvA3VQt5Ubpp28jwd2SJOCt2Drys7ouOk8LkbZyGOyiD9N9AKfTZ3QeeU2bOH96Y99cMprETrP24/1KztgVHcerzbq/NIVLXYG4x6icGfRCPQR55TPq1XHVz82xYJjN2G7OzoJ9/12YFtX0dc8N2Dx2JHoqMVTG181aIz5x0LFmUPIAx8cmdMKNcu/hb++WQJFyjdCz0lH4H8vAjePzUXv3zZh5XnHp3EeiQWtG/r9zN5cCzVrNUS9xltwNNJhvkVdhPfW7uiy8TDWbp+KNUNt+XKpXQ/fDNsMrxu2pq992yrmm+qijXYWOTNeqzJ2lR7D8crYVexp+9zI2e216P1dC/xvpbnYq7OOT0uOxo2dnjh/JhDhscGi1kbApWJJvPw/RVGgTGW0H78cJ65E4OrJxei98wAWzHPH9CYu+LJ1f0zefRVBx5Zi9KwlmLTH9gBI4r0z2NurMzw3b8SutSswlT1B1JfLl9/CbeE+nMu0xIu9NBWz+9Wxn6MbovbgLVi1dih+3TAGQ45EQ1AhUfOnsbrHeEwesQMX09dGNrGRM7EASOOcu4WT41bi0LjFWLduojjmD6LGpmPpwUjbHVCJ13B5VT20bGCrvZouosf1F2N3eLbsKXKWvq6Ix4PTyzDq2y/xtdYvxJi6TsKwk08tTgyJXEuo1rnE3CJnxiTfkzMGkRuVziRQRlQOTpKzqVOn2m8xtCUhN0q/z/jWxh2G61smoNnff0DPcYcRJD5JvbJEkLWX8D9VaqJ53/aYPNIV7ds3Q4M6lVG2SD30n3cGl2MEudk6Bj9WK4+//7UC3q/xE0Ys3QG/WLEwjvLHueV9McdzD47f5tjFBLVPcJtvW8KTY28haO9wdGn0Kb6oXR+t27VDu5YN8dNHn6PyV1MxaUeYoBAJiPLfjpn9f0Aj0UAaNXVFu3Yt0bRBdZT6qDFazjuII/d5vERE+czBmL//N6p+2kLEOwkTXMW+bRqjuct7KFSjP3p4XNHIZ+KjGwjc0xcjfq6PX+q5wtW1Hdo0qodapSuixthVWH+d7SkcwZvGofHL36P9gI3wjpPF9QjxgcvQq3BdNG24HGfFJ1EX5mH83/4fPi/zAxo0GY6+wm+bpvXg8m4h1G7YHu7TJ2PC+KHCTxu0bVELnxSriSZ9VuEE78GKvYmbKxvj3U+r4I0vaqJ+95/E+ERMrX9Ejc8/R81hc7GGq8GYIHgvbofWn76CkmVKo9IvozF0sw+uR+7GsvKvoZ0gax6CCHNRlXr7PDymtkHzr+ugwU8ip+3o1wUVy3+DrwatgmcYiz0WyYFL0bd4JXxYTuRx5GSMEH7bu7ZEy1pF8En1Tmg7MxD+dyKRkiYKTBTJU3MnB2VDkU1Nb3t2Shs5X1Xs2RDom3/1tmenFJ64O3bsqJGzzZs3a/VH1ds/s8o65/j1tuekMm+q9rp1nktlI+Sijc+W0j//LbdRGNeSJUs0EjJy5Mj0viT3oV/DmNubb+ypMRjT5WX8ddB6bL0ljhs0GwOal8d/ffwjuo0dhl79uon6ccXPX1RFRTFfO+0LxI3H93DdYzIGf1ISH/ztf1Hxy+ZoNP8gDoTbTuTPaOINBOzagD69t2P7xXtIsH/OcXKuRNyOwINH4gSe9hi3z63FhDZVUO6Luvi2OWuoBX7+7jOUqfQLBi07h8vxok9GHMX+JZ3RstnH+K5JU7FPO7j+/BW+/rgu6vbyhNflB6J7ibx5T8CEVv+F//f5V+g8qB3GDWHPaY6GX36G90s2xvDl3rjGRU9qJG4d24Rhzdrgm4ZN0YL9q10D1HephppfT8Oq47e1ly49OT0cI7v+HX8dsgHbgtmrxBjEf5NueGHT0Jfx966jMPy8+ODeLqweVA3/Va4GXNo3QI8B9Psz6n9ZGW9WbYe2fWdiXq+hGNK+PVr8/CW+/6QgPvt5NhYcvSv6biLC90/EkP/zEj4r54Jvf+wueoPIQ5uf0bjWe6hQbxpmHQxB7JNAeK/qjSa1SuBfxT/C+3W6YeLic7gW5otzCxrirXpD0dXT9jTOk7DTODmpp+ibLvjml+Zavlr9XBc1S1bBD13WYJP3I21hmBK6BxsH/F/8s/Ln+KZbe0wfx7hbo2XDGviw0JfoOGoHLgi+l5aajETFOifmnOOc65zzjnM9N8o5zm/9zNa5XuyUkJAQDBo0SKu1TZs2aZ/JGGWPMVPnXD9wwUr/RsfO2FV905+M3WhvpzDnkpzNmjVL+yy38XM/fczt3wbH+mPd0KaoXOw9uLQRxGPMWIzbdBrH9a6DJ4Xh8u6paFrnI/zr5Q9Rpkp9DF64FRcu++H47O/wxtefoWazXzCsiys6DpmKJYf84LeqPT76sSNq/+or6jUVcTfX4Ne3Xsbn5eujZbupmCjqvb3oC22/KociX3RD2/mXEKZxgiQkhx/C9LZfoVqlL1CPfaZdRzRx7YDvq/8Fb7p8jg8XX0ecWGch9iK2jZ2Hhb8dRED802O3YX4PaaK209LOYW31b/DLKzXwdW931G/ZRdTYCmw+ex/RwXvgNacNmjb5GPWatRC+RN3Xr4nan9RHg4FeOHQjVruwxdsah/YpiSJTeVuj6EBJITi4diF6NW2L1g1a2dZz7VqjfoMvUbXnYEw8G457T3jOyN25VGp2tZKTctyca8ScF95yO1ekylpT8U2V50QV+7yo8/v372sXYXis3I6d+/HcTlLn5uamkTNfX19ORN399dSxzvW256QSc6M9wlFfovPcKhuLDNiI0hGFzYjkbPLkybh71/Y9st7+ekq/z/jWCj8E17ZNQ/tCTeA+5QgCxSfJ19ZgSYf/izfeehuNfz2OYNv6CeGnF2Nx5X/jixbjMC2An1xFkMdolCgwFoM33NIWItBeNSuSw/8vijA1yeZbnsg0v4nc+gRRl9Zh5jdFUa7eEIw9JTvgIzw6Ph2dfhyHAXOv4FGMN/b9+iX+WeYDNJt9POOFJWFeWO/yPl6u0ButNoqTjGgX0ZcWY+Jbr+Pt/22CTguDYbtWIxaZ/ovRtLQgOg1/x1HhOsrPA3Nd/okGg5ZiW/oFtAhc39oEzX6bgxk+vOQUJvIyFa4FGqPH8K0491hevYjG48seGPjhL2jXapWNnPkuEn5fw9uvNEOnRTds956nhSJwwcco989X8cq3E7AymB9SfLDthxJoUKMVRpwT/4wJQeiqlqjy+iv4V1V3DDgr71x/gKuLf0Kdb39ArbGncYdYpUXg+MiKaO/WGZO5+GJ+H+3H0srF0e2HvlgXIT6JD0PY5rYoXb4oKnRf4HClKwCn2lVHyWI/4qOZVxAj/pd8bQVGVHoF/367LlqsCs64Zz7wN3T5pCHeqzQTm4PDEZsqyJkokqfmTg76DOYGVNqq1ou019uWk1J4EuvQoQPq1KmDjRs3avUnm3xuVDVuqozdjL2qLRshxx4WFqZ9e+iIHYVXHhctWoQaNWpg+PDhWk4och/p2xDmYl+erh+dnowpfQrgnZGbseOGOO71JRj1bUH8f6/WQJu1wfZnPISvs9Mxpk1p/KvHKngGsePEwfe39hhS5ANM9IqE7YmnLPwnikZvPw5SRMewf854mfPw8Nu4L+o89e5BbBzzBf5StjK6rfRNf4NtXMAmrPupAQZO242TgsDfXNMbHSsVQ8W+W5D+qNUTfxyZ3hiVClaGq+hXV0TbSPabhelN/g9eKVgCHZf6Q7uGIiTuwmL8/tEr+KzTHCy6Jj54vB+b3Nvi5VenYeZZ2W+S8fDEOkz+eTSWbA/CbfFJwplxmNC3EN4ZvRle11m1Ylziv/HBu7BlTAEU6jsB49gf7h/Ahh6V8L9/LYUa447AR+sFT3D34Dh0eft/8M83O8J9Q6T2lrmUu2dxfVknlHmlCxqO9BbdJxmRR6Zj6N/+gbder4tOIm7RXoQIjM8tQ+MqVVG56yxsIFt8GICrq11RttUUDN7DCIXc84H3ohYo1WQs+m5l176PoLUj0Pi/y6Kk2xp4yocDEy7i1OxP8Ol/VUOLAfu1c03S7UPY5v5XFHnzNdQZvBkXtROLkMcnsKVuQdT6rhsGnYhHmsAw+YnaXCfmnOOc61FRUdrc19svO1XtMVTWCe31jkEJDg6Gu7u7Vmuenp7aZ451ZaZHcKwcM7+d43EM1atQWed623KjctxGj8EFI3sQydk777yDmTNnPpOX7JTjlpizz2VgzmfaxeI1LVVM2xVY5vYpqhT9G1566SW89PYXqNxvNlavWYsNW/fgeLBYnwgOpLWRlJviXDsB7xUegW4Lg2x3+jy8gFNTvkbxv76J2gM24YL8wuXJbYRv6oLPmvZA/dm+okMlI/bWevxe+h0U+kddNJ4UkPGm7JB16PRRdVT5ciy8xLLoyaNA+I37Gi5lO6Dl5ED7ukassc5OQrdq/8TLZb7BFysD8SDe8dsdQYDEWsxx7DbM7wjLBKQkn8WW7z/A+y9XRs2ZlxzeNHkfPr+3RbMK7+LT4QfhLb9senQaW4Z9jw8KVUePVZdwQ+TgybF+GNyrBIqIdePpCFGLV6ahb9P6qNDCE96OoVz+HRNcq+Jd1yXY4R8t1hmpSHKILSeVtaK3LSfluPnMIDHnN4cZmOdeVX1T5VxXPQbtzNQ5v/0iMeUxclsn3I/ndpI6krNixYrh/Hltwam7f1ZqZtxmMJf6EhlibpQDpkOq3vbsVI+csdAoevsniRWIXINI4b3PSeJExjjS99MKKAzXt09Hh8JNMXDqUe2bs+TAZVjUR5CNxqMw84T9Jhdx0oz034WD4wqgTM/+6HGU1ziD4Ld0BIoXGIUBq4NAnpMmjpssDpwsYkhJEX/Fv5koJjrdt+Y3BFe3TEGLgk3Rb/pxBGgBi//wWYukeMQ+jkNCYioe+8zD7L7voLD7Qqy6bDtL2xrjXTw8PB1flu6JBj0PiwVPCu5dWIhpRd7GDy1nQXANu6Qi4cEBLK1SAl2+c8cWEeQ935WY++HbcPlpKCbtv47rN0IRcjsOT9JE7GnJ2lg10rp1GtoVbKKRM+90cvYQsYGrMKh8Y7RvvRrkV3fPL8BU+m01O8Nv2l08OjgBVYp1wTe99me8yenJdRwaXB6t2rfFaDK7mBu4JRY2lYq2Rr3Bx7XbJG0iMI/eg9kNGqNx1eHYIhZ/MUlhOD68Atp26YDxp7lPKlIeH8QyMTa3ev2xSUyJxMjTODihCMq4uaPvAcfXN4qTftBKdKnZFZ986wmflMeICfbA8PJF8GODodgQas+rOCZi9mNOgzao/+EgLLsQjkeiyEU3z5g3udBnMDeg0lYWp94+2am0V7Gl8KqqHjnT2z+zmqlzqmxKZuypKnlnM5fkLLN/Chc2euRM7sN823yLf+u9jSZNLCgcjimVez4+MwVT+hZEgVGCcNwUx70+F0PqfYdCH83FxpsxtlttKLe2Y834n/FOq4VibpIZPMaF6W0xsND7GLv5Fm5pOz7rQyqfPU1jHMlPf87Yw8VJ7HGCWACKRc+U3oVQZKQnvG7Y6p4LQ76cJ1EsDmPjRU9OPIuNfbqhfqmemHv6nn1hZRtztN9aLOtQGg3GeGAj72Dym4opXV/H2y1nYKVvxmX4lNB92DZS9LZeY0UvEDUWvQ9bBjZE4b93Q99Fh3Ex+KboS/fwSISQlsyYRezCLub0eEzoVxgFxmzBzmAu5kWfFf99cmM3to4tiML9JmK8j/jg/i6s6fMD3i4yAhP3hUPe1f3gkgcWt3wbPw1bBk/Rr/jtZULkeYRtGYPyhQagyRhv0eVScHv/ZIx+62006L4SW8PsxkLSYkJxYc4n+LhzazTaLsYTfQmXV7bFu80nYMCOW7adoi7AZ3FLlG42Dv13ClqX6o1dE3qjYNHRmLA3RDtXsNWQ7D28sRELPy2Mbq7jsf2BGE3YXmwf8RYK/9gdA73CbbtRYkPh+3s5VOrcEr9sFQ0xVSyo7Ys8Ryxzq5yrnOu8usy5r7dPVirr3IzvrOqccvPmzWfImdxutsdwrJKcqcQvfZvt7UbtWYNcaGcmZ3r7aqr3Ii5B6CPEuCU5e9pG1JHoDakxwbi2bRSqf1wGbxUsjELFiqNYoTfw+mv/RpU+y7HjSrxWb0i6juANY1G20BB0nnPJRpoenMXJab+gxDtu6DLf336LsJA4krOu+LyZWK+IfQUK4tS/Dr+XKYDv64/CPO1it11SzmHd1x+gS/WOWBOZhsgrnphTrji6tJuFnekMTkhyOM5Oqo7P69dElWVX7ORMrLu059xsay85tgzMSc4SRS85B89v38dPHzTC0KNx9guzorvEH8Oyth1Q/4OBWOYfa7t12S6RJ2djdtvS+HGaF/aw/E65a+Ss2PQTOHM7Afc310Wf7i5oPfcszvldwbWrV3D5yjVcDdiCpb1aovbrLTFhc5Dtrd6Z+m92KueMylzluGnrSM709stKOUdVfUtbqkqt5kWdS3JmtNZ4buc3Z7ytkeTMx4cnlGxqLZOaqXOqtFexlfoSG0ZulIOlQzrT256dSpG3NU6bNk1bQFL09rc9+P10oPHxBPmJFkfGvjxCJG7tmolORZpjyK8nQW6RdmUZlgwtgAJDPLDmqo0YJog/t/334uj0Qijdzx09jrPxXU0nZ+6CnGkXWdKPnaGcJJxgXOSm+00JxMUlw/HuW8MxbN1128JBbnOQyMMTMaVFQTT4/RBO2u9rtu2SjLTYo5hbuSMGtlgLvrwwyncxfiteAL0Gr4PoN3ZJReyDg1j9WTH0rtcPnoLAJMdcR9DsJqhVvijeLlYapUvVRLU6Htjz1I+Y3MbNHTPQoVBz9BixDRfSb2uMFfxqHYZWaIpOrutsfi8swsxiBdB76AYHv1GIPfYbPi/dHz8OPGG/oi9if3IDR0ZWhGs3QbA43+NuIcyzIyr+NAwdPa7b9tH+S7mGXa3roPt7P2BBoOj7iRE4NbICXLt2tJMzka/4I1hZtSR6NhiI7QKAuJC98Oz2DhqMnIsll7mPbfFrk0BsatkXfapMx97oWDy4sQEjK9ZH5w4rcVo721AErvFHsbhRezQqPxDLL0YgTgMlA8/c6LOY515pwzqhqthL3/yrtz07pXABIJ85c3zeQ2//zCrrnDWntz0npZ0Ze+aM9k/Xee6Vt37wdqfMuaPw2HrPnMl9GHM65uxB4hj8TFPx/5N5+5DDMaVS4rynY2p/Qc7GbsVuEoFrgpy5icV91104/zCdmgFhu7FxanMUar0EK/y4dIjFxemuGFiwHEZ7XsdNbddnfeSkjDlSnIwSUhMQsWcwxrcqgV+WXcIl+6MS3OcpebgT09v0RKn3F2D7bXHy5WdinJpE++LS0sb4cORSTOGt+gHTMM29MAqO3oG9oRkLxrTbh7FrckEU6jcWI0+I5VFyNEL3TUffVwqjTMHiKFm6FD5u1BOTxDZ5aYiS4D0JkwcUQcHx27EnhH2JN0mR7O3HzgmCVLpPwaRL4oOoXVg7tikKNV6K1f72gQh5eHktVnYqhBbT1mMnv+gSpC8+whvh28ejYtHBaDHhIuJEDiMOTMHEggUxYNpBnNcCsOcgRRDUvZ1Rx7ULas+5irj7F+AvyFnZFhPgLsnZQz/4LmuDMi0mYuBeQaIf7hakugXeaboc6y/bbldIE/OB0fM28wuTy6D7iH6YE8S8iHGMJ8mchqnnbd8kaRIfgctLPsRHPUkKeTKw3ZmhUudU2nGuc87rbc9OOV/koklve05KO9apXuwULiblM2e8tZoit5tZS0iVL4dQ6a8ydpUew/HK2I3aU5hzeVsj10MUvX01FcdnD5Ikhb75UgsuVh8/1sFcO5pdkh/iVvA1BPqLHnDhPI54jkPvyi/h1X+/hfpjt+A82UzaTdz0FOSs4FB0EYRLIzLR3jg9vyVK/jgVI/eEZxwz4S4itrqhWvNe+Gl+gPg8TZz6PTH33YLo3mUOdmeUp9hyEVu/+wC9XTrDMzwR4aeXoF/RH9Bn8DbYbi7LiPSO53do0LUGqiy/jsdJts+fGZddbZjzor7oFmk+2PjNB3Cr4QphKkipZikOuAnDGvRAucorcDTW3quELes0LeQgjs5riLJjPbH4qvjg/BAM61saJX7jc7P3EbLwWzT+8O94o/h7eLd0aZQR/atUqdJ4t2wpFHtL9KvXWmL8nlDbhaxMsWWnGm6K53MqsZfPGeptz05lnav45vyW52NVe7N1zosQJFkqteb4zNmlSzyhEDb9/TMrx6ta51SJuUp/kvof+UKQ+MAl8BjOh0vtD1IL7TxuMY7czlgYZMgdhOy2k7MZp2zf8AQtx9LhgpyNWoV112w2T8Sf2367cXhyIbzbbxB6nySA1+C/zE7O1lxNvzKbWWSiCVK6JAXg/IKheLvAeAzaeIPf6+hK2MHxmPxLMbjOOQLvp37HKxHJ9/ZgTuVm6N/CQ7u98P6lJfhdkDN3QZJOylthSM7u78eKqiXQs/4AbNBYkgDvgS8O7ViFpQunY1Szb/HZS2+jbGUXfF3/N8zefldQmvsIFaS1o52cXYyXsccjSSM1zdDVdb1oo8LvRUEKBTkbOHyjg98oxByZhs9L9UL9AUfTb2VCoiBnwwU5EwRrApldXAjCNwly1mEUumzO/EspN7C//efoW64WRO8X5OwOzoyyk7Mz9l0SjsJDI2eD4CWIYeytnVjXvjDajFqItVfE9jSHhW3qBWxs3gm9PpuAnXdi8fDGJoyq2ApdO27AWVs9ChH/J+4wFjZsj58rDMYK34iM2x0NiC7muRTasE5kYRsVx4aqItYLQdRfCPKEV6tTRZ/zXYrJvX9K7z8uX3+HbouP47ztUdlnJP58BjkTaxrRWuZhSP9WKDNoDy4+dMhF6E5smCwIR9ul8PDnIj8OvtPbpZOzW2pp0+ZZ5J27oqvEIsRrECY0eRedPfxxOas2G7UNE1r1whvlV2DHnTjRv0S+Jeb3zuLk/KooOGgGxnA1dXk6pg8qioITvbA/LAOXtPBDGgkp0m8cRp2wE5a4MNzYsgbrFy/A/CE/om7Vd/D3sjVRq+4vGLL+Aq4JF6mXpmCqO8mZJHs2cpYWdhB7RH8uOnAqJpMURu3GusnNUKjTcqwLzBjIw4A1WNauEJpOXIMdJMKCJGnkbNs4jZy1nOir1XzkQXGcQgUxYsYh+DrmVZCz+END8W3r3qgzww+PHMmZl/3G80f+uLTcRs4G7Rcrz6jt8JjYCIW7e2DjVdu9UnyrI+NOiA7EyanvwXVoP8zgNwgRB7BroiBng3/FtIsO58v42whY8CE+7tEGTbxsJwOSM725mhuhnVy0GRXOF/YYs3WeVezWC0H0hba5eyFIPOKubsfcNo1QT/ag71uj3vg92O13C0kp6SfqXMpDhOwdA/caL6Nw034YqRVEKMI2jbOTMz/bt8HR53FmkSBnbadj7GHbjcCaPLmHyHRypl01RXzIRswT5Kyf21zsf2oK+mBT3Q/Rs7YbNoclIPz4YriVbItew/bC376HlKht36Nhr5qCnAUjJofel0HOmHexFhDkrHet9lhzS+Ci7SHk9jr0rdcLhT5bj+O8Im8XzpLk6zuwc+aneGPoUu0iCi4ME+TsXZSac1SQMz+c6fA5fiz2KRoMmos58+dj3rz5mD9/HubMEf9/0Qqs2XwKgXdFzWhHzL04LtRVhPasc+uFIMbEelujAcktOUu4sQU7ZrdHh/bt0d6uoxdsxLk7ehMkC3I2TJCz4SvTvznTJ2dX4bdkGAoWGAv3ddezXMTrJjo1GAGrxqD6G/0wZvkV+33Uz8qjU1MxreOb+GzGPhxx/Eqf16qve6DVu4JEuO4Av3OKFuSM35z1G7wOxx2/OXMgZ+sdbs9Jl5Dj2DugB3p2/AG1/1IOrduswMW4WNza+Rs6FG6LAeN2IzC9o8QhLWgV2nzYGA1cN4BTVpKz/oIUZvjNJTlLEORsQwdUrDYI7ebxwRNHuYItzeqj03utsfwmRPMNx4lh5dGha2dM4f2UlHRyZvvmLOn2YWwf8Aa+GDELM7V6cmgqCfswum5n1Ph8IY6K8cXe2oiRFZqic4e1OJ0+NQSuFjmzyJnOyYSx5UjOklKQlpKIpKAtWDqld3r/ad/FDeM3+WRJdnTJWZ+WKN1vF3weOOTyGXIWiwtT2sL9zfcxbtMNaF8kKQjnGclZQmoSHhwejgmdCqLGojPwzoJMIvEgFrTviSplfsX2kCe2503smKXe3oedg19B1SG/YQEbasA0TB8oyNS47U9/c+ZIzo7rdMCUIJzbOBG9OzRCo5qlUKj1HMzxEzVxeQomDyyIQr/ux2F5sYm7h+7BjiHi876CVHEVR3I2UeTKdSnWBDh8c5ZLcnZHkLMJBQui26QDSH8EjpIWhxivBviiYxu4LAlHYpQP/Je3RJm2gojtsTdYB3I2cK8gUvFHsGlcJ7xRawlW+9mJqD0VT6JPY+uPBdGx3WCs5LNoJGcTBDlzn4ap2vO/drHImSZ5sZb485OzBCTcOoL1gvD3kD3IbSh6LDyBw5dDRJ/KfFaLRfjh+Vi03gMe8iH7Z+QuLs4ohYKtWuCnnZyXIQjzHIMSBUag87wA28VpkrOFgpy1mIrRB+zPX1KyIWe9u87B3qfK307OXLpi491kRPquwIiCn6DPgLViy9MSsaouvncV5GyFGjnrWbMdPESPSjd95IUpDbvhi4/m4XCmXh3jvxxr+/4bn45ehfXs0do3Z2VQcvYxnL8bgHPtPoBLrSZw4xXrPBS5llCtc9pb5Mx4rVnkzIDklpxlJXxA9NlEKZKzE0zaDQR6jELFN4dg+LqQLK+I6CdaNIqj8+D+3udoNHIHDj1lfB9XD5zCuTOhuH9jG1aNKIW//dQNE47d167g2CQYN6a5omhJQX4mB2qLo4e+SzBDkKSsyZm77bmsB8G4sn0HzvjfeeqeauAoppavhBb1JuPooyTcPjATbq9Ux3fdVuJQ+vEiELLCFeXe/AKfdtqqvUAl2gw5SwzH7XWu+PS1avio5fqnbm9IujQdvb/5Ed/8sgLnROdPSruDc+PKoZGbKwZ723dKPAaPKmJsDdyxhbYxQfBb9CkK1q+PBosu2K7maZKAxxsH4sv3W+HdjifEaSUeySEbMLy8Rc4yi0XO/vhX6auTsycImNsBg8q9i6FbwjIeqjcojDky8g74ixmpwcuwYPD7eLnZHKy67JjHBMQH78COi5cRGHMd5yZ3R/NSddFtzXVcS98tAREHJ6B3jRJoNmUHtC/E/KYIclY4W3I2+pSossTbCL1wAtt3hSH8qVsJriNoztf4sM0EjDohFik352Nmz6L4d5slWMfbizRJwqNjU9Gh5hv4u+uvmMkr2ybJWdSxGRj16uv4+OuRmHOBNzra5cF5LOteDhU690Z/b5GwB7646tEJxb6dhH7b7AjE+MHPTs7cd/OzEJydMwgV/tIMLRZdcni2VpCE04PQ/dUSYgG9FOc47W7vhxdva7TImUXOMgltc0fOspa7kbyVNTPmD3FtaUPUrF4c/3TzwFFymMzyyBsbu3yAKl0GYcRF9mdx7t42AVXeHoDe84J4uVg00PM4K8hZibwgZzU7Yp2II+buUeyoVxq/fD0cs045YP7oOFZ3eQ8lq32FaquCEZtDGeSKnKUFYc+ANmhU9mf097qX8cycWCn5r+uHTl+UQZt5JyDaAXB2oCBnpVD8t5PwiXqEu1tao8635VF00CbYH9W1y32E+hzB5k2XcO3+E4c1XO5EriVU65z2FjkzXmsWOTMgZsgZX87Bt5M9m6hI3PKahrZvNsKAqSe0Z85wZQkWDnwVrw5aBo8g26TSyNmlnTg4/nUU7dkPbkd4UopG5ME56FbsO3Tu74HdIXcQLYaXlhyHmMirCL8brT3MTt96iU68fRTbBn2K8u16oNt6bwQEBAj1ge/e+RhUoysGDtmL6/H3cGl9X3xWqRi+6zUHW85zn0vwFk2xb5n3UPSXaZjoy5ym4YHPfEx5+1X07L/66WfO7u/F0koF0PXbftgiPn8Y6IkVX3yAhk3G4NcDAbgcGIgrQWfhu2YsalUaijZjvREt0hQXtA7zPy6Ddz5pjc6rjgu/Qbh8djNWdCmN4i+VQs2O27XbDO4Lv9OF317uax383kPMoUn4uFA3fNv7MNK/sEsMxqFBZdGiQxuM4QtwEiNxx7MtqpV5FS9/1BS/rDxiy4P/fizv/zk+aeWK1jtu2xdGCQhZWwe129VGlelncDU4WiwsDmHZx4XQtW4frNeeyYvDk3O/4+daJVGxvhsWivFpx/NZgWlfVETpql3Q9iDPBPFIu7YaA8r8DNfWq3AyvXdw4Acxt14r/FB2AJZetMiZEZF1bnbRpho7c0Z7lYZIcRo5OzcZE3u9hldHbsJOFsvV3zGge2MU7rkD3tEOuQzZjrXjf8brzRdguf2BsMj9ozC5SRHUHbEGG33u4F5cFrlLS0Dc/bu4ejUKUbHJGWRDCGPmYvVRnPCVfAWnlwzGRx+0QpupXjii9aUA+B/1wMKxlVB5/AIsvpGMFO+ZGN/8fZRrPhzTtp+y1dnRpfi9w1co/UEXjNwSrL36Pu38eEzq8wZeG7UFu0IycpMWdgDbR7+GN3uOxvAz4vNHR7BnbFtUKN0TA5cdwYXLgQi8EoTze2djcseKaDdzM/aR5zw+Bq9RDVC2+DdafPu1fnEQm6a1QKECL+OlxtMxi6TtnhdWjxW5arEQHn4ZP7z2wI8vBHkdP4/1wFY+nS/IWULEOYRtHoWyb/VH47EXtJqPPj0bo/7xTxT+VxX8NGQj9mh5OIYTCwahSsVWaDbxAPyZxMSbuLN3EqoU6IT6vTbAO/QOHt31x8UlzVG00Rj02Wbrfg9OLsTk8uVR/JfhGLHropavi4eXYJZrUbxfrBMGLLxme245bDe2jnoNb/SZhInejuQsHH5zSuODLs3w0zbb6tkiZ2rywpKztBRE6mKehtTIffi1Wy28/WE1NJ+4B0d8bHVv07M4ueZ39KrSCSOnHYLtms1DRJ9ZItYh36Fd50XYcesOosLP4tTcJijUeCKG7Uu/JCsCv4uITZ3wSaNu+H627e0f8XxbY9HX4NbhN+xy+F1EwBsbapdG16otsZwv6kp9jEf7hqJhhZ/h0nyxrQ4v++D08h74sdJf8JcPfkD11cFI4M8BpMQg6qYgjaEPEJcJ2qfJ2Xmsr1XK5kMs+jI6Zhpu7x4B94bv4wPXSVhyxNc2/r2/YXTjWihVqTemH7qjXfRNPt4HA3sUxFtTjsKbh310CFM6V0XRil+g98rzOCNzt/93jG7SGBW+mI+1/nwPrDGRawnVOqe9Rc6M15pFzgyIGXKW9aJN4ZuzvoPQ+wivE4lFdPhBrGxWFJXeKoRy7aZqV2ES7pzGgdEu6DNzJbbd4tjFfno/Qp0aj9i7x7Bu1JeoW6kkSpcuLbQsypRohO7j9+D0rQfgqTnp8U1c3jsZ7i5V8FFJ7lMKJcu+j9fbzsJC7zu4r9VNCu5fWIRfc/jmbKMgMCnxd3B3nzjeF5/gPb4QRPNbBmWKNET76adxJsp2wk1Luof7R2eiS9XyKFKguNinCqrX6YHp80ai7QdN0LnjRvAxSVO3NcaHiqbdBZWb9oGLawN0b1ccZbR4SuGdxgPQZ5c/QtNvj09DcuB8dBcLwr+89QVcflyNPdf2YsU35dC3gRibfOvIk0cIveSBX1t9jarp4yuCN34YiAFe1xCuTcE4JAatwRDrm7NnxCJn+eGbs8VY6WcjZylhe7BlcCW8UaQUCv8wBXNOZ/H9WVIAzi6bjpo15mP+sQitt0hhzBo5066oixPLg+u4sGwwqlethOJa/Qj96DOUGjIfKy5F4I7WmO7jrv96LHYvgSoVStj2Kf4uKnzcDWO230BITIq2DEo8P9n2QpDsvjk7GSvcPsID/81Y0LkQKr1fHKXsfktUrIKSg5Zh1/VH0B59FSTz8ZUdWOn2Fiq8WwRFuV99N3w7ZiImdC+IUu4zbD91Yva2xqO/YUrBN9HVtSva/dwCdbR43sW7pZqj2+wzuHjPfhU8LQbxYdvx64cV8e6rhVHTbSJ2XrwGnxUd8EErviTE9hxa2pMHiL7khYW9PoNLhVLa2EoVex/FC3XD6A2BuPXQlpu00L3YPs765swiZ88Kbc2QM/bVrDFPxMPbATiydAh6FS6FCqVs9WfTz1Cx4kTM2OCH8Cj57Y84T907g40dy6HKGwXwbpuJWLD3FI4vbItybablwTdn7bBSrKc0X6kPcGZhYzT97G1bvb9XGSUajoBbl/dRu9s3+NwjlE/hC2APY17Tfhjktg5nxLrBMcO5+uZMSKpYH4V7L8bsngXx0Ye2Oi1dtCw+rtYXU/bfRoT9+fv49B+hFuRMuzCchOjrXlg8sJ7oxaJvydwVrYnPXWZhyelQ3I17+qJYbkSuJVTrXGJukTNjYpEzA/J8yNkTxN8RJ9JdZ+F/7b7t2YmYW7gV4AWvgBCExtj2j0t4gts3AxEZsB17fP3ge88+2VIe4s6lzdjmsQQrdp0B1wDJcbdx68QaHPT2xzURZmqqACqbRCddO4DD6xZiwYIFQhdj0ZKDuHhHNG9uFP+x/b2Lq3s3Ye1C7rMQC1d6YtWVhw4vIRGN8uFNXN3lhUv+YYiyh0ff8bFhuLHfCxdPXkJYOtGJxvWD27B+EY9HXYJFyw8j4K7jko0SjfNbVmHZ7zPFPiux2vMkrkRG4PJRX/h5h2rPytHvtUx+2eiT7gVh3w5vHLsQabvlgZIah3sB++F94TxE+EDsDdza0BmV2k1Bh4WbEXB0ERbKeI5exxXtHOKAWWIULp/aiTXL1mLNpgDceBiJWyf34dJJcdJId0JJROS5fdgwb45tfIuWY9m5ENxKjy8FKTGh8N9/Bj7nQ7VvCtMl5R5unD6PQyL2izcjkKjQWMwUF204X6kq9mwMqg2VYpGzP56cJUcHIcBnG7b6hSAyXsQeGwx/37PYcykSD22/bWGT+EiEBZ3BTu+bCOEPDlEEqbkjamrVskVYtPEUfG6nXyF5WlKjEOF3FqtXX8TFsNiMh+CFMGYbOXNYJcVfxb6tq7FIq0ehHpuwKiD2KVInIkfslbXYsHwO5s6dK+psNTx3Xob8GS9KyoMgXPXbiZ2BgtRxbFISxILtyk5s9/GHb0QcOZKQeMQFr8f2tbIPLMDCVZux9kqcQ6+jJIj9NmKH2G/enDmYs/4AtgXcwv0bu3DwylVc4ekh8Q7CrjBXtxD6OGM+Jj0OxS3vnThzJVQstGzzPSriBuLCA7B/lz/OCuMUsdAKPzANU4oUxOjpG7H5wAFs1uJZiqWrTuLqQ/s4kviDo2KxmnwPd0Q/3bZyCdbtO43gqDg8CPHB/nNX4CfG5ijxl3dgz6qFmD9/PubMXYnla64iwnG6i8VhRKDIl99VBNkJmyYpgpTe2IcDF8/hTKStN/Cin+qijXYWOTNeqzJ2lR7D8crYVexp+/zImV3iQxC4ahlWamsNqavFPL2M65nvHUyLxX0xn3euWooVXqdxMeQ+om54Y5/3VVy+m3FCTkt5gthQ8fkJb5y4busxKfHhCN6zE74XgnHnqWn0EOHH9+HiEW+EOBZ9gjd89y7E4oVi/bN4FRYdDMG5NV9h0IRv0WbbYyTwIc4nIbiw7SCO7AvE7UynEBs540KdmDv4EOX5LBKxeOTvgQ0rbeuyufNXwXP3ZYfbHEUuo/wQ4Lsbu67eQ3R6U0xBXMg5rFqe0b/mLdiGLfszfsrDqMi1hGqdS8wtcmZMLHJmQJ4POcudxIqJfTtC7YkOM4mmDX83KVFtrapNkoQnakVNYbYexWcmbHkogpwFr+uAis2HovNGh7c7SUlJVGoMeSOpuH/H9lp1o2Iec4ucqYjZOncWOXs6WrXYzQhjtpEzY301z8SJdc6F+u0IcQK3/9smCQjfb3uV/qDpR+D4M0yOQsz5My28o+qPFlnnenM1N0I7i5wZr1UZu0qP4Xhl7Cr2tH3u5Cw7SVbr7RyqWnWLc2H0RRybMBbLPH2h/UZYutzAMjcXfN+yBxYHpdpfh5+12MiZGuYZYqLQk80t1FXrXGJukTNjYpEzA+JUchYbq/0+CH+o0aiYSTRtGDuVv5FkVDhJtOJSLGzmi1ebeDIzKrRNTMyhmcdcx/WVzVHix35osSLoqdbH32ghZiqNgSLzpioxsTFaU1Pxn2eYK9inY66YN4uc/fHkzIZ5EpJE/Cqxp6TYfhOG35SrCP2rkrNUwUzMYCZ/qF/VnnlnnxGJs39iTDjmZzF/gtDdYzDyH/9Ar7G7cTaL61NmMLf1R/7IqCrmFjlTFYucGcec3zipYs6x0o7P/Rubr8JnxEFs+ulT1K/aCG3He8DDg7oIHiPcUKt6DzQbcwBBuWgdZsgZ88Yeo4IZ/XHcHL+KPX2bqXOJuUXOjIlFzgzIfwY5M96YzCRaK2wRO1XFnpNEtbgozBcbGhubUZGYZ5uzuFCEbh+Iur2mYdD2m0+RM8ZMe9XYzWLOZsampuI/P2NukTNnkTMb5iqxS8z14s6N0L86OcubhboK5syVWcz1yVkiIo/Px9wqVTBpwXH4ZXHaMos543YW5rRTXajnFeZZxW6RM32hrbPImRnMOdacMM9S0hKRHLYT81vVReXiJVCyZEmhpVGyeBP0W+CNqzl9ZWYXM+QsLzDnMVTs5VrCcN7sIjG3yJkxsciZAbHImXF7ThLV4qIwX8+VnKUmISnmDm5FROGOw3MhFMZMe9XYzWJukTOLnDkKY7PI2bNCW/p2BubMlVnM9clZGpLjohEdHIyo6Dg8yeLQZjFn3M7CnHbOWKhTJOZZxW6RM32h7QtHzjRJQtSNQFw6dwY+Pj5CL8Dn4k3cicn9sSxyZpEzI2KRMwNikTPj9pwkqsVFYb6eKznLRhgz7VVjN4u5Rc4scuYojM0iZ88KbenbGZgzV2Yx1ydnuROzmDNuZ2FOO2cs1CkS86xit8iZvtD2RSRnapX9tFjkzCJnRsQiZwYkv5MzlQlKcBg7VQUo+lQtLgrzZZEz4/455vyKuUXOzJEzs5irxM58mcGc/i1yZhw3iblKndKGcTsLc45XdaEue8zzwtwiZ/rCnDuLnOUV5ip1lheYS3Kmkve8wJzHULGXda6SN4rEXIWcmcGcY3U25vmdnKliTnmJB8mNMkg6k0Dr7ZOVygYqydmUKVNw/77tpaZ6+2dWM76pTBBP4DxhxMfHa//W209P6Y8g0Tcnmd4+2amjvUrs9Knqm+OkTxZ2VFSUoXFTaUvfcpLq7ZOdmold+lbNG8fKEzgJOY/xR2NuJnYzeaNwrnfs2BF16tTBpk2btPqj6u2fWWXs+RVznsCJOeN3xJwNlrW/aNEi1KhRAyNHjtRyws+5nf6cibn0zb9627NTjpMxc9w8mRmZ61QZ+58N85yU/mTeVXybjd0s5rTjuDl+o5hLzHgMldgd7TNvo9y6dQuDBg1CzZo1tR5EkTGazRuPw3nO8xrjyC+Ys9fwIrEkZ7/99ttTeclJuR/9EnOe24yMm5pXmPOv3vbs1EzeqBwr14zEnPbOwFw1b9K3St4k5ly78rz+R2LO/Z2NOdetRjHnfjy3k9RJcnbhAn+UN3d8gypjdwbmUl+SycuNcnFD1duWnXJwlFmzZqFatWqYNGlSOhvW219PVX1TmSA289DQUO3qg5xwRlTVN9VM7FRVW04Q2rKw7969qzxuZ8RONeObY2UzDwsL006IsliMqLNip6raUjjX27dvj9q1a8PT0zO9uejtr6fOip1qxnd2mLNh82ozf7emevXqGD58uJYTfu54DGfFTlW15zj5bSnHzZPZi1bnHDPHzhzkxzpXsf9PwVzPnhIcHAx3d3ftQsiGDRu0zxyxMeObY+VVcZ7X8hPm7DVcf5CcvfPOO5gxY8YzeclOuR/7GjFnn3vR6lxizmPkF8ylqtpynJwzXLvyvP4iYc6xc91qFHPux3M7v2V1c3NDsWLF4O3trdWa3v5ZqZnYqWZsqS/Jq+q5UQ6aKplpblV+LSi/OZs6dWr6bXZ6++upBIZJ19uendI/F2YEmcfhv/X2y0oli+Zfve3ZKeOVeVOJXS4eWZR623NS2vPKA5u50XFTZexGMacyZtqqxk5bM5jzShOvMqr4dybmtFHFnMJmzm/OeFvj5s2btVwYwV7Gnh8xl9+WZsaN23jsxYsXa1fz+c1Z5rww5rzAXCVvZjCn0l5+i2IEayrjNRN7XmCu6js7zHOjEnOV+eZszDle+S2KCub0rRp7dphTuJjkN2e8rZE9iOK4j5m8cayc5zyvqeDmLMwZN/3Kb854sTpzXnJSxk7MeW77IzHn/hJzlTqjquaNyrHKb0vzE+ZU5ou+VfPG2Ll25Rr2RcKcynUrSZZRe+aJxE5+c+br62uo1pyNOTXXz5xRGCjBUhXHZ86M3jPNQdI/k64ivOIkC9uoEBwmmgkzKrRh7Mybqr1sKqrCbyklGTYqjJvxqwhjpr1q7GYxJ0mRhW1UzGLOcTsLc16xUX3mjMKcq2IuMVONnTkzgzn7CutcD3PGlt0zZ4w5LzBXEYm5ylylMF+c61y0GRXamsE8L+pcNW8UYs6xq+CWnzGnPcdt9FxKIeb0bRbzrGIngcjqmTOKmbxRSEhVMZc9SqXHcLy0Zewq9rQ188wZ/XPcPLcZleeNeU6SF5irPn/E2FUxl3Wumjfmy0yd047nNK5hjYrEXLU3OxtzrltJslSEdxRYLwTJpfBKEW9zmDt3rv2TP1ZUJvefQbhYV5lgfwbhbS8vovTs2RNfffWV9UIQB2FsJGcuLi7ardV/NuHJ4EWVF7XO/1PHzXPt6NGjtVqT35xJyYu1xJ+BnLEXqciLOteZb65lXkR5UTFnfaue11jn/fr1s8hZboTkrHz58tpVfS8vLxw5ciTXun//fuzbtw+HDx/W3Z6T7t69W3sw+cCBA7rbs9ODBw9qvg8dOqS7PTulDWOnqtrTN2PQ256TMl+8cmk031Ta0rdKzqgyb6qxy7yZwZwLAxX/+RXzo0ePauPmy0A+++wz3avW2YmsczYlFZELn/9UcsbbGqtWrYrWrVs/kzvO87zAXGW+mq0V+udc37lzp+727FTON9U6l3lTiZ25MpM3KsfM3q7i3yzmtHUW5rTjuHft2qW7PTt9npizB/E5syZNmuDTTz+13tboILQlKXvllVfQtWtXHDt27Jn8ZafMN+v8j8ac8zuv6lxve26UaxjOJZValbGbqVMew4y9StxUiTnP63rbs1OJuSpmzsZ8x44dGuYqeWdv5DqIz3f6+/vbKzB38sKRM14xIjl77733tNsdvv76a+3qfm6USeYLDnirlt727JR+eAWP39rxOHr7ZKdmfNOG9lRVe/pWiZtKez5jw3zrbc9OzfqW41axN5u3FxXzb775RsP61Vdf1XDfs2ePvfpyJ7LO/4zkjDGtXr1ay+3777//DDbOxFz6VsGcSp+c65zzRvoqlbZmfMtxq9ibzZtjnZvJu4qt2dilb/7V256T0u4/EXP2ID6+UKZMGe0FYFzcOUperCXyMzlbv349SpcujRIlSqBu3brP5C87dSbm0lbF3mytUHle4znNTK2p2MrYaa+3PSc145tK+/yOud723KjEXG9bdso88SLsP/7xD41vXLt2zV6BuZMXjpwdP35ce0tajx49NO3Vq5d2+1VutHv37tqbV/S25aT0w6tUfIMdj2PEL1X6Zsx627NT2tCeqmqv6luOs0OHDujcubPhcVPpm7HrbctJ5dhVYqfSd15gTv+qmOtty0nluM1gznulVWx79+6t+eU3QxMnTkRAQIC9+nInss7/jOSMjfLs2bPaLY3ML/PlOC/yCnO97TmpGcw5Btqxzrt06fLC1TnHzLHTv7PqXG97Tkr7PyPmjEUelz3oypUr9gq0SV6sJfIrOaNv9qBhw4ZpdxAZwU1iznMaz21/NOa0ywrz3KjZOucahvNd/jvzPtkp43ZmndO3St7MYi59q8Yux60SO9WMb4k5X24m/515n6yU+7K3ch00YsQI7U2fRuSFImccLN+8cvPmTVy/fl1jskaUi0x+NXn16lXd7Tkp39Zy4sQJXL58WXd7dhoYGKj5DgoK0t2endKGPqkq9jyx0Tdj0NuekzJfp06dwvnz53W3Z6e0pW+VnFEZM3FTiZ2+zWJ+8eJFnDx5Usm/szHnPdKqmNPnmTNntL9G79GXdf5nJGcU+Spq5inzvCJeeYG5ynyVmPOv3vaclP5Z5/w9F73t2Slt83Odc8ysc5XcmcWcsTsLc9px3M7EXC92mQu+Tp9vmcv8zIjZtQQlv5Iz9kW+dZC/A+eYq9wq807MeW7T256dmsGccdIuK8xzUtrTN+1VaoXKNQx7nEqtyjpX8c3xmqlzYkbfqnWeF5ir9ua8wlxve26Ur8A/ffq0Ut5l7HxzrNH1yAtFzhhsVgumP0IYPxv6iyhcsJo5EeZXYWGovL3uzyDEPPOiKDci6/zPSs7+zMKxq+Y9PwvH/KLWOced3+a62bUEJT+TM9XeKiU/Yp4Xwpyzx72IQszNLPTzq7DWVN5MalZknb8w5Iz2qosHs4s2XjGXv4VjVMwkmjaMnapiz0lC36p5Y754ElN5lb7EXPVk4mzMWdRcqKv4z8+Y0ycxV7kYYRZz2jkTczPkjLHnBeYqsUvMVeKmSMxVSApt6dsZmDNXZjHnmJ2FOeN2Fua047hVFqx5hblK7MyVzJuq5GdyZgZz2jsDc47V2ZhzDeNMzHkMZ2KuQlIk5qq92dmY81tm1Z9PoF9nY64yV6VY5CwXYibRtGHsVBV7ThLV4qIwXxY5M+4/P2NOnxY5M34yYex5gblK7BJzlbgpEnOLnBkTs5gzbmdhTjtnLNQpEnOV2JkrmTdVsciZRc6MSF5gzmM4E3OLnBkT+nU25ipzVYpFznIhZhJNG8ZOVbHnJFEtLgrzZZEz4/7zM+b0aZEz4ycTxp4XmKvELjFXiZsiMbfImTExiznjdhbmtHPGQp0iMVeJnbmSeVMVi5xZ5MyI5AXmPIYzMbfImTGhX2djrjJXpVjkLBdiJtG0YexUFXtOEtXiojBfFjkz7j8/Y06fFjkzfjJh7HmBuUrsEnOVuCkSc4ucGROzmDNuZ2FOO2cs1CkSc5XYmSuZN1WxyJlFzoxIXmDOYzgTc4ucGRP6dTbmKnNVikXOciFmEk0bxk5VseckUS0uCvNlkTPj/vMz5vRpkTPjJxPGnheYq8QuMVeJmyIxt8iZMTGLOeN2Fua0c8ZCnSIxV4mduZJ5UxWLnFnkzIjkBeY8hjMxt8iZMaFfZ2OuMlelWOQsF2Im0bRh7FQVe04S1eKiMF8WOTPuPz9jTp8WOTN+MmHseYG5SuwSc5W4KRJzi5wZE7OYM25nYU47ZyzUKRJzldiZK5k3VbHImUXOjEheYM5jOBNzi5wZE/p1NuYqc1WKRc5yIWYSTRvGTlWx5yRRLS4K82WRM+P+8zPm9GmRM+MnE8aeF5irxC4xV4mbIjG3yJkxMYs543YW5rRzxkKdIjFXiZ25knlTFYucWeTMiOQF5jyGMzG3yJkxoV9nY64yV20C/P8TBe0JfGaMSwAAAABJRU5ErkJggg==;" parent="1" vertex="1">
          <mxGeometry x="-21" width="871" height="271" as="geometry" />
        </mxCell>
        <mxCell id="jhv-o3toAknsNw_Rnt7w-7" value="Device" style="swimlane;fontStyle=0;childLayout=stackLayout;horizontal=1;startSize=26;fillColor=none;horizontalStack=0;resizeParent=1;resizeParentMax=0;resizeLast=0;collapsible=1;marginBottom=0;whiteSpace=wrap;html=1;" parent="1" vertex="1">
          <mxGeometry x="510" y="367" width="140" height="156" as="geometry" />
        </mxCell>
        <mxCell id="jhv-o3toAknsNw_Rnt7w-8" value="- Int : ID" style="text;strokeColor=none;fillColor=none;align=left;verticalAlign=top;spacingLeft=4;spacingRight=4;overflow=hidden;rotatable=0;points=[[0,0.5],[1,0.5]];portConstraint=eastwest;whiteSpace=wrap;html=1;" parent="jhv-o3toAknsNw_Rnt7w-7" vertex="1">
          <mxGeometry y="26" width="140" height="26" as="geometry" />
        </mxCell>
        <mxCell id="jhv-o3toAknsNw_Rnt7w-9" value="- Int : owner" style="text;strokeColor=none;fillColor=none;align=left;verticalAlign=top;spacingLeft=4;spacingRight=4;overflow=hidden;rotatable=0;points=[[0,0.5],[1,0.5]];portConstraint=eastwest;whiteSpace=wrap;html=1;" parent="jhv-o3toAknsNw_Rnt7w-7" vertex="1">
          <mxGeometry y="52" width="140" height="26" as="geometry" />
        </mxCell>
        <mxCell id="jhv-o3toAknsNw_Rnt7w-10" value="- String : descriere" style="text;strokeColor=none;fillColor=none;align=left;verticalAlign=top;spacingLeft=4;spacingRight=4;overflow=hidden;rotatable=0;points=[[0,0.5],[1,0.5]];portConstraint=eastwest;whiteSpace=wrap;html=1;" parent="jhv-o3toAknsNw_Rnt7w-7" vertex="1">
          <mxGeometry y="78" width="140" height="26" as="geometry" />
        </mxCell>
        <mxCell id="jhv-o3toAknsNw_Rnt7w-11" value="- String : adress" style="text;strokeColor=none;fillColor=none;align=left;verticalAlign=top;spacingLeft=4;spacingRight=4;overflow=hidden;rotatable=0;points=[[0,0.5],[1,0.5]];portConstraint=eastwest;whiteSpace=wrap;html=1;" parent="jhv-o3toAknsNw_Rnt7w-7" vertex="1">
          <mxGeometry y="104" width="140" height="26" as="geometry" />
        </mxCell>
        <mxCell id="jhv-o3toAknsNw_Rnt7w-12" value="- Int : consum" style="text;strokeColor=none;fillColor=none;align=left;verticalAlign=top;spacingLeft=4;spacingRight=4;overflow=hidden;rotatable=0;points=[[0,0.5],[1,0.5]];portConstraint=eastwest;whiteSpace=wrap;html=1;" parent="jhv-o3toAknsNw_Rnt7w-7" vertex="1">
          <mxGeometry y="130" width="140" height="26" as="geometry" />
        </mxCell>
        <mxCell id="jhv-o3toAknsNw_Rnt7w-18" value="&lt;p style=&quot;line-height: 120%;&quot;&gt;&lt;br&gt;&lt;/p&gt;" style="shape=cylinder3;whiteSpace=wrap;html=1;boundedLbl=1;backgroundOutline=1;size=16.399993896484375;fillColor=none;align=center;" parent="1" vertex="1">
          <mxGeometry x="300" y="320" width="380" height="297" as="geometry" />
        </mxCell>
        <mxCell id="jhv-o3toAknsNw_Rnt7w-2" value="Active" style="swimlane;fontStyle=0;childLayout=stackLayout;horizontal=1;startSize=26;fillColor=none;horizontalStack=0;resizeParent=1;resizeParentMax=0;resizeLast=0;collapsible=1;marginBottom=0;whiteSpace=wrap;html=1;" parent="1" vertex="1">
          <mxGeometry x="330" y="367" width="140" height="130" as="geometry" />
        </mxCell>
        <mxCell id="jhv-o3toAknsNw_Rnt7w-3" value="- Int : ID" style="text;strokeColor=none;fillColor=none;align=left;verticalAlign=top;spacingLeft=4;spacingRight=4;overflow=hidden;rotatable=0;points=[[0,0.5],[1,0.5]];portConstraint=eastwest;whiteSpace=wrap;html=1;" parent="jhv-o3toAknsNw_Rnt7w-2" vertex="1">
          <mxGeometry y="26" width="140" height="26" as="geometry" />
        </mxCell>
        <mxCell id="jhv-o3toAknsNw_Rnt7w-4" value="- Timestamp: timestamp" style="text;strokeColor=none;fillColor=none;align=left;verticalAlign=top;spacingLeft=4;spacingRight=4;overflow=hidden;rotatable=0;points=[[0,0.5],[1,0.5]];portConstraint=eastwest;whiteSpace=wrap;html=1;" parent="jhv-o3toAknsNw_Rnt7w-2" vertex="1">
          <mxGeometry y="52" width="140" height="26" as="geometry" />
        </mxCell>
        <mxCell id="jhv-o3toAknsNw_Rnt7w-5" value="- Int : device" style="text;strokeColor=none;fillColor=none;align=left;verticalAlign=top;spacingLeft=4;spacingRight=4;overflow=hidden;rotatable=0;points=[[0,0.5],[1,0.5]];portConstraint=eastwest;whiteSpace=wrap;html=1;" parent="jhv-o3toAknsNw_Rnt7w-2" vertex="1">
          <mxGeometry y="78" width="140" height="26" as="geometry" />
        </mxCell>
        <mxCell id="jhv-o3toAknsNw_Rnt7w-6" value="- Int : consum" style="text;strokeColor=none;fillColor=none;align=left;verticalAlign=top;spacingLeft=4;spacingRight=4;overflow=hidden;rotatable=0;points=[[0,0.5],[1,0.5]];portConstraint=eastwest;whiteSpace=wrap;html=1;" parent="jhv-o3toAknsNw_Rnt7w-2" vertex="1">
          <mxGeometry y="104" width="140" height="26" as="geometry" />
        </mxCell>
        <mxCell id="jhv-o3toAknsNw_Rnt7w-13" value="Person" style="swimlane;fontStyle=0;childLayout=stackLayout;horizontal=1;startSize=26;fillColor=none;horizontalStack=0;resizeParent=1;resizeParentMax=0;resizeLast=0;collapsible=1;marginBottom=0;whiteSpace=wrap;html=1;" parent="1" vertex="1">
          <mxGeometry x="80" y="407" width="140" height="130" as="geometry" />
        </mxCell>
        <mxCell id="jhv-o3toAknsNw_Rnt7w-14" value="- Int : ID" style="text;strokeColor=none;fillColor=none;align=left;verticalAlign=top;spacingLeft=4;spacingRight=4;overflow=hidden;rotatable=0;points=[[0,0.5],[1,0.5]];portConstraint=eastwest;whiteSpace=wrap;html=1;" parent="jhv-o3toAknsNw_Rnt7w-13" vertex="1">
          <mxGeometry y="26" width="140" height="26" as="geometry" />
        </mxCell>
        <mxCell id="jhv-o3toAknsNw_Rnt7w-15" value="- String : username" style="text;strokeColor=none;fillColor=none;align=left;verticalAlign=top;spacingLeft=4;spacingRight=4;overflow=hidden;rotatable=0;points=[[0,0.5],[1,0.5]];portConstraint=eastwest;whiteSpace=wrap;html=1;" parent="jhv-o3toAknsNw_Rnt7w-13" vertex="1">
          <mxGeometry y="52" width="140" height="26" as="geometry" />
        </mxCell>
        <mxCell id="jhv-o3toAknsNw_Rnt7w-16" value="- String : userPassword" style="text;strokeColor=none;fillColor=none;align=left;verticalAlign=top;spacingLeft=4;spacingRight=4;overflow=hidden;rotatable=0;points=[[0,0.5],[1,0.5]];portConstraint=eastwest;whiteSpace=wrap;html=1;" parent="jhv-o3toAknsNw_Rnt7w-13" vertex="1">
          <mxGeometry y="78" width="140" height="26" as="geometry" />
        </mxCell>
        <mxCell id="jhv-o3toAknsNw_Rnt7w-17" value="- String : role" style="text;strokeColor=none;fillColor=none;align=left;verticalAlign=top;spacingLeft=4;spacingRight=4;overflow=hidden;rotatable=0;points=[[0,0.5],[1,0.5]];portConstraint=eastwest;whiteSpace=wrap;html=1;" parent="jhv-o3toAknsNw_Rnt7w-13" vertex="1">
          <mxGeometry y="104" width="140" height="26" as="geometry" />
        </mxCell>
        <mxCell id="jhv-o3toAknsNw_Rnt7w-19" style="edgeStyle=orthogonalEdgeStyle;rounded=0;orthogonalLoop=1;jettySize=auto;html=1;" parent="1" source="jhv-o3toAknsNw_Rnt7w-8" target="jhv-o3toAknsNw_Rnt7w-5" edge="1">
          <mxGeometry relative="1" as="geometry" />
        </mxCell>
        <mxCell id="jhv-o3toAknsNw_Rnt7w-20" value="Devices DataBase" style="text;html=1;strokeColor=none;fillColor=none;align=center;verticalAlign=middle;whiteSpace=wrap;rounded=0;" parent="1" vertex="1">
          <mxGeometry x="460" y="320" width="60" height="30" as="geometry" />
        </mxCell>
        <mxCell id="jhv-o3toAknsNw_Rnt7w-21" value="" style="shape=cylinder3;whiteSpace=wrap;html=1;boundedLbl=1;backgroundOutline=1;size=15;fillColor=none;" parent="1" vertex="1">
          <mxGeometry x="50" y="327" width="200" height="280" as="geometry" />
        </mxCell>
        <mxCell id="jhv-o3toAknsNw_Rnt7w-22" value="Persoane Database" style="text;html=1;strokeColor=none;fillColor=none;align=center;verticalAlign=middle;whiteSpace=wrap;rounded=0;" parent="1" vertex="1">
          <mxGeometry x="120" y="327" width="60" height="30" as="geometry" />
        </mxCell>
        <mxCell id="VAqt7soNZ0sLNniL_vXG-1" value="Measurements" style="swimlane;fontStyle=0;childLayout=stackLayout;horizontal=1;startSize=26;fillColor=none;horizontalStack=0;resizeParent=1;resizeParentMax=0;resizeLast=0;collapsible=1;marginBottom=0;whiteSpace=wrap;html=1;" vertex="1" parent="1">
          <mxGeometry x="70" y="720" width="140" height="130" as="geometry" />
        </mxCell>
        <mxCell id="VAqt7soNZ0sLNniL_vXG-2" value="- Int : ID" style="text;strokeColor=none;fillColor=none;align=left;verticalAlign=top;spacingLeft=4;spacingRight=4;overflow=hidden;rotatable=0;points=[[0,0.5],[1,0.5]];portConstraint=eastwest;whiteSpace=wrap;html=1;" vertex="1" parent="VAqt7soNZ0sLNniL_vXG-1">
          <mxGeometry y="26" width="140" height="26" as="geometry" />
        </mxCell>
        <mxCell id="VAqt7soNZ0sLNniL_vXG-3" value="- Int:&amp;nbsp; IdDevice" style="text;strokeColor=none;fillColor=none;align=left;verticalAlign=top;spacingLeft=4;spacingRight=4;overflow=hidden;rotatable=0;points=[[0,0.5],[1,0.5]];portConstraint=eastwest;whiteSpace=wrap;html=1;" vertex="1" parent="VAqt7soNZ0sLNniL_vXG-1">
          <mxGeometry y="52" width="140" height="26" as="geometry" />
        </mxCell>
        <mxCell id="VAqt7soNZ0sLNniL_vXG-4" value="- LocalDateTime: timest" style="text;strokeColor=none;fillColor=none;align=left;verticalAlign=top;spacingLeft=4;spacingRight=4;overflow=hidden;rotatable=0;points=[[0,0.5],[1,0.5]];portConstraint=eastwest;whiteSpace=wrap;html=1;" vertex="1" parent="VAqt7soNZ0sLNniL_vXG-1">
          <mxGeometry y="78" width="140" height="26" as="geometry" />
        </mxCell>
        <mxCell id="VAqt7soNZ0sLNniL_vXG-5" value="- Double :&amp;nbsp; val" style="text;strokeColor=none;fillColor=none;align=left;verticalAlign=top;spacingLeft=4;spacingRight=4;overflow=hidden;rotatable=0;points=[[0,0.5],[1,0.5]];portConstraint=eastwest;whiteSpace=wrap;html=1;" vertex="1" parent="VAqt7soNZ0sLNniL_vXG-1">
          <mxGeometry y="104" width="140" height="26" as="geometry" />
        </mxCell>
        <mxCell id="VAqt7soNZ0sLNniL_vXG-6" value="" style="shape=cylinder3;whiteSpace=wrap;html=1;boundedLbl=1;backgroundOutline=1;size=15;fillColor=none;" vertex="1" parent="1">
          <mxGeometry x="40" y="640" width="200" height="370" as="geometry" />
        </mxCell>
        <mxCell id="VAqt7soNZ0sLNniL_vXG-7" value="Measurements&lt;br&gt;Database" style="text;html=1;strokeColor=none;fillColor=none;align=center;verticalAlign=middle;whiteSpace=wrap;rounded=0;" vertex="1" parent="1">
          <mxGeometry x="110" y="640" width="60" height="30" as="geometry" />
        </mxCell>
        <mxCell id="VAqt7soNZ0sLNniL_vXG-8" value="Treshhold" style="swimlane;fontStyle=0;childLayout=stackLayout;horizontal=1;startSize=26;fillColor=none;horizontalStack=0;resizeParent=1;resizeParentMax=0;resizeLast=0;collapsible=1;marginBottom=0;whiteSpace=wrap;html=1;" vertex="1" parent="1">
          <mxGeometry x="70" y="870" width="140" height="130" as="geometry" />
        </mxCell>
        <mxCell id="VAqt7soNZ0sLNniL_vXG-9" value="- Int : ID" style="text;strokeColor=none;fillColor=none;align=left;verticalAlign=top;spacingLeft=4;spacingRight=4;overflow=hidden;rotatable=0;points=[[0,0.5],[1,0.5]];portConstraint=eastwest;whiteSpace=wrap;html=1;" vertex="1" parent="VAqt7soNZ0sLNniL_vXG-8">
          <mxGeometry y="26" width="140" height="26" as="geometry" />
        </mxCell>
        <mxCell id="VAqt7soNZ0sLNniL_vXG-10" value="- Int:&amp;nbsp; IdDevice" style="text;strokeColor=none;fillColor=none;align=left;verticalAlign=top;spacingLeft=4;spacingRight=4;overflow=hidden;rotatable=0;points=[[0,0.5],[1,0.5]];portConstraint=eastwest;whiteSpace=wrap;html=1;" vertex="1" parent="VAqt7soNZ0sLNniL_vXG-8">
          <mxGeometry y="52" width="140" height="26" as="geometry" />
        </mxCell>
        <mxCell id="VAqt7soNZ0sLNniL_vXG-11" value="- Double :&amp;nbsp; curent" style="text;strokeColor=none;fillColor=none;align=left;verticalAlign=top;spacingLeft=4;spacingRight=4;overflow=hidden;rotatable=0;points=[[0,0.5],[1,0.5]];portConstraint=eastwest;whiteSpace=wrap;html=1;" vertex="1" parent="VAqt7soNZ0sLNniL_vXG-8">
          <mxGeometry y="78" width="140" height="26" as="geometry" />
        </mxCell>
        <mxCell id="VAqt7soNZ0sLNniL_vXG-12" value="- Double :&amp;nbsp; treshhold" style="text;strokeColor=none;fillColor=none;align=left;verticalAlign=top;spacingLeft=4;spacingRight=4;overflow=hidden;rotatable=0;points=[[0,0.5],[1,0.5]];portConstraint=eastwest;whiteSpace=wrap;html=1;" vertex="1" parent="VAqt7soNZ0sLNniL_vXG-8">
          <mxGeometry y="104" width="140" height="26" as="geometry" />
        </mxCell>
      </root>
    </mxGraphModel>
  </diagram>
</mxfile>
